<svg id="Capa_2" data-name="Capa 2" xmlns="http://www.w3.org/2000/svg" xmlns:xlink="http://www.w3.org/1999/xlink" width="1240" height="1000" viewBox="0 0 1240 1000">
  <defs>
    <clipPath id="clip-path">
      <rect id="Rectángulo_32358" data-name="Rectángulo 32358" width="978.81" height="978.81" transform="translate(1.99 21.19)" fill="none"/>
    </clipPath>
  </defs>
  <rect id="Rectángulo_32356" data-name="Rectángulo 32356" width="980.83" height="960.74" rx="12" transform="translate(0 29.12)" fill="none"/>
  <rect id="Rectángulo_32357" data-name="Rectángulo 32357" width="1240" height="1000" fill="none"/>
  <g id="Grupo_74060" data-name="Grupo 74060" clip-path="url(#clip-path)">
    <g id="Grupo_74059" data-name="Grupo 74059">
      <path id="Trazado_148142" data-name="Trazado 148142" d="M382.81,870.92c-2-8.13-10.16-24.42-24.4-32.55s-22.39-10.19-28.5-91.56S305.49,594.2,305.49,594.2c-4.05-12.18-4.05-16.26-4.05-16.26,0-10.19,2-67.14,2-93.58s0-91.56-16.26-120.06-44.77-38.66-59-42.71-85.45-38.66-85.45-38.66l-2.05-24.42a92.75,92.75,0,0,1,10.18-18.32c6.1-8.13,6.1-28.47,6.1-28.47s2,0,6.11-2,16.26-28.5,18.32-40.71-10.19-12.19-10.19-12.19,10.19-24.42-4.08-59-61-34.6-61-34.6-46.79,0-61,34.6-4.08,59-4.08,59-12.21,0-10.19,12.19,14.27,38.66,18.32,40.71,6.11,2,6.11,2,0,20.34,6.1,28.47a92.75,92.75,0,0,1,10.18,18.32l-2,24.42S-1.7,317.51-16,321.59s-42.71,14.24-59,42.71-16.26,93.61-16.26,120.06,2,83.39,2,93.58c0,0,0,4.08-4.05,16.26,0,0-18.32,71.21-24.42,152.61s-14.24,83.42-28.5,91.56-22.37,24.42-24.4,32.55-12.21,16.26-16.29,18.31c0,0,4.08,6.09,14.24,4.06s10.18-12.21,14.26-14.24A97.511,97.511,0,0,1-148.21,875s-10.16,40.71-14.24,52.9-10.18,22.39-6.1,24.42,8.13,2.05,10.18-2,16.27-32.55,16.27-32.55-8.13,26.45-10.16,32.55-8.16,18.32-2.05,20.35,6.1-2,8.13-2,10.74-24.45,13.68-36.12c-1.45,6.72-5.13,24.69-3.5,28,2,4.08,10.19-6.08,10.19-6.08s6.08,2,12.18-4.08,25.45-68.16,27.48-80.37-4.08-28.47,2-50.87,40.71-130.21,42.74-158.69,2-48.81,8.13-75.26c3.4-14.7,9.92-33.14,15-46.65,1.51,8.06,3.22,16.2,5.08,23.37,6.81,26.26,11,67.72,6.3,91.36s-10,75.08-13.65,96.08-18.39,87.16-16.29,108.16S-24.69,993.9-24.69,993.9s-.17,145,6.06,196.94l14-.52,83.17.52.32-3.5L96.08,993.39l10-85.72,10,85.72,23.71,193.95.3,3.5,83.2-.52,13.95.52c6.2-51.75,6.05-195.76,6.05-196.91,0,0,3.54-115.54,5.64-136.54s-12.6-87.16-16.29-108.16-8.91-72.46-13.65-96.08-.51-65.1,6.3-91.36c1.86-7.17,3.57-15.31,5.08-23.37,5.13,13.51,11.65,32,15.05,46.65,6.1,26.45,6.1,46.79,8.13,75.26S290.25,796.65,296.36,819s0,38.66,2,50.87,21.37,74.27,27.48,80.37,12.16,4.1,12.16,4.1,8.16,10.16,10.19,6.08c1.63-3.27-2.05-21.24-3.5-28,2.94,11.67,11.78,36.12,13.68,36.12s2,4,8.13,2,0-14.24-2.05-20.35-10.16-32.55-10.16-32.55,14.24,28.47,16.27,32.55,6.1,4.08,10.18,2-2-12.21-6.1-24.42S360.44,875,360.44,875a97.493,97.493,0,0,1,10.16,4.08c4.08,2,4.08,12.21,14.26,14.24s14.24-4.06,14.24-4.06C395,887.18,384.86,879.05,382.81,870.92Z" fill="#ffbca2"/>
      <g id="Grupo_74045" data-name="Grupo 74045">
        <path id="Trazado_148143" data-name="Trazado 148143" d="M293.3,722.09c-1-3.2-24.9-78.64-23.37-106.64.31-5.71,1.12-15,2.14-26.68,3.78-43.42,10.81-124.26,2.52-152.69-8.75-30-31-42.32-70.17-38.82-32.53,2.91-68.21,33.35-68.57,33.65L132,426.46c1.51-1.3,37.48-32,71.88-35,41.83-3.74,66.79,10.33,76.33,43,8.6,29.48,1.77,108-2.31,154.84-1,11.66-1.82,20.88-2.12,26.49-1.47,26.93,22.85,103.76,23.1,104.54Z" fill="#ed1b1e"/>
        <path id="Trazado_148144" data-name="Trazado 148144" d="M197.74,884.74c-1.67-34-24-47.81-37.09-53,12.31-4.59,23.69-13.23,25.71-28.33,3.18-23.86,6.84-247.61,1.53-310.57-5.49-65-59.94-62-60.49-62l.4,5.86c2-.13,49.24-2.54,54.23,56.62,2.53,29.93,3,96.28,2.51,160.07h-.22c0,.35-4.79,35-49.08,42.16a72.473,72.473,0,0,1-11.47-4.11c-5.12-2.46-17.66-1.89-17.66-1.89v1.42s6.82.09,9.38,0,5.21.74,4.54,1.55-3.88,1.2-6.25,1.39-7.71-1.39-7.71-1.39v1.29s3.6.47,3.41.95-3.45.79-3.45.79V697s5.72-.95,7.33-1.51a9.481,9.481,0,0,1,4.55-.19c.85.19,4.45,1.8,5.4,1.7a21.5,21.5,0,0,1,2.56,0,19.722,19.722,0,0,1-4.27,1.89c-2.84.94-5.21-.29-8.05,0s-7.52.36-7.52.36v1a16.076,16.076,0,0,0,3.83,0c1.14-.28,3.79-1.07,3.79.13s-1.52,1.86-3.13,2.24-4.49-.57-4.49-.57v1.8a11,11,0,0,0,3.5.48c1.24-.19,4.17-.86,5.12-1.71s1.14-.74,3.13-1.27,3.69-1,4.07,0-.85,2.22-2.56,3.64-4.64,2.08-7,2.18-6.29,0-6.29,0v2s8.85.94,10.93,0a93.493,93.493,0,0,0,8-4.93,14.589,14.589,0,0,1,5-2.27c2-.38,6-.61,6-.61,28.07-4.53,41.69-19.45,48.21-31.33-.69,63.63-2.32,121.19-3.85,132.62-2.4,18-21.51,25.17-36.14,27.15-6.72-.41-6.79-1.19-10.58-2.32s-9.85-6.82-15-9.67-12.73-1.89-12.73-1.89v1.89s3.26-.18,3.07.38-3.07,1.14-3.07,1.14v2s3.73-2.18,5.25-1.61.09,1.61-1.14,2.56-4.11.94-4.11.94v2.18a18.385,18.385,0,0,0,2.6-.76c1.23-.47,5.59-2.65,6.63-2.46s4.17,2.94,5.78,5-.1,2-2.37,2.94-3.32-.85-4.26-1.9a5.84,5.84,0,0,0-4.36-1.32c-1.14.19-4,1-4,1v2.56s3.36-2,4.68-1.57.19,2.8-1.14,3.15-3.54.69-3.54.69v1.71s8-.76,9.7-1.14a10.35,10.35,0,0,1,5.59.66,3.53,3.53,0,0,1,.57,4.55c-1.14,1.7-3.7.66-5.12-.1s-5.11-2.84-6.72-2.17a7.571,7.571,0,0,1-4,0v2.55s3.79-1.42,5-.66,0,1.42-1.42,2.46a8.25,8.25,0,0,1-3.64,1.23v2.28s6.48-2.18,8.85-2.65,3.5.75,3.69,2.27-1.7,2-4.35,2.18-8.19.38-8.19.38v2.08a127.1,127.1,0,0,0,14.72-1c3-.4,6.31-2.08,9.25-4-6,7.28-21.18,14.58-32.27,22.21-12.12,8.33-29.55,25.38-36.37,42.05s-15.16,62.52-15.91,83S40.22,1077,40.22,1077h4.93s3-49.64,3-64.79S58,928.45,64.09,913s21.6-36.88,46.23-50.68,28.41-26.07,28.41-26.07l.17-.09a76.738,76.738,0,0,0,11.49-1.5h0c1.61.27,39.37,7.08,41.5,50.29,2.24,45.64,3.77,172.16,3.78,173.43l5.88-.07C201.52,1057.1,200,930.49,197.74,884.74Zm-74.11-189.5s-1.69,0-1.87-.71,1-1.37,1.63-1.23a8.941,8.941,0,0,1,2.79,1c.71.53,2,.72.53,1.14s-1.88,0-3.08-.2Zm6,4.74c-1.27.9-3.23,1.65-4.12,1.38,0,0-1.32-.06-1.13-.91s4.26-2.56,5.25-2.46,1.24,1.09-.04,2.01ZM119.17,822.65c-1.65-.76-1.94-1.59-3.36-2.23,0,0-2.13-.76-2.22-1.42s1.94-1,3.45-.38,4.36,2.65,4.12,3.27S120.83,823.4,119.17,822.65Zm2.48,1.56c.57-.62,1.52-.76,2.75-.1s2.84,1.71,3,2.23-.66,2.06-2.49,1.33a6.579,6.579,0,0,1-2.53-1.28C121.75,825.63,121.08,824.82,121.65,824.21Zm.93,6.89c1.14-1.42,2.66-1.44,3.75-1.73a10.759,10.759,0,0,1,4.59,0c1.23.38,3.69.33,3.36,1.42s-4.56,1.57-5,1.66a24.265,24.265,0,0,1-4.45-.07c-1.25-.29-3.38.14-2.25-1.28Zm-.32,12.95s-1.71-1-1.29-1.94a3.11,3.11,0,0,1,3-1.61c1.46,0,2.79.14,2.74,1s-2.64,3.17-4.45,2.55Zm4.16-5.43s-2.15-1.78-1.23-3.28,4-.83,5.65-1.14,3.16-1.46,3.33-.26-1.65,3.15-3.38,4.06-3.45,1.64-4.37.62Z" fill="#00bcd4"/>
        <path id="Trazado_148145" data-name="Trazado 148145" d="M299.67,701c-16.54-26.55-19.55-74.33-22-112.73-.83-13.13-1.54-24.46-2.7-33.43-1-8.07-1.42-19.52-1.87-32.77C271.64,478,269.39,411.32,239,393.33c-38.81-23-101.28,19.66-101.91,20.09l-3.34-4.83c2.68-1.86,66.19-45.24,108.25-20.32,33.12,19.63,35.44,88.23,37,133.62.44,13.11.83,24.42,1.83,32.22,1.18,9.16,1.9,20.58,2.73,33.81,2.38,37.74,5.33,84.71,21.1,110Z" fill="#00bcd4"/>
        <path id="Trazado_148146" data-name="Trazado 148146" d="M150.61,148.81c-3,1.77-4.8-.25-4.8-2.52s-.76-8.34-.76-10.87-.51-7.83-2.53-11.61a19.06,19.06,0,0,0-6.31-6.32s4,4.55,5,7.07,1,5.81,1.26,11.88.51,7.83-.25,12.63-3.79,7.07-6.82,11.36-7.07,8.84-9.34,11.62-4.55,2.27-5.56.76-.25-4.8-1-7.07-1.52-6.07-4.3-8.59-4.29-7.83-4.29-7.83a67.846,67.846,0,0,0,.5,8.84c.51,2.27,3,2.52,4.3,4.8s1.51,5.81,1.26,8.33-2.27,3.79-3.79,3-1.26-5.55-2.59-6.88a24.54,24.54,0,0,0-4.52-3v3c6.28,2.46,4.52,17.62,4.52,17.62V405.19h5.87V185.06c2.52-5.18,6.57-5.18,8.34-6.44s7.07-.51,11.37-1.26,5.81-2.28,9.34-5.81a11.59,11.59,0,0,0,3-8.59,36.371,36.371,0,0,0-3.54,5.81c-.76,2-4.55,3-7.83,4s-5.05-2.27-5.05-2.27,2.78-3.29,4.8-6.07,4-4.8,5.55-8.58,2.78-2.53,5.56-3,5-2.27,7.07-4.54a11.4,11.4,0,0,0,2.53-4.55A71.365,71.365,0,0,1,150.61,148.81Z" fill="#00bcd4"/>
        <path id="Trazado_148147" data-name="Trazado 148147" d="M-81.08,722.09c1-3.2,24.9-78.64,23.38-106.64-.32-5.71-1.12-15-2.14-26.68-3.78-43.42-10.82-124.26-2.52-152.69,8.74-30,31-42.32,70.17-38.82,32.53,2.91,68.21,33.35,68.57,33.65l3.83-4.45c-1.52-1.3-37.49-32-71.88-35-41.83-3.74-66.79,10.33-76.33,43-8.6,29.48-1.77,108,2.31,154.84,1,11.66,1.82,20.88,2.12,26.49,1.47,26.93-22.86,103.76-23.1,104.54Z" fill="#00bcd4"/>
        <path id="Trazado_148148" data-name="Trazado 148148" d="M10.69,1058.38l5.87.07c0-1.27,1.54-127.79,3.79-173.43,2.13-43.21,39.89-50,41.5-50.29h0a76.746,76.746,0,0,0,11.49,1.5l.16.09s3.79,12.27,28.42,26.07,40.16,35.27,46.23,50.68,15.91,84,15.91,99.15,3,64.79,3,64.79H172s-4.55-65.93-5.31-86.39-9.09-66.31-15.91-83-24.25-33.72-36.38-42.05c-11.08-7.63-26.26-14.93-32.26-22.21,2.94,1.94,6.23,3.62,9.25,4a127.006,127.006,0,0,0,14.71,1v-2.08s-5.53-.19-8.18-.38-4.54-.67-4.36-2.18,1.33-2.75,3.7-2.27,8.84,2.65,8.84,2.65v-2.28a8.229,8.229,0,0,1-3.63-1.23c-1.42-1-2.65-1.7-1.42-2.46s5,.66,5,.66v-2.55a7.53,7.53,0,0,1-4,0c-1.61-.67-5.3,1.42-6.73,2.17s-4,1.8-5.11.1a3.53,3.53,0,0,1,.57-4.55,10.339,10.339,0,0,1,5.59-.66c1.7.38,9.69,1.14,9.69,1.14v-1.71s-2.21-.34-3.54-.69-2.46-2.74-1.13-3.15,4.67,1.57,4.67,1.57V828s-2.87-.85-4-1a5.84,5.84,0,0,0-4.36,1.32c-.94,1-2,2.85-4.26,1.9s-4-.85-2.37-2.94,4.74-4.83,5.78-5,5.4,2,6.63,2.46a18.442,18.442,0,0,0,2.59.76v-2.18s-2.87,0-4.1-.94-2.66-2-1.14-2.56,5.24,1.61,5.24,1.61v-2s-2.87-.57-3.06-1.14,3.06-.38,3.06-.38v-1.89s-7.61-.95-12.72,1.89-11.18,8.53-15,9.67-3.87,1.91-10.58,2.32c-14.63-2-33.74-9.11-36.15-27.15-1.52-11.43-3.15-69-3.84-132.62,6.52,11.88,20.14,26.8,48.21,31.33,0,0,4.06.23,6,.61a14.45,14.45,0,0,1,5,2.27c1.33.85,6,4,8.06,4.93s10.92,0,10.92,0v-2s-3.92.09-6.28,0-5.31-.76-7-2.18-2.94-2.65-2.56-3.64,2.08-.53,4.07,0,2.18.42,3.13,1.27,3.88,1.52,5.11,1.71a11.11,11.11,0,0,0,3.51-.48v-1.8s-2.87,1-4.48.57-3.13-1-3.13-2.24,2.65-.41,3.79-.13a16,16,0,0,0,3.82,0v-1s-4.67-.08-7.51-.36-5.21.94-8.06,0a19.751,19.751,0,0,1-4.26-1.89,21.5,21.5,0,0,1,2.56,0c1,.1,4.55-1.51,5.4-1.7a9.44,9.44,0,0,1,4.54.19c1.61.56,7.33,1.51,7.33,1.51v-1.48s-3.25-.32-3.44-.79,3.41-.95,3.41-.95v-1.29s-5.34,1.58-7.7,1.39-5.59-.57-6.26-1.39,2-1.65,4.55-1.55,9.38,0,9.38,0v-1.42s-12.54-.57-17.65,1.89A72.864,72.864,0,0,1,77,695.56c-44.29-7.14-49-41.81-49.08-42.16H27.7c-.51-63.79,0-130.14,2.5-160.07,5-59.16,52.22-56.75,54.24-56.62l.4-5.86c-.55,0-55-3-60.49,62-5.31,63-1.65,286.71,1.53,310.57,2,15.1,13.39,23.74,25.71,28.33-13.06,5.17-35.42,18.94-37.1,53C12.23,930.49,10.71,1057.1,10.69,1058.38Zm74.83-363c-1.51-.42-.19-.61.52-1.14a9,9,0,0,1,2.8-1c.61-.14,1.8.57,1.62,1.23s-1.86.71-1.86.71c-1.2.26-1.6.68-3.08.25ZM82.63,698c1-.1,5.07,1.61,5.26,2.46s-1.14.91-1.14.91c-.88.27-2.84-.48-4.12-1.38S81.64,698.08,82.63,698Zm8.43,123.9c-.23-.62,2.61-2.7,4.13-3.27s3.55-.28,3.45.38-2.22,1.42-2.22,1.42c-1.42.64-1.71,1.47-3.37,2.23s-1.75-.16-1.99-.77Zm-1.2,4.5a6.52,6.52,0,0,1-2.53,1.28c-1.82.73-2.63-.81-2.49-1.33s1.76-1.56,3-2.23,2.18-.52,2.74.1-.1,1.41-.72,2.17Zm-2.49,6a24.265,24.265,0,0,1-4.45.07c-.41-.09-4.64-.57-5-1.66s2.13-1,3.36-1.42a10.76,10.76,0,0,1,4.59,0c1.09.29,2.61.31,3.74,1.73s-.96.97-2.24,1.26Zm-1.89,9.16c0-.9,1.27-1,2.74-1a3.09,3.09,0,0,1,3,1.61c.43.95-1.28,1.94-1.28,1.94-1.78.56-4.42-1.67-4.46-2.57Zm-4-3.54c-1.73-.91-3.54-2.86-3.38-4.06s1.69,0,3.33.26,4.72-.36,5.64,1.14-1.22,3.28-1.22,3.28c-.96,1-2.67.27-4.41-.64Z" fill="#ed1b1e"/>
        <path id="Trazado_148149" data-name="Trazado 148149" d="M-87.44,701c16.54-26.55,19.55-74.33,22-112.73.83-13.13,1.54-24.46,2.7-33.43,1-8.07,1.42-19.52,1.87-32.77,1.49-44.11,3.73-110.77,34.09-128.76C12,370.33,74.48,413,75.11,413.42l3.34-4.83c-2.68-1.86-66.19-45.24-108.25-20.32-33.13,19.63-35.44,88.23-37,133.62-.45,13.11-.83,24.42-1.83,32.22-1.18,9.16-1.9,20.58-2.73,33.81-2.38,37.74-5.34,84.71-21.1,110Z" fill="#ed1b1e"/>
        <path id="Trazado_148150" data-name="Trazado 148150" d="M61.62,148.81c3,1.77,4.8-.25,4.8-2.52s.76-8.34.76-10.87.5-7.83,2.52-11.61a19.14,19.14,0,0,1,6.3-6.32s-4,4.55-5,7.07-1,5.81-1.27,11.88-.5,7.83.26,12.63,3.79,7.07,6.82,11.36,7.07,8.84,9.34,11.62,4.55,2.27,5.56.76.25-4.8,1-7.07,1.52-6.07,4.29-8.59,4.3-7.83,4.3-7.83a66.53,66.53,0,0,1-.51,8.84c-.5,2.27-3,2.52-4.29,4.8s-1.52,5.81-1.26,8.33,2.27,3.79,3.79,3,1.26-5.55,2.59-6.88a24.58,24.58,0,0,1,4.51-3v3c-6.27,2.46-4.51,17.62-4.51,17.62V405.19H95.73V185.06c-2.53-5.18-6.58-5.18-8.34-6.44s-7.08-.51-11.37-1.26-5.81-2.28-9.35-5.81a11.61,11.61,0,0,1-3-8.59,36.369,36.369,0,0,1,3.54,5.81c.76,2,4.55,3,7.83,4s5-2.27,5-2.27-2.78-3.29-4.8-6.07-4-4.8-5.56-8.58-2.77-2.53-5.55-3-5.05-2.27-7.08-4.54a11.29,11.29,0,0,1-2.52-4.55,71.36,71.36,0,0,0,7.09,5.05Z" fill="#ed1b1e"/>
      </g>
      <g id="Grupo_74058" data-name="Grupo 74058">
        <g id="Grupo_74046" data-name="Grupo 74046">
          <path id="Trazado_148151" data-name="Trazado 148151" d="M74.2,429.63v4.86s-3.73-1.47-6.26-.95a3.5,3.5,0,0,1-.74-2.26,2.85,2.85,0,0,1,.21-.91h0a3.81,3.81,0,0,1,.79-1.18,11.46,11.46,0,0,1,6,.44Z" fill="#a90508"/>
          <path id="Trazado_148152" data-name="Trazado 148152" d="M68.2,429.19a4.1,4.1,0,0,0-.47.6c.8-.07,2.24-.18,3-.15,1.07,0,.91.58.84,1.27s-1.07.94-2.31,1.07l-2,.23a3.67,3.67,0,0,0,.64,1.33c2.52-.52,6.26.95,6.26.95v-4.87a11.52,11.52,0,0,0-5.96-.43Z" fill="#780203"/>
        </g>
        <g id="Grupo_74047" data-name="Grupo 74047">
          <path id="Trazado_148153" data-name="Trazado 148153" d="M75,443.31a12.28,12.28,0,0,0-8-.64,3.331,3.331,0,0,1-.92-1.17,3.23,3.23,0,0,1-.29-1.05,3.54,3.54,0,0,1,.06-1,4.29,4.29,0,0,1,.3-.87,6,6,0,0,1,.32-.6s5-1.21,7.66-.87Z" fill="#a90508"/>
          <path id="Trazado_148154" data-name="Trazado 148154" d="M75,443.31a12.28,12.28,0,0,0-8-.64,3.331,3.331,0,0,1-.92-1.17c.55-.15,1.23-.31,2-.48,2.15-.46,4.31-.13,4.44-1s-.13-2.41-1.18-2.28a34.078,34.078,0,0,0-5.19.88,6.005,6.005,0,0,1,.32-.6s5-1.21,7.66-.87Z" fill="#780203"/>
        </g>
        <g id="Grupo_74048" data-name="Grupo 74048">
          <path id="Trazado_148155" data-name="Trazado 148155" d="M143.8,422.77a6.791,6.791,0,0,1-.2,1.46s-4.95.44-7.82,2.87l-.7-1.21-2.3-4-.23-.4s6.1-1.77,10.71-1.23a1.709,1.709,0,0,1,.15.29,2.538,2.538,0,0,1,.17.44,4.649,4.649,0,0,1,.21,1.16,4.8,4.8,0,0,1,.01.62Z" fill="#a90508"/>
          <path id="Trazado_148156" data-name="Trazado 148156" d="M143.8,422.77a6.791,6.791,0,0,1-.2,1.46s-4.95.44-7.82,2.87l-.7-1.21c.22-.82.44-1.57.44-1.57S140.91,422.7,143.8,422.77Z" fill="#780203"/>
          <path id="Trazado_148157" data-name="Trazado 148157" d="M143.41,420.51c-.91,0-2.31,0-4.07.07a21.239,21.239,0,0,0-5.91,1.3,3.5,3.5,0,0,1-.65,0l-.23-.4s6.1-1.77,10.71-1.23a1.709,1.709,0,0,1,.15.26Z" fill="#780203"/>
        </g>
        <g id="Grupo_74049" data-name="Grupo 74049">
          <path id="Trazado_148158" data-name="Trazado 148158" d="M146.74,431.37s-4,4.43-9.74,4.61l-.12-1.72v-.69l-.18-2.55a12.72,12.72,0,0,0,7.91-3,1.938,1.938,0,0,1,.41.11,2.64,2.64,0,0,1,1.52,1.59,4,4,0,0,1,.18.68A5.329,5.329,0,0,1,146.74,431.37Z" fill="#a90508"/>
          <path id="Trazado_148159" data-name="Trazado 148159" d="M145,428.08c-.72,2-5.54,3.08-6.54,3.63a1.62,1.62,0,0,0-.78,1.41,2.869,2.869,0,0,0,0,.62,1.71,1.71,0,0,1-.8.52.47.47,0,0,1-.35,0,4.886,4.886,0,0,1,.3-.65l-.18-2.55a12.72,12.72,0,0,0,7.91-3,1.941,1.941,0,0,1,.44.02Z" fill="#780203"/>
          <path id="Trazado_148160" data-name="Trazado 148160" d="M146.74,431.37s-4,4.43-9.74,4.61l-.12-1.72a.47.47,0,0,1-.35,0,4.886,4.886,0,0,1,.3-.65,6.271,6.271,0,0,1,.77-1.16,2.251,2.251,0,0,0,.05.71,1.26,1.26,0,0,0,1.3,1.07c1.47,0,6-2,7.72-3.84A5.331,5.331,0,0,1,146.74,431.37Z" fill="#780203"/>
        </g>
        <path id="Trazado_148161" data-name="Trazado 148161" d="M110.56,501.2A71.41,71.41,0,0,1,86.2,482.94c-10.78-12.7-11.13-21.4-11.13-28.36s0-8.52-.52-11.48,8.18-11.3,17.22-12.87,31-5,31-5,19.48,13.22,24,24.18,6.95,22.78,5.39,32.52-6.79,20-11.66,21.92S119.6,506.59,110.56,501.2Z" fill="#ff858a"/>
        <path id="Trazado_148162" data-name="Trazado 148162" d="M117.78,458l2.43-1.8L133,447.45s-8.08-5.82-9.47-7.56-4.79-5.22-4.79-5.22L115,444.41Z" fill="#a90508"/>
        <path id="Trazado_148163" data-name="Trazado 148163" d="M123.52,439.89c-1.17-1.46-3.74-4.14-4.54-5l-2.77,9.55,1,7.38,3.92-4.11s-.72-4.57-.39-5.22,1.63-1.11,1.63-1.11L127.3,446l5.63,1.37C132.22,446.89,124.84,441.54,123.52,439.89Z" fill="#780203"/>
        <path id="Trazado_148164" data-name="Trazado 148164" d="M117.78,458s-1.51-7.3,2.54-10.37a10.46,10.46,0,0,1,12.67-.22c3.44,2.63,1.68,3.87,1,4.92s-11.35,7-11.35,7Z" fill="#ff858a"/>
        <g id="Grupo_74050" data-name="Grupo 74050">
          <path id="Trazado_148165" data-name="Trazado 148165" d="M130.21,417.27s5.65,3.92,6.79,9.05a47.7,47.7,0,0,1,.52,12L127.08,435l-5.91-4.61S124.82,418.93,130.21,417.27Z" fill="#a90508"/>
          <path id="Trazado_148166" data-name="Trazado 148166" d="M137.68,433.74a37.32,37.32,0,0,0-.68-7.42c-1.14-5.13-6.79-9.05-6.79-9.05-5.39,1.66-9,13.14-9,13.14l4.1,3.19c1.6-2.35,3.25-5.41,3.25-5.41l2-5.31s-.87-2.21-.17-2.78,2-.17,2.69.57a10.52,10.52,0,0,1,2.65,4.95c.48,2.48.61,4.18,1,4.92C137,431.11,137.08,433.73,137.68,433.74Z" fill="#780203"/>
          <path id="Trazado_148167" data-name="Trazado 148167" d="M137.52,438.32s.87-8.78-1.74-13.13-7.22-2.52-9.13.52-3.58,6.18-3.58,6.18a13.89,13.89,0,0,0,.88,2.78C124.3,435.1,137.52,438.32,137.52,438.32Z" fill="#ff858a"/>
        </g>
        <path id="Trazado_148168" data-name="Trazado 148168" d="M121.56,461.37s12.65,0,13.7-8.35,3.78-9.26,7.56-4.7,5.74,17.35,4.83,27.92-6.78,16.05-8.61,14-2.74-10.44-6.65-15.53S121.56,461.37,121.56,461.37Z" fill="#f3454b"/>
        <path id="Trazado_148169" data-name="Trazado 148169" d="M115.82,462.41a80.692,80.692,0,0,0,9,14.61c5.48,6.92,8.48,15.4,7.57,18.4s-.4,4.95-9.66,4.17-17.35-7-23.35-11.22-10.57-11.61-7.57-15,6.27-.52,6.92-3.26.13-9.13,3.26-8.48S110.6,466.06,115.82,462.41Z" fill="#f3454b"/>
        <g id="Grupo_74051" data-name="Grupo 74051">
          <path id="Trazado_148170" data-name="Trazado 148170" d="M98.46,456.93c-1.56,5-1,8.62-1.17,10.7s-2.61,2.09-5.34,2.61a33.229,33.229,0,0,0-6,2c-2.22-.26-5.73-5.22-7.82-11A24,24,0,0,1,77,453c0-3.47.32-6.92,0-9.86-.65-5.35,1.57-7.44,5.35-9.4s5.48.92,7.57,4.56a.77.77,0,0,0,.1.18c2.07,3.44,4.78,2.23,8,5.44S100,452,98.46,456.93Z" fill="#f3454b"/>
          <path id="Trazado_148171" data-name="Trazado 148171" d="M90,438.45a33,33,0,0,0-7.8,1.13c-4.17,1.05-2.74,2.74-3.26,5.61-.39,2.11-1.4,5.92-1.92,7.78,0-3.47.32-6.92,0-9.86-.65-5.35,1.57-7.44,5.35-9.4s5.48.92,7.57,4.56a.77.77,0,0,0,.06.18Z" fill="#c82c32"/>
        </g>
        <path id="Trazado_148172" data-name="Trazado 148172" d="M130.43,456.8s-4.7,3.92-8.61,2.22-3-7.7,1.56-10.57,8.48-.78,9.14,1.44S133.43,454.45,130.43,456.8Z" fill="#f3454b"/>
        <g id="Grupo_74052" data-name="Grupo 74052">
          <path id="Trazado_148173" data-name="Trazado 148173" d="M134.47,445.58a30.932,30.932,0,0,1-7.18-5.57,6.69,6.69,0,0,1-1.82-3.69c-.26-4.44,1-10,4.83-10.82s5.09.78,5.09,6.51v3.72a74,74,0,0,0,.48,8.55C136.17,445.72,135.52,446.76,134.47,445.58Z" fill="#f3454b"/>
          <path id="Trazado_148174" data-name="Trazado 148174" d="M135.43,435.73a22.35,22.35,0,0,0-3-5c-1.74-1.91-2.7.27-4.88,3.05-1.71,2.19-.79,5.07-.31,6.21a6.69,6.69,0,0,1-1.82-3.69c-.26-4.44,1-10,4.83-10.82s5.09.78,5.09,6.51C135.39,433.29,135.4,434.54,135.43,435.73Z" fill="#c82c32"/>
        </g>
        <g id="Grupo_74053" data-name="Grupo 74053">
          <path id="Trazado_148175" data-name="Trazado 148175" d="M117.32,450.8c-1.31-2.54-8-5.8-11-4s-6.47,3.33-7.31,8.25l2.55.42a6.54,6.54,0,0,1,1-2.28c2.61-3.78,5.74-2.61,7.83-2s4.57,2.09,5,4.57a5,5,0,0,1-.07,1.95l2.41.4S118.62,453.35,117.32,450.8Z" fill="#00c6e7"/>
          <path id="Trazado_148176" data-name="Trazado 148176" d="M140.73,412.45s-9.12,2.35-15,13.17c-5.2,9.59-7.43,27.66-7.88,31.68a7.37,7.37,0,0,0-5.56-8.07c-6.79-2-11.5-.06-13.25,5.78,0,0,2.24-20.38,11.39-32.26a3.18,3.18,0,0,0-2-4.17s.6-5.22,5.08-5.74c0,0,5.9,2.61,6.29,7.3,0,0,6.27-10.43,18-13.17a6.94,6.94,0,0,1,1.62,1.42,5.831,5.831,0,0,1,.73,1.08,4.529,4.529,0,0,1,.47,1.31,4.63,4.63,0,0,1,.11,1.67Z" fill="#00bcd4"/>
          <path id="Trazado_148177" data-name="Trazado 148177" d="M137.87,407c-11.74,2.74-18,13.17-18,13.17a4.81,4.81,0,0,0-.12-.76,1.616,1.616,0,0,0,0-.19,6.139,6.139,0,0,0-.53-1.39,1.092,1.092,0,0,0-.08-.15,7.831,7.831,0,0,0-.81-1.22l-.11-.13q-.23-.27-.45-.51h0l-.48-.46-.16-.15-.39-.33-.22-.18-.33-.25-.24-.18-.19-.14-.57-.37h0a13.724,13.724,0,0,0-1.54-.85c-4.48.52-5.08,5.74-5.08,5.74a3.18,3.18,0,0,1,2,4.17C101.29,434.63,99.05,455,99.05,455a8.78,8.78,0,0,1,4.06-5.47c.4-4,2.35-12.4,4.23-16.52,3-6.7,6-8.83,5.61-10.79a15.191,15.191,0,0,0-2.09-4.43,3.78,3.78,0,0,1,3.39-3.13s5.61,3.47,5.09,8.26c0,0,6.82-12.41,19.5-15.22a5.879,5.879,0,0,0-.97-.7Z" fill="#00729b"/>
          <path id="Trazado_148178" data-name="Trazado 148178" d="M140.73,412.45s-9.12,2.35-15,13.17c-5.2,9.59-7.43,27.66-7.88,31.68a8,8,0,0,0-2-6.06c.56-5.08,2.16-16,6.13-24.05a34.09,34.09,0,0,1,18.74-16.41,4.63,4.63,0,0,1,.01,1.67Z" fill="#00729b"/>
        </g>
        <g id="Grupo_74054" data-name="Grupo 74054">
          <path id="Trazado_148179" data-name="Trazado 148179" d="M93.33,409.62l-2.43,7.65c-8.52-.25-26.26,6.79-26.26,6.79s-1.31-.18-2.44-2.7a1.878,1.878,0,0,1-.12-.3,5.2,5.2,0,0,1-.31-1.73,5.29,5.29,0,0,1,.17-1.44C72.72,411.45,93.33,409.62,93.33,409.62Z" fill="#00bcd4"/>
          <path id="Trazado_148180" data-name="Trazado 148180" d="M61.89,418.09a88.74,88.74,0,0,1,31.19-7.68l.26-.79s-20.62,1.83-31.4,8.26Z" fill="#00729b"/>
          <path id="Trazado_148181" data-name="Trazado 148181" d="M72.64,418a3.8,3.8,0,0,0,.45-2.61,1.74,1.74,0,0,0-1.24-1.24l3.33-1-.32,4Z" fill="#00729b"/>
          <path id="Trazado_148182" data-name="Trazado 148182" d="M62.57,422.1c1,1.82,2.07,2,2.07,2s17.74-7.1,26.26-6.83l1.17-3.67a54.71,54.71,0,0,0-29.5,8.5Z" fill="#00729b"/>
          <path id="Trazado_148183" data-name="Trazado 148183" d="M87.44,412.45s3-.07,3.33-.39.46-1.24-.2-1.11-3.13.71-3.39.78.2-1,.2-1l5.15-.33-1,3.65s-1.57,1.7-2.94,1.44a9.44,9.44,0,0,1-2.74-1.11Z" fill="#00729b"/>
          <path id="Trazado_148184" data-name="Trazado 148184" d="M89.21,410.93s-.79.17-1,.65-.09.87,0,.91,0,.57-.48.44a3.7,3.7,0,0,1-1.17-.7s0-1,.56-1.17a7,7,0,0,1,2.09-.13Z" fill="#00729b"/>
        </g>
        <g id="Grupo_74055" data-name="Grupo 74055">
          <path id="Trazado_148185" data-name="Trazado 148185" d="M90.64,434.67l-2.37,1a.35.35,0,0,0,0-.08l-.3-.42c-.22-.28-.44-.55-.67-.79l-.19-.19-.09-.08c-.11-.1-.21-.19-.33-.28a3.61,3.61,0,0,0-.77-.47l-.2-.08a2.461,2.461,0,0,0-.62-.17,1.6,1.6,0,0,0-.23,0h-.28a4.911,4.911,0,0,0-2.25.63,13.229,13.229,0,0,0-3.61,2.51,6.159,6.159,0,0,0-.71.89,4.281,4.281,0,0,0-.37.66,4.59,4.59,0,0,0-.38.91,7.63,7.63,0,0,0-.29,1.25,10.06,10.06,0,0,0-.07,2.16h0L75,443.31l-.37.25a44.22,44.22,0,0,1-2.17-13.24c.09-6.79,1.91-13.74,1.05-18.61s-5.57-9.57-5.57-9.57-.43-3.3,1.82-4.61,3.57-.26,3.57-.26,5.48,3.57,6.88,9.48c0,0,1.21-6.09,4.86-8.44l4.87,6.88s-4.17,8.35-3.13,16.17a46.28,46.28,0,0,0,3.79,13.23Z" fill="#00bcd4"/>
          <path id="Trazado_148186" data-name="Trazado 148186" d="M83.2,416.62c-1.1,6.46,2.68,15.92,2.68,15.92l3.28,2.76,1.48-.63v-.08a46.281,46.281,0,0,1-3.79-13.23c-1-7.82,3.13-16.17,3.13-16.17l-1.27-1.8-1,.06a54.87,54.87,0,0,0-4.51,13.17Z" fill="#00729b"/>
          <path id="Trazado_148187" data-name="Trazado 148187" d="M80.33,408.86s1.49-7.53,5.09-10.06l-.35-.49c-3.65,2.35-4.86,8.44-4.86,8.44-1.4-5.91-6.88-9.48-6.88-9.48a2.89,2.89,0,0,0-2.83-.09c1,.59,5.28,3.27,6.83,5.74a60.193,60.193,0,0,1,3,5.94Z" fill="#00729b"/>
          <path id="Trazado_148188" data-name="Trazado 148188" d="M85.07,398.31a2.29,2.29,0,0,1,2.7.44,8.38,8.38,0,0,1,2.8,4.3c.14,1.18.05,2-.63,2.14S83.81,403.09,85.07,398.31Z" fill="#00c6e7"/>
          <path id="Trazado_148189" data-name="Trazado 148189" d="M86.16,400s-.43-1.43.74-1a7.05,7.05,0,0,1,2.83,3.66c.13.82-.61,1.39-1.48.69A4.9,4.9,0,0,1,86.16,400Z" fill="#00729b"/>
          <path id="Trazado_148190" data-name="Trazado 148190" d="M77.77,437.47c-.14-1.22-.26-2.11-.26-2.11s-1.94-5.63-1.92-16c0-2.79.87-4.78,1-7s-2.36-8.25-8.63-11.33a6.929,6.929,0,0,0,0,1.15s4.7,4.7,5.57,9.57-1,11.82-1.05,18.61a44.22,44.22,0,0,0,2.17,13.24l.37-.25,1.85-1.21h0a10.061,10.061,0,0,1,.07-2.16,7.63,7.63,0,0,1,.29-1.25,4.589,4.589,0,0,1,.38-.91,2.91,2.91,0,0,1,.16-.35Z" fill="#00729b"/>
          <path id="Trazado_148191" data-name="Trazado 148191" d="M90.64,434.67l-2.37,1a.35.35,0,0,0,0-.08l-.3-.42c-.22-.28-.44-.55-.67-.79l-.19-.19-.09-.08c-.11-.1-.21-.19-.33-.28a3.61,3.61,0,0,0-.77-.47l-.2-.08a2.461,2.461,0,0,0-.62-.17,1.6,1.6,0,0,0-.23,0h-.28a4.911,4.911,0,0,0-2.25.63,13.229,13.229,0,0,0-3.61,2.51,6.159,6.159,0,0,0-.71.89,4.281,4.281,0,0,0-.37.66,4.59,4.59,0,0,0-.38.91,5.869,5.869,0,0,0-.29,1.25,10.779,10.779,0,0,0-.08,2.17L75,443.31a1.371,1.371,0,0,1-.45-.2,10,10,0,0,1,1.31-8c2.61-4.27,7.13-4.61,9.21-4.53s4.06,1.11,5.53,4Z" fill="#00c6e7"/>
        </g>
        <g id="Grupo_74056" data-name="Grupo 74056">
          <path id="Trazado_148192" data-name="Trazado 148192" d="M115.37,457.69a4.94,4.94,0,0,1-2,3s-2.61,1.82-6.92.52c-3.4-1-5.41-3.12-4.81-5.82a6.28,6.28,0,0,1,1-2.27c2.61-3.78,5.74-2.61,7.83-1.95s4.57,2.08,5,4.56a5.14,5.14,0,0,1-.1,1.96Z" fill="#f3454b"/>
          <path id="Trazado_148193" data-name="Trazado 148193" d="M115.37,457.69h0c-.23.34-3.5-2.95-6.46-3.47a12.28,12.28,0,0,0-7.29,1.2h0a6.28,6.28,0,0,1,1-2.27c2.61-3.78,5.74-2.61,7.83-1.95s4.57,2.08,5,4.56a5.14,5.14,0,0,1-.08,1.93Z" fill="#c82c32"/>
        </g>
        <g id="Grupo_74057" data-name="Grupo 74057">
          <path id="Trazado_148194" data-name="Trazado 148194" d="M122.51,416.65a27.635,27.635,0,0,0-2.65,3.49c-.39-4.69-6.29-7.3-6.29-7.3-4.48.52-5.08,5.74-5.08,5.74a3.18,3.18,0,0,1,2,4.17c-4.51,5.85-7.34,13.77-9,20.29-2.65-1.31-8.28-4.45-10.76-8.37-3.3-5.22-3.48-15.92-.09-23.13s6.18-9.66,3.74-14.18-5.65-5.31-5.65-5.31a4.35,4.35,0,0,1,.48-2.32,4.29,4.29,0,0,1,1-1.25,4.71,4.71,0,0,1,1-.66A1.83,1.83,0,0,1,93,387.7s5.13,3.14,6.78,8.09l-1.13-10a5.11,5.11,0,0,1,1.3-1.36,2.92,2.92,0,0,1,1.07-.5,2.319,2.319,0,0,1,.59-.05,3.45,3.45,0,0,1,1.79.57,3.139,3.139,0,0,1,.82.73,25.27,25.27,0,0,0,1.13,6.61s-.44-5.21,2.79-7.74a3.721,3.721,0,0,1,1.47,0,2.58,2.58,0,0,1,1,.45,2.339,2.339,0,0,1,.43.41c.1.13.19.26.27.38a4.48,4.48,0,0,1,.85,2s-1.65,2-1.39,3.82a46.735,46.735,0,0,0,1.48,5.48s6.87,4.36,8.53,10.79a91.4,91.4,0,0,1,1.73,9.27Z" fill="#a90508"/>
          <path id="Trazado_148195" data-name="Trazado 148195" d="M118.64,404.84c1.72,3.37,3.07,9.45,3.41,12.35l.46-.54a91.407,91.407,0,0,0-1.86-9.29c-1.66-6.43-8.53-10.79-8.53-10.79a46.737,46.737,0,0,1-1.48-5.48c-.26-1.82,1.39-3.82,1.39-3.82a3.33,3.33,0,0,0-.29-1,8.55,8.55,0,0,0-2.4,3.06c-1,2.43-.09,7.3.61,8.26S116.38,400.4,118.64,404.84Z" fill="#780203"/>
          <path id="Trazado_148196" data-name="Trazado 148196" d="M90.52,434.45a10.47,10.47,0,0,0,3-.74s-4.7-5.65-3.91-12.52,2.26-10.44,4.26-13.48,4.35-5.39,3.74-8.44c-.57-2.81-5.37-7.33-8.91-8.27a4.22,4.22,0,0,0,0,1.05s3.22.79,5.65,5.31-.34,7-3.74,14.18S87.34,429.17,90.52,434.45Z" fill="#780203"/>
          <path id="Trazado_148197" data-name="Trazado 148197" d="M111.17,410.58c-4.44,1.3-4.7,7-4.7,10.43s-2.61,8.35-4.26,11.05-6.79,2.43-9.57-.17c-2.15-2-3.46-8.72-4.37-11.72-.58,5.51.24,11.14,2.37,14.5,2.48,3.92,8.11,7.06,10.76,8.37,1.7-6.52,4.53-14.44,9-20.29a3.18,3.18,0,0,0-2-4.17s.6-5.22,5.08-5.74c0,0,5.9,2.61,6.29,7.3a26.905,26.905,0,0,1,1.92-2.63,37,37,0,0,0-2.44-4.15,7,7,0,0,0-8.08-2.78Z" fill="#780203"/>
          <path id="Trazado_148198" data-name="Trazado 148198" d="M101.21,397.31l-1.53-1.52-1.13-10a5.11,5.11,0,0,1,1.3-1.36C100,388.26,101.21,397.31,101.21,397.31Z" fill="#780203"/>
          <path id="Trazado_148199" data-name="Trazado 148199" d="M109.51,384.06c-3.31,2.72-4.26,7.73-4.26,7.73s-.44-5.21,2.79-7.74a3.721,3.721,0,0,1,1.47.01Z" fill="#780203"/>
        </g>
        <path id="Trazado_148200" data-name="Trazado 148200" d="M93.84,469.2a2.76,2.76,0,0,1,1.82.71,17,17,0,0,1,1.44,2L99,471a10.839,10.839,0,0,1-1.83-2.16,7.27,7.27,0,0,0-.78-1.5Z" fill="#f3454b"/>
        <path id="Trazado_148201" data-name="Trazado 148201" d="M108,461c0,.19.07,1.3.07,2a2.55,2.55,0,0,1-.4,1.3l2.42.4a11.59,11.59,0,0,1-.65-3.59C109.62,460.13,108,461,108,461Z" fill="#f3454b"/>
        <path id="Trazado_148202" data-name="Trazado 148202" d="M128.08,460.85c.26-.2,1.24-.92,1.37-1.44a3.54,3.54,0,0,0-.46-2c-.19-.13.85-.65.85-.65s.26,1.43.92,1.63a6.471,6.471,0,0,0,2.15-.13,29.45,29.45,0,0,1-3.26,2.8A7,7,0,0,1,128.08,460.85Z" fill="#f3454b"/>
        <path id="Trazado_148203" data-name="Trazado 148203" d="M134.93,445.71a2.11,2.11,0,0,1,1.24,1.18,3.09,3.09,0,0,0,1,1.3l.65-1.3a8.719,8.719,0,0,1-2-2.09c-.33-.78-1.37-.2-1.37-.2Z" fill="#f3454b"/>
      </g>
    </g>
  </g>
  <g id="Grupo_74070" data-name="Grupo 74070">
    <g id="Grupo_74061" data-name="Grupo 74061">
      <path id="Trazado_148204" data-name="Trazado 148204" d="M709.5,258.12c0,2-.07,4.06-.12,6.09-.43,15-1.58,29-1.58,29,.12,22.57-32.77,21-39.94,19.59-6.31-1.21-7.59-16.08-4.25-32,.25-1.23.54-2.45.85-3.7a83.629,83.629,0,0,1,5.79-16.1c10.55-21.54,30.18-35.37,35.68-31.73C709,231.26,709.66,244.32,709.5,258.12Z" fill="#f27f8f"/>
      <path id="Trazado_148205" data-name="Trazado 148205" d="M709.5,258.12c0,2-.07,4.06-.12,6.09a55.639,55.639,0,0,1-11.08,9.62c-4.36,2.76-21.78,10.55-26.13,10.32-3-.16-7.15-.55-8.56-3.37.25-1.23.54-2.45.85-3.7,1.21,2.13,3.93,5.44,8.69,4,6.82-2,19.87-5.2,24.68-9.57C701.63,268.11,707.3,261,709.5,258.12Z" fill="#f3454b"/>
    </g>
    <g id="Grupo_74062" data-name="Grupo 74062">
      <path id="Trazado_148206" data-name="Trazado 148206" d="M736,367.42c-1.76,15.63-7.58,36.34-10.4,40.37-3.77,5.4-14.83,11.06-25.08,1.88,0,0-20.78-17-28.47-31.84a26.129,26.129,0,0,1-2.56-7c-3-15.91,7.55-34.25,28.86-35.34s35.34,5.67,37.78,18.63A52.632,52.632,0,0,1,736,367.42Z" fill="#a90508"/>
      <path id="Trazado_148207" data-name="Trazado 148207" d="M736,367.42c-1.76,15.63-7.58,36.34-10.4,40.37-3.77,5.4-14.83,11.06-25.08,1.88,0,0-20.78-17-28.47-31.84,1.51,1.79,3.2,3.16,5,3.48,6.42,1.15,15.81,4.12,19,1.15s9.4-9.18,9.4-9.18,9.62,8.72,17.19,6.2C728.43,377.53,732.37,373.78,736,367.42Z" fill="#6b0203"/>
    </g>
    <g id="Grupo_74063" data-name="Grupo 74063">
      <path id="Trazado_148208" data-name="Trazado 148208" d="M700.23,555.79s3.14,6,1.23,9.09-9,7.57-16.7,2.08c0,0-7.38-3.78-8.25-11.17-.08-.62-.15-1.33-.22-2.13h0c-.74-8.47-.8-25.11,10.36-29.81,7.1-3,11.93-1.48,14.66,1.4a9.6,9.6,0,0,1,2.7,7c-.35,5.33-4.47,10.14-4.47,10.14a12.689,12.689,0,0,1,.69,3.79A8.249,8.249,0,0,1,699,550S700.91,553.71,700.23,555.79Z" fill="#6b0203"/>
      <path id="Trazado_148209" data-name="Trazado 148209" d="M701.85,531c-.13,4.24-4.82,9-4.82,9l-7,.91s5.73,1.15,6.3,1.72-.46,4.25-1,5.51-5.15,1.47-5.15,1.47l4.92.23s1.49.59.23,4.25-11.68,5.84-16.27,2.75a9.44,9.44,0,0,1-2.75-3.18h0c-.74-8.47-.8-25.11,10.36-29.81,7.1-3,11.93-1.48,14.66,1.4a21.781,21.781,0,0,1,.52,5.75Z" fill="#a90508"/>
    </g>
    <g id="Grupo_74064" data-name="Grupo 74064">
      <path id="Trazado_148210" data-name="Trazado 148210" d="M707.81,448.94c-1.88,4.65-5.71,10.35-12.68,16.07-9,7.44-39.17,23.71-44.16,23.55s-9.45-3.09-9.79-8.6c0,0,0-2.45.25-5.89.48-7.34,1.9-19.2,6.11-21.78,2.68-1.65,14.05-4.65,26.25-7.42l1.13-.27c15.53-3.5,32-6.55,33.29-5.89S710.05,443.4,707.81,448.94Z" fill="#a90508"/>
      <path id="Trazado_148211" data-name="Trazado 148211" d="M707.81,448.94c-1.88,4.65-5.71,10.35-12.68,16.07-9,7.44-39.17,23.71-44.16,23.55s-9.45-3.09-9.79-8.6c0,0,0-2.45.25-5.89a12.949,12.949,0,0,1,1.12,1.59c2.42,4.12,4.3,2.58,7.74,3.45s14.6-3.78,19.59-7.74,9.45-11.87,7.57-13.23-2.93-4.64-3.11-7.06c-.09-1.34-.36-4.08-.55-6.21l1.13-.27c0,1.69.06,3.93.29,6.48.51,5.85,3.09,5.51,8.75,7.75s9.11-.87,16.5-4.48A25.27,25.27,0,0,0,707.81,448.94Z" fill="#6b0203"/>
    </g>
    <g id="Grupo_74065" data-name="Grupo 74065">
      <path id="Trazado_148212" data-name="Trazado 148212" d="M724.31,555.79s-3.14,6-1.22,9.09,9,7.57,16.69,2.08c0,0,7.39-3.78,8.26-11.17q.11-.93.21-2.13h0c.75-8.47.8-25.11-10.35-29.81-7.11-3-11.94-1.48-14.67,1.4a9.639,9.639,0,0,0-2.7,7c.35,5.33,4.47,10.14,4.47,10.14a12.688,12.688,0,0,0-.69,3.79,8.251,8.251,0,0,0,1.21,3.78S723.64,553.71,724.31,555.79Z" fill="#6b0203"/>
      <path id="Trazado_148213" data-name="Trazado 148213" d="M722.7,531c.12,4.24,4.81,9,4.81,9l7,.91s-5.73,1.15-6.3,1.72.46,4.25,1,5.51,5.15,1.47,5.15,1.47l-4.92.23s-1.49.59-.23,4.25,11.69,5.84,16.27,2.75a9.44,9.44,0,0,0,2.75-3.18h0c.75-8.47.8-25.11-10.35-29.81-7.11-3-11.94-1.48-14.67,1.4A21.32,21.32,0,0,0,722.7,531Z" fill="#a90508"/>
    </g>
    <g id="Grupo_74066" data-name="Grupo 74066">
      <path id="Trazado_148214" data-name="Trazado 148214" d="M781.83,443.23a7.53,7.53,0,0,0-3.09-6.89,9.08,9.08,0,0,0-.85-10.44,8.6,8.6,0,0,0-9.77-2.18,6.807,6.807,0,0,0-3.95,12.16,6.43,6.43,0,0,0-3,5,6.64,6.64,0,0,0,1.74,4.92c-3.26.65-6.42,1.93-8,5.07a6.36,6.36,0,0,0,.16,6.07,10.76,10.76,0,0,0-6.61,3.26c-2.06,2.34-1.27,5,.27,7.24a22.07,22.07,0,0,0-10,3.2c-1.67,1-3.63,2.37-4.14,4.39a4.337,4.337,0,0,0-.08.5,9.17,9.17,0,0,0-8.59,3.88,8.16,8.16,0,0,0-1.34,5.49,7.06,7.06,0,0,0-3.6.51,4.86,4.86,0,0,0-2.62,6.18c0,.09.08.17.11.25h0a7.781,7.781,0,0,0-2.65,2.76c-1.38,2.76.2,5.46,2.36,7.23s5.32,3.71,8.08,2.18a4.3,4.3,0,0,0,2.26-3.87,7.43,7.43,0,0,0,4.42-1.48,5.06,5.06,0,0,0,1.6-2.46,11.62,11.62,0,0,0,15.64-7.91c4.47,2.33,10.26,2.47,14.28-.84a10.9,10.9,0,0,0,3.39-11.76,9.75,9.75,0,0,0,7.08-14,7.711,7.711,0,0,0,3.55-13.12,7.5,7.5,0,0,0,3.35-5.34Z" fill="#f27f8f"/>
      <path id="Trazado_148215" data-name="Trazado 148215" d="M780.57,456a8.06,8.06,0,0,0-2.21-7.39,7.31,7.31,0,0,0,.38-12.26,9.08,9.08,0,0,0-.85-10.44,8.51,8.51,0,0,0-3.85-2.44c4.16,5.92-2.59,12.85-2.59,12.85,4.12,3.09-2.24,12.37-2.24,12.37,4,4.3-4.81,11.34-4.81,11.34,2.24,3.61-6.36,10.14-6.36,10.14,3.61,7.39-12.37,11.35-12.37,11.35s.34-6.53-.17.6-14.78,7.47-14.78,7.47,1.2.35-.69,3.27-7.39,1.37-7.39,1.37a17.4,17.4,0,0,1-.86,4.3c-.45,1.53-2.77,2-5,2a10,10,0,0,0,1.3,1.3c2.13,1.73,5.32,3.71,8.08,2.18a4.3,4.3,0,0,0,2.26-3.87,7.43,7.43,0,0,0,4.42-1.48,5.06,5.06,0,0,0,1.6-2.46,11.62,11.62,0,0,0,15.64-7.91c4.47,2.33,10.26,2.47,14.28-.84a10.9,10.9,0,0,0,3.39-11.76,9.75,9.75,0,0,0,7.08-14,8,8,0,0,0,5.74-5.69Z" fill="#f3454b"/>
    </g>
    <g id="Grupo_74067" data-name="Grupo 74067">
      <path id="Trazado_148216" data-name="Trazado 148216" d="M716.74,293.2s-4.91-59.46,1.86-63.93c5.52-3.64,25.13,10.2,35.69,31.74,10.17,20.76,11.34,50.08,2.4,51.79C749.5,314.16,716.62,315.77,716.74,293.2Z" fill="#f27f8f"/>
      <path id="Trazado_148217" data-name="Trazado 148217" d="M715,258.12c0,2,.07,4.06.13,6.09a55.079,55.079,0,0,0,11.08,9.62c4.35,2.76,21.77,10.55,26.12,10.32,3-.16,7.16-.55,8.56-3.37-.25-1.23-.53-2.45-.85-3.7-1.21,2.13-3.93,5.44-8.69,4-6.82-2-19.87-5.2-24.68-9.57C722.91,268.11,717.24,261,715,258.12Z" fill="#f3454b"/>
    </g>
    <g id="Grupo_74068" data-name="Grupo 74068">
      <path id="Trazado_148218" data-name="Trazado 148218" d="M649.43,337.49S617,324.25,613.74,289s4.12-66,29.79-88c0,0,11.91-11,25.66-13.29a24.68,24.68,0,0,1,10.08,5c5.05,4.13,18.34,7.34,33,7.34v-3s-16.27,0-22-3-6.64-4.81-3.89-6.65,7.79-1.14,12.6.69,13.29,2.29,13.29,2.29v-2.06s-9.85-.32-11.23-2,11.23-3.73,11.23-3.73v-3l-13.75,2.75c-4.58.92-14.2,1.15-17.87,1.15s-2.52-6.65,2.06-9.4a21.07,21.07,0,0,1,11.46-2.29c6.19.69,8.71,3.21,18.1,3.44h0V171.7a20.83,20.83,0,0,1-10.94-.87c-5.33-2.12-4.81-2.75-3.32-4.41s5.73-1.72,7.1-1.49,7.16.17,7.16.17V163s-5.9.69-7.62,0-.91-2.75,1.66-3.72a18,18,0,0,1,6-.86v-3.27s-11.11,1.55-14.09,4.18-10.31,9.28-10.31,9.28-16.56,3.9-18.91,6.19-2.8,7.16-7.1,8.88c0,0-40.33,12.72-49.5,51.22s-10.54,63.7-1.83,78.82,22.91,26.13,22.91,26.13-17.87,18.79-22,44.91-6.88,165-4.82,194.54,26.13,41.94,46.06,46.75c0,0,5.85,1.72,11,9.28s27.73,13.75,48.58,13.75v-5s-13.69,1.54-19.88-.18-4.64-4.64.86-6,19,.86,19,.86v-4s-9-1.72-15.58-.86-10.31,3.61-16.33,2.92-8.42-1.38-10.65-3.78-2.75-4.47.17-6.19,9.79-1.89,14.44-.52,13.92,1.9,17.35,2.07,10.6,1.2,10.6,1.2v-3.44a92.454,92.454,0,0,1-9.91-.68c-2.41-.52-.69-2.93,2.23-3.61a32.606,32.606,0,0,1,7.68-.35v-3.78a26.17,26.17,0,0,0-11.46,1.2c-5.32,2.07-7.39,4-11.85,3.27s-9.8-1-10.83-3.27,3.44-4,6.36-4.64,7.39.35,10.82-.51,17-.17,17-.17v-4.13s-3.89.35-8.36.52-11.69,3.09-11.35.34,2.58-4.64,7.05-5.5,12.66-.51,12.66-.51v-4.3s-16.1-2.28-23.14,1.61-5.67,7.15-10.66,8.53-11.86,4.3-17.18,6.36S634,615.17,623.13,601.7s-9.45-39.13-9.11-49.16,1.89-103.17,2.58-122.42,6.7-56.2,14.61-70.12A89.89,89.89,0,0,1,649.43,337.49Z" fill="#00bcd4"/>
      <path id="Trazado_148219" data-name="Trazado 148219" d="M616.26,408.81S620,449.37,642,458.65v8.25s-13.09-4-20.77-12.72c-5-5.66-8.45-2.75-8.45-2.75Z" fill="#00bcd4"/>
      <path id="Trazado_148220" data-name="Trazado 148220" d="M615.06,501.42s.28,38.23,51.61,43v6s-14.21.46-26.26-4.55c-10.31-4.28-17-8.51-20.49-8a35.54,35.54,0,0,0-8.24,2.75Z" fill="#00bcd4"/>
      <path id="Trazado_148221" data-name="Trazado 148221" d="M640.41,346.81s10.22-8.12,19.84-3.65,14.65,13.06,16,15.47-.64,11.68,3.15,13.4,10.24-1.89,10.58-7-7.93-22.34-22.88-27.84c-13-4.76-13.57-1-26.72-4.71Z" fill="#00bcd4"/>
      <path id="Trazado_148222" data-name="Trazado 148222" d="M700.56,242.88v-1.64s-6.88.26-10,2a22.641,22.641,0,0,1-4.45,2.07h0c-9,1.84-17.16,10.88-17.16,10.88-.92,1-24.52,7.56-23,31.28S675.26,327,675.26,327l3-7.9c-9.76-3.84-18.73-13.24-22.86-23.89s-.51-20.11,6.39-22.86,9.08,5.33,11.31,8.77,1.89,13.4,3.1,17.87,5.15,6.53,8.25,7.73a15.83,15.83,0,0,0,6.87.69l.86-2.75s-5.33.35-5.84-1.55,7.56-2.06,7.56-2.06l.17-2.06s-8.42,1.37-11.51,1.2-4.3-5.5-3.17-6.18,3.17.17,6.24.86a26.59,26.59,0,0,0,5.18.68l.34-2.4s-11.86-1-13.23-5.33,3.61-5.16,5.5-5.33,5,2.24,6.56,2.92c0,0,1.51,4.73,7.79,5.42v-2.32s-3.83-.83-3.89-1.72,1.48-.85,1.48-.85h2.92l.25-3.25-7.21.33s-5.67-2.58-5.69-3.78,4.66-.52,6.89-.52,6-.34,6-.34V275.1a35.929,35.929,0,0,1-13.75.17c-7.56-1.37-7.22-8.42-5.4-10s5.29-.12,8.31.59h0s3,3.52,6.55,4.12,4.21,0,4.21,0V268.1s-4.48.21-5.38-.47.4-1.1.4-1.1h1.12a11.48,11.48,0,0,0,3.86-.52v-3.18l-3.52.6s-7.39.18-8.59-1.71,3.61-2.75,5.84-3.1a57.1,57.1,0,0,1,6.36-.34v-2.41s-9.28,1-15,1.89-8.77-1.72-6.36-5.32c1.26-1.89,4.37-3.35,7.06-4.32a6,6,0,0,1,3.16-.15c1.33.45,2.67,4.12,5,4.81s8.08.43,8.08.43V251.3s-8.85-.26-8.17-2.32,8.17-1.38,8.17-1.38v-2s-11.26.94-9.63-.66S700.56,242.88,700.56,242.88Z" fill="#00bcd4"/>
      <path id="Trazado_148223" data-name="Trazado 148223" d="M679.8,383s-2.13-4.81,2.34-6.42,11.34-3.2,13.75-5.5,5.65-4.43,6.83-3.36,6.8,32.24,6.92,34.36.57,7.84-3.56,6.7S680.85,385.7,679.8,383Z" fill="#00bcd4"/>
      <path id="Trazado_148224" data-name="Trazado 148224" d="M692.74,358.28s-.93-23.37-17.48-31.28v-6l3-1.89s11,3.95,14.78,10.14,7.91,15.81,8.59,23.54,1.21,9.45-2.75,10.14S693.08,362.75,692.74,358.28Z" fill="#00bcd4"/>
      <path id="Trazado_148225" data-name="Trazado 148225" d="M666.67,544.46s3.84.06,5.79-2.8c3-4.35,6-10.49,17.53-11.86l.51,1.72a12.281,12.281,0,0,0-5.5,1.72c-2.23,1.54-2.92,3.26-.51,3.61s9.45-1.9,9.45-1.9l-.17,1.9s-2.58.51-5.5,1.37-6.53.52-7.22,2.92-.52,3.61,2.41,4.3,10.48-1.2,10.48-1.2l.34,1.89s-2.75.68-4.64,1.2-6.53.17-6.53,1.55,1.21,1.89,3.95,2.4a22.528,22.528,0,0,0,5.16.35l-.51,2.23a24.5,24.5,0,0,1-4-.52c-2.75-.51-5.84-.51-6,.86s-.69,4.3,3.09,5a51.728,51.728,0,0,0,7.91.68l-.52,1.9a15.3,15.3,0,0,1-5.84-.18c-3.78-.68-5.5-.17-7.74-4s-4.24-5.64-5.32-6.19c-2-1-6.65-1-6.65-1A5,5,0,0,1,666.67,544.46Z" fill="#00bcd4"/>
      <path id="Trazado_148226" data-name="Trazado 148226" d="M642,458.65a19.12,19.12,0,0,0,9.45-1c5-1.89,14.61-4.13,20.62-4.3s14.1-4.12,18.39-5,10.49.34,10.49.34l-1,1.89s-5.32-1-8.59-.17-4.3,2.23-3.26,3.26,8.25,1.38,8.25,1.38l-2.07,1.89s-3.26-2.06-3.95,0a2.81,2.81,0,0,0,.52,3.09l-3.44,1a4.78,4.78,0,0,0-1.2-3.78c-1.55-1.54-2.41-2.57-6.19-2.06s-6.36.17-6.19,2.75,3.27,4.13,4.64,4.47,4.3,1.37,4.3,1.37l-3.1,1.55s-.17-1.72-2.4-1.55-1.89,3.1-1.89,3.1l-3.1.34a25.851,25.851,0,0,0,0-3.95c-.17-1.72-1.89-4.13-2.74-4.47s-5.33-.17-5.85,2.41.52,5.67,2.41,6.87,4.47,2.75,4.47,2.75l-3.27,1.55s-1.72-.35-3.61-2.92-2.06-6.19-4.12-5-1.21,4.47-.17,5.67,5.84,4,5.84,4l-4.64,2.06s-2.06-3.27-3.78-3.95-4.13-5.85-5.85-4.82.35,5.5,1.55,7.22,7.05,4.47,7.05,4.47L657,481.68s-5.5-2.58-7.22-5-2.4-5.15-3.61-6.7A9.59,9.59,0,0,0,642,466.9S640.83,461.23,642,458.65Z" fill="#00bcd4"/>
    </g>
    <g id="Grupo_74069" data-name="Grupo 74069">
      <path id="Trazado_148227" data-name="Trazado 148227" d="M775.12,337.49S807.6,324.25,810.8,289s-4.12-66-29.78-88c0,0-11.92-11-25.67-13.29a24.68,24.68,0,0,0-10.08,5c-5,4.13-18.33,7.34-33,7.34v-3s16.27,0,22-3,6.64-4.81,3.89-6.65-7.79-1.14-12.6.69-13.29,2.29-13.29,2.29v-2.06s9.85-.32,11.23-2-11.23-3.73-11.23-3.73v-3L726,182.41c4.58.92,14.21,1.15,17.87,1.15s2.52-6.65-2.06-9.4a21.07,21.07,0,0,0-11.46-2.29c-6.18.69-8.7,3.21-18.1,3.44h0v-3.54a20.83,20.83,0,0,0,10.94-.87c5.33-2.12,4.82-2.75,3.33-4.41s-5.73-1.72-7.11-1.49-7.16.17-7.16.17V163s5.9.69,7.62,0,.92-2.75-1.66-3.72a18,18,0,0,0-6-.86v-3.27s11.11,1.55,14.09,4.18,10.32,9.28,10.32,9.28,16.55,3.9,18.9,6.19,2.81,7.16,7.1,8.88c0,0,40.33,12.72,49.5,51.22s10.54,63.7,1.83,78.82-22.91,26.13-22.91,26.13,17.87,18.79,22,44.91,6.87,165,4.81,194.54-26.06,41.93-46,46.7c0,0-5.84,1.72-11,9.28s-27.73,13.75-48.58,13.75v-5s13.69,1.54,19.88-.18,4.64-4.64-.86-6-19,.86-19,.86v-4s9.05-1.72,15.58-.86,10.31,3.61,16.33,2.92,8.42-1.38,10.66-3.78,2.75-4.47-.18-6.19-9.79-1.89-14.43-.52-13.92,1.9-17.36,2.07-10.6,1.2-10.6,1.2v-3.44a92.329,92.329,0,0,0,9.91-.68c2.41-.52.69-2.93-2.23-3.61a32.613,32.613,0,0,0-7.68-.35v-3.78a26.17,26.17,0,0,1,11.46,1.2c5.33,2.07,7.39,4,11.86,3.27s9.79-1,10.82-3.27-3.43-4-6.35-4.64-7.39.35-10.83-.51-17-.17-17-.17v-4.13s3.9.35,8.37.52,11.68,3.09,11.34.34-2.58-4.64-7.05-5.5-12.66-.51-12.66-.51v-4.3s16.1-2.28,23.15,1.61,5.67,7.15,10.65,8.53,11.86,4.3,17.19,6.36,27.32-1.42,38.15-14.89,9.45-39.13,9.11-49.16-1.89-103.17-2.58-122.42-6.7-56.2-14.61-70.12a89.731,89.731,0,0,0-18.19-22.41Z" fill="#ed1b1e"/>
      <path id="Trazado_148228" data-name="Trazado 148228" d="M808.28,408.81s-3.78,40.56-25.77,49.84v8.25s13.08-4,20.76-12.72c5-5.66,8.45-2.75,8.45-2.75Z" fill="#ed1b1e"/>
      <path id="Trazado_148229" data-name="Trazado 148229" d="M809.48,501.42s-.28,38.23-51.61,43v6s14.21.46,26.27-4.55c10.3-4.28,17-8.51,20.48-8a35.5,35.5,0,0,1,8.25,2.75Z" fill="#ed1b1e"/>
      <path id="Trazado_148230" data-name="Trazado 148230" d="M757.87,544.46s-3.84.06-5.78-2.8c-3-4.35-6-10.49-17.53-11.86l-.52,1.72a12.249,12.249,0,0,1,5.5,1.72c2.23,1.54,2.92,3.26.52,3.61s-9.46-1.9-9.46-1.9l.17,1.9s2.58.51,5.5,1.37,6.54.52,7.22,2.92.52,3.61-2.4,4.3-10.49-1.2-10.49-1.2l-.34,1.89s2.75.68,4.64,1.2,6.53.17,6.53,1.55-1.2,1.89-3.95,2.4a22.527,22.527,0,0,1-5.16.35l.52,2.23a24.485,24.485,0,0,0,3.95-.52c2.75-.51,5.84-.51,6,.86s.68,4.3-3.1,5a51.636,51.636,0,0,1-7.9.68l.51,1.9a15.3,15.3,0,0,0,5.84-.18c3.79-.68,5.5-.17,7.74-4s4.24-5.64,5.33-6.19c1.94-1,6.64-1,6.64-1A5,5,0,0,0,757.87,544.46Z" fill="#ed1b1e"/>
      <path id="Trazado_148231" data-name="Trazado 148231" d="M724,242.88v-1.64s6.87.26,10,2a22.641,22.641,0,0,0,4.45,2.07h0c9,1.84,17.16,10.88,17.16,10.88.92,1,24.52,7.56,23,31.28S749.28,327,749.28,327l-3-7.9c9.76-3.84,18.74-13.24,22.86-23.89s.52-20.11-6.38-22.86-9.09,5.33-11.32,8.77-1.89,13.4-3.1,17.87-5.15,6.53-8.24,7.73a15.869,15.869,0,0,1-6.88.69l-.86-2.75s5.33.35,5.84-1.55-7.56-2.06-7.56-2.06l-.17-2.06s8.42,1.37,11.52,1.2,4.29-5.5,3.17-6.18-3.17.17-6.25.86a26.537,26.537,0,0,1-5.17.68l-.35-2.4s11.86-1,13.24-5.33-3.61-5.16-5.5-5.33-5,2.24-6.57,2.92c0,0-1.51,4.73-7.78,5.42v-2.32s3.83-.83,3.89-1.72-1.49-.85-1.49-.85h-2.92l-.25-3.25,7.21.33s5.67-2.58,5.69-3.78-4.66-.52-6.89-.52-6-.34-6-.34V275.1a35.93,35.93,0,0,0,13.75.17c7.56-1.37,7.22-8.42,5.41-10s-5.29-.12-8.31.59h0s-3,3.52-6.55,4.12-4.21,0-4.21,0V268.1s4.49.21,5.38-.47-.4-1.1-.4-1.1h-1.11a11.51,11.51,0,0,1-3.87-.52v-3.18l3.52.6s7.39.18,8.59-1.71-3.6-2.75-5.84-3.1a57.1,57.1,0,0,0-6.36-.34v-2.41s9.28,1,14.95,1.89,8.77-1.72,6.36-5.32c-1.25-1.89-4.37-3.35-7.06-4.32a6,6,0,0,0-3.16-.15c-1.33.45-2.67,4.12-5,4.81s-8.07.43-8.07.43V251.3s8.85-.26,8.16-2.32-8.2-1.38-8.2-1.38v-2s11.25.94,9.62-.66S724,242.88,724,242.88Z" fill="#ed1b1e"/>
      <path id="Trazado_148232" data-name="Trazado 148232" d="M749.28,327s-8.81,3-12.8,11-4.73,28.19-5,30.25-5,6.82-7.53,4.21.66-20.71,2-27.81,4.24-18.56,20.22-25.55l4.84,1.95Z" fill="#ed1b1e"/>
      <path id="Trazado_148233" data-name="Trazado 148233" d="M710.76,363.27s-1.4-30.42,7.09-38,30.91-5.15,41-2.74,19.37,10,31.38,5.21l-6,10.08-9.19-.34A71.611,71.611,0,0,0,750.31,328c-10.83-1.72-24.49-2.38-28.09,4.4S720,358.28,720,360.69s-1.55,6.87-4.12,7S710.84,366.7,710.76,363.27Z" fill="#ed1b1e"/>
      <path id="Trazado_148234" data-name="Trazado 148234" d="M712.73,405.49s-4.91-28.3-4.63-31.51,3.94-3.44,6-3.44,5.16,0,6,2.69,1.61,4.3,3.78,4.3,5.85-3.55,7.11-1.37-5.41,27.49-7.92,30.24S715,412.36,712.73,405.49Z" fill="#ed1b1e"/>
      <path id="Trazado_148235" data-name="Trazado 148235" d="M724.87,472.23a79,79,0,0,1-10.14-13.41c-1.71-3.26-6.53-9.11-13.74-10.14l-1,1.89s5,1.46,7.74,4,5.33,3.61,4.21,5.07-3,.34-6.19-.77-9.36-3.87-9.36-3.87l-2.07,1.89a21.079,21.079,0,0,1,4.64,1.37c1.38.78,4.56,2.15,4.56,2.15s.26,1.21-1.81,1.72-4,.09-6.18-.26a15.281,15.281,0,0,1-4.64-1.89l-3.44,1a26,26,0,0,1,2.83,3.18c.86,1.29,4.3,3,3.36,4.21s-3.27,1.21-5.59-.42-5.24-4.22-5.24-4.22l-3.09,1.55a3.31,3.31,0,0,1,1.54,2.24c.43,1.71.6,2.75-1.63,2.57s-4.21-3.26-4.21-3.26l-3.1.34s4,2.75,3.27,3.78-.69,1.12-2,.86a17.579,17.579,0,0,1-3-1l-3.27,1.55a16.181,16.181,0,0,0,4.56,1.2,31.712,31.712,0,0,0,6.7-.43c1.29-.34,3.52-1.29,4.72-.09s3.27,1.47.61,2.93-5.76,1.29-8,1.29-10.65-3.18-10.65-3.18l-4.64,2.06s4.47,1.2,5.5,1.55,3.35,1.54,2.32,2.23-4.9.94-9.11-.86L657,481.68s10.83,2.92,19.25,2.4,25.43-8.93,32.65-9.1,10.48.51,13.06,1.54,12.2,5.5,12.2,5.5l2.24-3.44S728,475.32,724.87,472.23Zm-49.58,9.28s-2.92.77-3.43-.26-.09-1.63,1.89-1.89,5.24-.69,5.07.6S676.07,481.33,675.29,481.51Zm30.25-11.35a7.63,7.63,0,0,1-4.73-1.54s-2.57-1.12-2.83-2.24.77-1.8,2.32-1.89a4.38,4.38,0,0,1,3.52.95c1.29.94,2.75,1.89,2.84,2.66S708,470,705.54,470.16Zm3.58-3.83s-2.29-1.21-2.46-2.41.63-1.72,1.94-1.55,2.81,1,3.16,2-.35,3.79-2.64,1.96Z" fill="#ed1b1e"/>
      <path id="Trazado_148236" data-name="Trazado 148236" d="M782.51,458.65s-8.23,0-8.74-1.12-2.41-6.1-3.95-6.19-4.56,1.72-7.22,3.7S755.9,466,755.9,466c-2,.35-4.13,2-9.29,8.17s-10.22,4.46-10.22,4.46c-3.44,1.29-2.24,3.44-2.24,3.44,4.22,3,4.64,6.79,8.17,7.31s4.55-2.75,6.79-3.79,4.81.26,8.85-.68,3.69-2.75,5.58-5.59,4.9-6.1,5.85-6.61a58.824,58.824,0,0,1,6.53-3.36c2.75-1.11,6.59-2.4,6.59-2.4l1.57-2.15Zm-21.89,2.66c1.46-1.89,1.89-2.92,2.84-3.09s1.54.43,2.32,1.72a20.825,20.825,0,0,0,3.26,3.43c.43.43-.68,1-.68,1s-4.47-.78-6.11,0-2.32.77-2.49.17C759.76,464.58,759.16,463.2,760.62,461.31Zm-10.4,12.29c.86-1.46,2-3.35,3.7-4.12a5.121,5.121,0,0,1,3.61-.61c.86.25.6,1.55.43,2.75s-.43,3.36-1,4.21-3.53,1.81-5.16.69C751.77,476.52,749.36,475.06,750.22,473.6ZM743.44,487c-1.21.17-1.9.08-3-1.29s-2.49-2.07-2.58-3.18,1-1.21,2-.86c0,0,1.37.43,2.4.86s2.06.86,2,2S744.64,486.83,743.44,487Zm-2.84-7s2.92-.34,4.3-1.63,2.32-1.81,3.61-1.38,2.66.95,1.8,2.15a7.81,7.81,0,0,1-4.81,3C743.61,482.28,741.29,482.11,740.6,480Zm6.36,3.26a11.711,11.711,0,0,0,3.44-2.06,5.64,5.64,0,0,1,2.75-2c1.37-.52,2.75-.78,3.17-.26s.26,1.63-1.28,2.32-7.57,4.11-8.04,1.96Zm14.52-3c-.94,1.29-1.2,2.75-3.09,3.09s-4.82,1-4.64,0c0-.27,2.4-1.63,3.26-2.41s1.72-2.92,2.67-3.78,2.32-2.32,2.92-1.29-.17,3.06-1.12,4.35Zm5.41-8c-.94,1.2-3.26,3.18-3.26,1.46,0,0,.08-2.32,1.89-3a49.177,49.177,0,0,1,6-1.46s-3.68,1.74-4.63,2.97Zm8-6c-.69.52-7.22,2.06-7.22,2.06s-3.44.69-4.47,2.49-3.7,4.22-3.44,2.84a28.279,28.279,0,0,0,.17-3.52c-.08-1-.6-2,.78-2.58a17,17,0,0,1,5.15-1.38c1.64-.08,3.44-.08,5.42-.17s4.29-.31,3.61.21Zm5-.69s-3.78-.68-4.47-.68-4,0-4.21-.43c0,0-.51-.78.17-1a41.622,41.622,0,0,1,6,.26c.93.08,3.35-.51,3.52.09s-1.03,1.71-1.03,1.71Zm-1.38-2.92a17.82,17.82,0,0,1-6.87-.94c-2.84-.78-3.44-1.64-3.61-2.07l-1.72-2.92s.09-2.4,1.29-2.92,2.32-.94,2.92.26a17.654,17.654,0,0,1,1.21,3.78c.17.86.25,1.63,1.89,2a27.792,27.792,0,0,0,4.64.6c1,0,3.26.08,3.09.6s-.19,1.39-2.86,1.56Z" fill="#ed1b1e"/>
    </g>
  </g>
  <g id="Grupo_74097" data-name="Grupo 74097">
    <g id="Grupo_74071" data-name="Grupo 74071">
      <path id="Trazado_148237" data-name="Trazado 148237" d="M958.81,770.44v12.82s-9.84-3.89-16.5-2.52a9.26,9.26,0,0,1-1.94-6,8.3,8.3,0,0,1,.54-2.38h0a9.539,9.539,0,0,1,2.08-3.12,30.429,30.429,0,0,1,15.82,1.2Z" fill="#a90508"/>
      <path id="Trazado_148238" data-name="Trazado 148238" d="M943.09,774.58c-.71,0-1.85.11-2.72.21a8.3,8.3,0,0,1,.54-2.38h0c1.67-.39,4.67-1,5.1-.23C946.61,773.21,944.39,774.58,943.09,774.58Z" fill="#d61b1e"/>
      <path id="Trazado_148239" data-name="Trazado 148239" d="M943,769.29a10.687,10.687,0,0,0-1.24,1.58c2.11-.17,5.9-.47,8-.41,2.83.09,2.4,1.55,2.23,3.35s-2.84,2.5-6.1,2.84c-1.74.18-3.73.41-5.22.59a9.569,9.569,0,0,0,1.7,3.51c6.64-1.38,16.5,2.52,16.5,2.52V770.43A30.53,30.53,0,0,0,943,769.29Z" fill="#780203"/>
    </g>
    <g id="Grupo_74072" data-name="Grupo 74072">
      <path id="Trazado_148240" data-name="Trazado 148240" d="M960.92,806.49a32.35,32.35,0,0,0-21.12-1.69,9,9,0,0,1-2.41-3.09,8.209,8.209,0,0,1-.76-2.75,8.779,8.779,0,0,1,.16-2.66,10.883,10.883,0,0,1,.78-2.29,14.658,14.658,0,0,1,.85-1.58s13.07-3.2,20.17-2.29Z" fill="#a90508"/>
      <path id="Trazado_148241" data-name="Trazado 148241" d="M960.92,806.49a32.35,32.35,0,0,0-21.12-1.69,9,9,0,0,1-2.41-3.09c1.44-.39,3.23-.81,5.27-1.26,5.67-1.2,11.35-.33,11.69-2.75s-.34-6.36-3.09-6c-2.49.32-9.88,1.05-13.69,2.33a14.638,14.638,0,0,1,.85-1.58s13.07-3.2,20.17-2.29Z" fill="#780203"/>
      <path id="Trazado_148242" data-name="Trazado 148242" d="M951.37,795.53c0,1.48-3.7.86-7.45,1.71-2.89.67-5.43,1.26-7.29,1.72a8.781,8.781,0,0,1,.16-2.66c2.3-.62,6.32-1.67,8.73-2.15C949.07,793.46,951.37,794,951.37,795.53Z" fill="#d61b1e"/>
    </g>
    <g id="Grupo_74073" data-name="Grupo 74073">
      <path id="Trazado_148243" data-name="Trazado 148243" d="M1142.19,752.38a19.251,19.251,0,0,1-.52,3.85s-13.05,1.14-20.62,7.55l-1.83-3.19L1113.15,750l-.6-1.05s16.07-4.65,28.21-3.25a6.427,6.427,0,0,1,.41.76,8.568,8.568,0,0,1,.43,1.16,12.572,12.572,0,0,1,.57,3.07C1142.2,751.19,1142.2,751.76,1142.19,752.38Z" fill="#a90508"/>
      <path id="Trazado_148244" data-name="Trazado 148244" d="M1142.19,752.38a19.251,19.251,0,0,1-.52,3.85s-13.05,1.14-20.62,7.55l-1.83-3.19c.57-2.15,1.14-4.12,1.14-4.12S1134.57,752.2,1142.19,752.38Z" fill="#780203"/>
      <path id="Trazado_148245" data-name="Trazado 148245" d="M1141.17,746.41c-2.39-.07-6.11-.07-10.72.2a55.387,55.387,0,0,0-15.58,3.43,11.63,11.63,0,0,1-1.72-.09l-.6-1.05s16.07-4.65,28.21-3.25a6.425,6.425,0,0,1,.41.76Z" fill="#780203"/>
      <path id="Trazado_148246" data-name="Trazado 148246" d="M1142.17,750.64c-2.4,0-6.8,0-8.92.6-3,.8-7.9,2.1-9.57,1.6s-3-2.24,0-3.78c2.84-1.42,6-1.31,12.61-1.55a49.175,49.175,0,0,1,5.31.06,12.555,12.555,0,0,1,.57,3.07Z" fill="#d61b1e"/>
    </g>
    <g id="Grupo_74074" data-name="Grupo 74074">
      <path id="Trazado_148247" data-name="Trazado 148247" d="M1149.93,775s-10.55,11.69-25.66,12.15l-.32-4.51-.13-1.83-.48-6.73s12.38,0,20.85-8a5.538,5.538,0,0,1,1.09.3,6.434,6.434,0,0,1,1.74,1,7,7,0,0,1,2.25,3.18,9.334,9.334,0,0,1,.48,1.81,12.887,12.887,0,0,1,.18,2.63Z" fill="#a90508"/>
      <path id="Trazado_148248" data-name="Trazado 148248" d="M1145.28,766.37c-1.9,5.21-14.6,8.12-17.23,9.56a4.24,4.24,0,0,0-2.06,3.71,6.705,6.705,0,0,0,.07,1.63,4.5,4.5,0,0,1-2.11,1.39,1.38,1.38,0,0,1-.93-.12,16.1,16.1,0,0,1,.8-1.71l-.48-6.73s12.38,0,20.85-8a5.526,5.526,0,0,1,1.09.27Z" fill="#780203"/>
      <path id="Trazado_148249" data-name="Trazado 148249" d="M1149.93,775s-10.55,11.69-25.66,12.15l-.32-4.51a1.38,1.38,0,0,1-.93-.12,16.081,16.081,0,0,1,.8-1.71,16.772,16.772,0,0,1,2-3.05,6.091,6.091,0,0,0,.13,1.86,3.31,3.31,0,0,0,3.43,2.82c3.87.11,15.78-5.25,20.33-10.1a12.891,12.891,0,0,1,.22,2.66Z" fill="#780203"/>
      <path id="Trazado_148250" data-name="Trazado 148250" d="M1149.27,770.55a62.29,62.29,0,0,1-6.73,5.5c-4.53,3.2-6.59,2.4-6.66.46s3-2.82,5.33-4.36a62.623,62.623,0,0,0,5.81-4.78,7,7,0,0,1,2.25,3.18Z" fill="#d61b1e"/>
      <path id="Trazado_148251" data-name="Trazado 148251" d="M1128.38,778.51s1.78-2,3.38-1.83,2.35,1.37,1.32,2.29-3.15,1.95-3.84,1.55S1127.47,779.89,1128.38,778.51Z" fill="#d61b1e"/>
    </g>
    <path id="Trazado_148252" data-name="Trazado 148252" d="M1054.6,959s-35.75-14.66-64.16-48.12-29.33-56.37-29.33-74.7,0-22.46-1.38-30.25,21.54-29.79,45.37-33.91,81.58-13.29,81.58-13.29,51.33,34.83,63.24,63.7,18.34,60,14.21,85.7-17.87,52.71-30.7,57.75S1078.43,973.23,1054.6,959Z" fill="#ff858a"/>
    <path id="Trazado_148253" data-name="Trazado 148253" d="M1073.64,845.31l6.39-4.76,33.69-23.14s-21.31-15.35-25-19.94-12.6-13.74-12.6-13.74l-9.85,25.66Z" fill="#a90508"/>
    <path id="Trazado_148254" data-name="Trazado 148254" d="M1088.74,797.47c-3.08-3.84-9.85-10.9-12-13.07l-7.3,25.16,2.75,19.42,10.31-10.83s-1.89-12-1-13.74,4.3-2.93,4.3-2.93l12.89,12.21,14.85,3.6C1111.68,815.94,1092.23,801.83,1088.74,797.47Z" fill="#780203"/>
    <path id="Trazado_148255" data-name="Trazado 148255" d="M1073.64,845.31s-4-19.25,6.68-27.33,24.35-7.5,33.4-.57,4.41,10.2,2.52,13-29.9,18.39-29.9,18.39Z" fill="#ff858a"/>
    <g id="Grupo_74075" data-name="Grupo 74075">
      <path id="Trazado_148256" data-name="Trazado 148256" d="M1106.39,737.9s14.89,10.31,17.87,23.83,1.37,31.62,1.37,31.62l-27.49-8.71-15.59-12.14S1092.18,742.25,1106.39,737.9Z" fill="#a90508"/>
      <path id="Trazado_148257" data-name="Trazado 148257" d="M1126.06,781.28a96.29,96.29,0,0,0-1.8-19.55c-3-13.52-17.87-23.83-17.87-23.83-14.21,4.35-23.84,34.6-23.84,34.6l10.81,8.42c4.22-6.21,8.56-14.27,8.56-14.27l5.38-14s-2.29-5.85-.46-7.34,5.39-.46,7.11,1.49,5.73,6.53,7,13.06,1.6,11,2.63,13C1124.37,774.36,1124.49,781.25,1126.06,781.28Z" fill="#780203"/>
      <path id="Trazado_148258" data-name="Trazado 148258" d="M1125.63,793.35s2.3-23.14-4.58-34.6-19-6.65-24.06,1.37-9.42,16.29-9.42,16.29,1.4,6.17,2.32,7.32S1125.63,793.35,1125.63,793.35Z" fill="#ff858a"/>
    </g>
    <g id="Grupo_74076" data-name="Grupo 74076">
      <path id="Trazado_148259" data-name="Trazado 148259" d="M1083.59,854.07s33.34,0,36.09-22,10-24.41,19.93-12.38,15.13,45.72,12.72,73.56-17.87,42.28-22.69,36.78-7.21-27.5-17.53-40.91S1083.59,854.07,1083.59,854.07Z" fill="#f3454b"/>
      <path id="Trazado_148260" data-name="Trazado 148260" d="M1114.52,874.35s-10.65-7.9-4.81-12.71,17.18-14.1,17.18-14.1,3.44-12.72,6.88-12,8.94,12.38,10,25.78,8.25,38.5-.69,43-16.16-3.1-17.87-12.72S1115.9,876.07,1114.52,874.35Z" fill="#f95e63"/>
    </g>
    <g id="Grupo_74077" data-name="Grupo 74077">
      <path id="Trazado_148261" data-name="Trazado 148261" d="M1068.46,856.82a213.234,213.234,0,0,0,23.72,38.5c14.44,18.22,22.34,40.56,19.93,48.46s-1,13.07-25.43,11-45.72-18.56-61.53-29.56-27.84-30.59-19.93-39.52,16.5-1.38,18.21-8.6.35-24.06,8.6-22.34S1054.71,866.45,1068.46,856.82Z" fill="#f3454b"/>
      <path id="Trazado_148262" data-name="Trazado 148262" d="M1068.46,941s-36.78-19.59-42.28-29.9-4.12-14.78,2.75-20.28,3.1-12.37,12-17.18,21.66-.35,28.19,7.21,19.59,31.63,24.06,39.88,9.28,11.68,1.38,16.49S1079.12,947.91,1068.46,941Z" fill="#f95e63"/>
    </g>
    <g id="Grupo_74078" data-name="Grupo 74078">
      <path id="Trazado_148263" data-name="Trazado 148263" d="M1022.74,842.38c-4.12,13.07-2.74,22.7-3.09,28.19s-6.87,5.5-14.08,6.87a88.6,88.6,0,0,0-15.83,5.17c-5.84-.7-15.11-13.75-20.62-28.88-2.48-6.82-3-14.31-3-21.79,0-9.15.84-18.24-.11-26-1.72-14.1,4.12-19.61,14.09-24.76s14.43,2.42,19.94,12c.09.16.18.32.27.46,5.47,9,12.59,5.88,21,14.33S1026.88,829.33,1022.74,842.38Z" fill="#f3454b"/>
      <path id="Trazado_148264" data-name="Trazado 148264" d="M986,862.67c-.63-.89-9.28-14.44-8.94-24.75s.35-21.31,4.13-26.47,11.68-6.19,19.25-2.4,17.87,3.43,14.09,17.87-7.56,18.9-7.91,28.18S994.56,874.7,986,862.67Z" fill="#f95e63"/>
      <path id="Trazado_148265" data-name="Trazado 148265" d="M1000.33,793.69c-4.21-.11-11.72.78-20.55,3-11,2.75-7.21,7.21-8.6,14.78-1,5.56-3.69,15.59-5,20.49,0-9.15.84-18.24-.11-26-1.72-14.1,4.12-19.61,14.09-24.76s14.43,2.42,19.94,12A1.705,1.705,0,0,0,1000.33,793.69Z" fill="#c82c32"/>
    </g>
    <g id="Grupo_74079" data-name="Grupo 74079">
      <path id="Trazado_148266" data-name="Trazado 148266" d="M1107,842s-12.37,10.31-22.69,5.85-7.9-20.28,4.13-27.85,22.34-2.06,24.06,3.79S1114.86,835.86,1107,842Z" fill="#f3454b"/>
      <path id="Trazado_148267" data-name="Trazado 148267" d="M1088.05,840.32c-1.1-.55-6.18-5.15,0-11s11.69-8.6,14.78-6.88,6.88,0,2.75,8.59S1094.24,843.42,1088.05,840.32Z" fill="#f95e63"/>
    </g>
    <g id="Grupo_74080" data-name="Grupo 74080">
      <path id="Trazado_148268" data-name="Trazado 148268" d="M1117.61,812.48s-12-6.63-18.93-14.69c-2.67-3.13-4.59-6.46-4.78-9.71-.69-11.69,2.75-26.46,12.71-28.52s13.41,2.06,13.41,17.17c0,3.37,0,6.66.11,9.78.19,10.85.73,19.61,1.26,22.54C1122.08,812.83,1120.36,815.58,1117.61,812.48Z" fill="#f3454b"/>
      <path id="Trazado_148269" data-name="Trazado 148269" d="M1113.49,802.52s-6.87-3.1-7.91-8.94-.68-8.25,2.75-8.25,4.82,2.06,5.85,6.19S1116.93,803.89,1113.49,802.52Z" fill="#f95e63"/>
      <path id="Trazado_148270" data-name="Trazado 148270" d="M1120.13,786.51c-1.71-3.71-4.74-9.76-7.78-13.1-4.58-5-7.1.69-12.84,8-4.51,5.78-2.08,13.38-.83,16.36-2.67-3.13-4.59-6.46-4.78-9.71-.69-11.69,2.75-26.46,12.71-28.52s13.41,2.06,13.41,17.17C1120,780.1,1120.06,783.39,1120.13,786.51Z" fill="#c82c32"/>
    </g>
    <g id="Grupo_74081" data-name="Grupo 74081">
      <path id="Trazado_148271" data-name="Trazado 148271" d="M1072.41,826.23c-3.43-6.7-21.13-15.29-28.87-10.65s-17,8.78-19.26,21.74l6.73,1.12a16.869,16.869,0,0,1,2.74-6c6.87-10,15.12-6.88,20.62-5.16s12,5.5,13.06,12a13.259,13.259,0,0,1-.17,5.14l6.36,1.05S1075.85,832.93,1072.41,826.23Z" fill="#00c6e7"/>
      <path id="Trazado_148272" data-name="Trazado 148272" d="M1134.1,725.17s-24,6.2-39.51,34.72c-13.69,25.27-19.57,72.87-20.74,83.45.19-3.5-.16-10.64-5.38-16a20.661,20.661,0,0,0-9.29-5.29c-17.87-5.15-30.28-.16-34.9,15.22,0,0,5.9-53.7,30-85,0,0,3.07-7.21-5.14-11,0,0,1.58-13.74,13.38-15.13,0,0,15.55,6.88,16.58,19.25,0,0,16.5-27.49,47.44-34.71a18.3,18.3,0,0,1,4.28,3.74,15.5,15.5,0,0,1,1.92,2.84,12.4,12.4,0,0,1,1.24,3.47A12.252,12.252,0,0,1,1134.1,725.17Z" fill="#00bcd4"/>
      <path id="Trazado_148273" data-name="Trazado 148273" d="M1126.56,710.74c-30.94,7.22-47.44,34.71-47.44,34.71a13.172,13.172,0,0,0-.32-2,1.866,1.866,0,0,0-.11-.48,16.943,16.943,0,0,0-1.39-3.68l-.21-.4a21.99,21.99,0,0,0-2.14-3.2l-.3-.36c-.38-.46-.77-.91-1.18-1.34l-.08-.09c-.41-.43-.83-.83-1.25-1.22l-.43-.39c-.34-.3-.68-.6-1-.88l-.59-.48-.86-.66-.65-.48-.5-.34c-.52-.36-1-.69-1.49-1h0a38.242,38.242,0,0,0-4-2.24c-11.8,1.39-13.38,15.13-13.38,15.13,8.21,3.79,5.14,11,5.14,11-24.12,31.29-30,85-30,85,2.07-6.89,5.72-11.68,10.71-14.42,1-10.53,6.19-32.65,11.13-43.53,8-17.64,15.81-23.26,14.78-28.41s-5.5-11.69-5.5-11.69.69-6.87,8.94-8.25c0,0,14.78,9.17,13.4,21.77,0,0,18-32.69,51.39-40.09A17,17,0,0,0,1126.56,710.74Z" fill="#00729b"/>
      <path id="Trazado_148274" data-name="Trazado 148274" d="M1134.1,725.17s-24,6.2-39.51,34.72c-13.69,25.27-19.57,72.87-20.74,83.45.19-3.5-.16-10.64-5.38-16,1.47-13.39,5.68-42.17,16.14-63.38,12.66-25.59,36.66-39,49.39-43.22a12.253,12.253,0,0,1,.1,4.43Z" fill="#00729b"/>
      <path id="Trazado_148275" data-name="Trazado 148275" d="M1132.76,717.32c-5.53,2-17.83,6.84-22.47,10.94s-9.86,7.34-9.18,4.59c.32-1.28,10.65-12,29.73-18.37A15.507,15.507,0,0,1,1132.76,717.32Z" fill="#34ddea"/>
      <path id="Trazado_148276" data-name="Trazado 148276" d="M1094.7,737.9c-2.75.45-20.17,23.37-20.17,23.37a25.81,25.81,0,0,0-6.41-22.69c-3.21-3.21-6-3.43-7.11-1.6s6.88,9.62,7.11,15.58-5.73,10.31-13.06,25.44c-5.38,11.08-9.88,32-11.91,42.38a40.731,40.731,0,0,1,16,1.72,25.785,25.785,0,0,1,2.7.95c1-8.57,3.71-29.7,7.84-41.39,5.27-14.89,18.56-31.62,22.69-36.66S1097.45,737.44,1094.7,737.9Z" fill="#34ddea"/>
      <path id="Trazado_148277" data-name="Trazado 148277" d="M1055.92,785.59a2.67,2.67,0,1,1-2.67-2.67,2.67,2.67,0,0,1,2.67,2.67Z" fill="#fff"/>
      <path id="Trazado_148278" data-name="Trazado 148278" d="M1061.42,778a.95.95,0,1,1-.3-.69A.95.95,0,0,1,1061.42,778Z" fill="#fff"/>
    </g>
    <g id="Grupo_74082" data-name="Grupo 74082">
      <path id="Trazado_148279" data-name="Trazado 148279" d="M1009.22,717.73l-6.41,20.16c-22.46-.68-69.2,17.88-69.2,17.88s-3.43-.46-6.41-7.1a5.345,5.345,0,0,1-.32-.8,13.48,13.48,0,0,1-.82-4.56,14.49,14.49,0,0,1,.44-3.8C954.92,722.55,1009.22,717.73,1009.22,717.73Z" fill="#00bcd4"/>
      <path id="Trazado_148280" data-name="Trazado 148280" d="M926.37,740c7.38-3.49,39.91-17.82,82.19-20.22l.67-2.09s-54.31,4.81-82.72,21.77C926.51,739.5,926.45,739.7,926.37,740Z" fill="#00729b"/>
      <path id="Trazado_148281" data-name="Trazado 148281" d="M954.69,739.79s2.23-4,1.2-6.88a4.58,4.58,0,0,0-3.26-3.26l8.76-2.58-.86,10.48Z" fill="#00729b"/>
      <path id="Trazado_148282" data-name="Trazado 148282" d="M928.18,750.61c2.7,4.78,5.43,5.16,5.43,5.16s46.74-18.56,69.2-17.87l3.08-9.68C964.62,728.29,935.94,745.4,928.18,750.61Z" fill="#00729b"/>
      <path id="Trazado_148283" data-name="Trazado 148283" d="M993.7,725.18s7.91-.17,8.77-1,1.2-3.27-.52-2.92-8.25,1.89-8.93,2.06.51-2.75.51-2.75l13.58-.86-2.75,9.62s-4.13,4.47-7.74,3.78a24.792,24.792,0,0,1-7.21-2.92Z" fill="#00729b"/>
      <path id="Trazado_148284" data-name="Trazado 148284" d="M998.34,721.17s-2.06.46-2.52,1.72-.23,2.29.12,2.4.11,1.49-1.26,1.15a10,10,0,0,1-3.1-1.83s.12-2.53,1.49-3.1S998.34,721.17,998.34,721.17Z" fill="#00729b"/>
      <path id="Trazado_148285" data-name="Trazado 148285" d="M940.43,740.82c-4.09,2.36-10.7,5.65-13.55,7a13.48,13.48,0,0,1-.82-4.56c4.21-2.21,16.37-8.44,19.36-8.16C949,735.49,945.75,737.73,940.43,740.82Z" fill="#34ddea"/>
    </g>
    <g id="Grupo_74083" data-name="Grupo 74083">
      <path id="Trazado_148286" data-name="Trazado 148286" d="M1002.12,783.73l-6.23,2.66a1.375,1.375,0,0,0-.15-.21c-.26-.38-.53-.75-.79-1.11a21.276,21.276,0,0,0-1.76-2.07,5.9,5.9,0,0,0-.5-.5,2.4,2.4,0,0,0-.23-.21,10.131,10.131,0,0,0-.87-.75,9.688,9.688,0,0,0-2-1.24c-.17-.07-.35-.16-.53-.22a7.251,7.251,0,0,0-1.63-.44l-.61-.07h-.74a13.061,13.061,0,0,0-5.93,1.67,34.162,34.162,0,0,0-9.5,6.61,16.7,16.7,0,0,0-1.87,2.34,13,13,0,0,0-1,1.74,13.464,13.464,0,0,0-1,2.4,20.057,20.057,0,0,0-.76,3.29,28.3,28.3,0,0,0-.2,5.7h0l-4.87,3.19-1,.66s-5.93-17-5.72-34.88,5-36.21,2.76-49S942.31,698,942.31,698s-1.14-8.7,4.81-12.15,9.4-.67,9.4-.67,14.43,9.39,18.11,25c0,0,3.2-16,12.82-22.24l12.84,18.12s-11,22-8.26,42.62a122.232,122.232,0,0,0,10,34.86A1.2,1.2,0,0,1,1002.12,783.73Z" fill="#00bcd4"/>
      <path id="Trazado_148287" data-name="Trazado 148287" d="M993.19,696.31,991,693.56c-10.14,7.21-16.5,30.59-16.5,30.59-1-8.08-4-13.58-10.82-23.38-5.23-7.45-14.5-11.33-18.89-12.83a10.83,10.83,0,0,0-1.93,3.89c13,4.69,22.15,16.43,24.6,24.93,2.58,8.93,1.37,23.54,1.37,23.54.17,5.33,3.78,4.3,7.05,2.24,3.09-2,.69-8.43,5.33-20.8a211.413,211.413,0,0,1,11.98-25.43Z" fill="#34ddea"/>
      <path id="Trazado_148288" data-name="Trazado 148288" d="M972.29,778.39s-5.78-22.71-2.25-26.83,6.11-2.31,7.62,4.92,3.67,19.73,3.67,19.73Z" fill="#34ddea"/>
      <path id="Trazado_148289" data-name="Trazado 148289" d="M975.14,733.86a.95.95,0,1,1-.94-1,.94.94,0,0,1,.94,1Z" fill="#fff"/>
      <path id="Trazado_148290" data-name="Trazado 148290" d="M973.94,764.53a1,1,0,1,1-1-1A1,1,0,0,1,973.94,764.53Z" fill="#fff"/>
      <path id="Trazado_148291" data-name="Trazado 148291" d="M976.17,757.23a1.46,1.46,0,1,1-1.46-1.46A1.46,1.46,0,0,1,976.17,757.23Z" fill="#fff"/>
      <path id="Trazado_148292" data-name="Trazado 148292" d="M982.53,736.18c-2.92,17,7.05,41.93,7.05,41.93l8.65,7.28,3.89-1.66a1.2,1.2,0,0,0-.11-.2,122.231,122.231,0,0,1-10-34.86c-2.73-20.62,8.26-42.62,8.26-42.62l-3.36-4.75-2.54.16S985.45,719.16,982.53,736.18Z" fill="#00729b"/>
      <path id="Trazado_148293" data-name="Trazado 148293" d="M975,715.73s3.9-19.85,13.39-26.51l-.91-1.29c-9.62,6.2-12.82,22.24-12.82,22.24-3.68-15.58-18.11-25-18.11-25s-2.7-2.16-7.47-.26c2.58,1.56,13.91,8.61,18,15.15A167.942,167.942,0,0,1,975,715.73Z" fill="#00729b"/>
      <path id="Trazado_148294" data-name="Trazado 148294" d="M987.45,687.93s3.33-2.11,7.11,1.16,7.05,8.25,7.39,11.34.12,5.22-1.66,5.62S984.12,700.53,987.45,687.93Z" fill="#00c6e7"/>
      <path id="Trazado_148295" data-name="Trazado 148295" d="M990.32,692.41s-1.14-3.78,1.95-2.52,7.1,7.45,7.45,9.62-1.61,3.67-3.9,1.84S990.78,696.88,990.32,692.41Z" fill="#00729b"/>
      <path id="Trazado_148296" data-name="Trazado 148296" d="M968.21,791.1c-.36-3.21-.69-5.54-.69-5.54s-5.1-14.84-5-42.16c0-7.35,2.29-12.61,2.52-18.57.22-5.75-6.21-21.72-22.73-29.83a17.273,17.273,0,0,0,0,3s12.38,12.4,14.69,25.24-2.52,31.15-2.76,49,5.72,34.88,5.72,34.88l1-.66,4.87-3.19h0a28.3,28.3,0,0,1,.2-5.7,20.065,20.065,0,0,1,.76-3.29,13.465,13.465,0,0,1,1-2.4A6.679,6.679,0,0,1,968.21,791.1Z" fill="#00729b"/>
      <path id="Trazado_148297" data-name="Trazado 148297" d="M1002.12,783.73l-6.23,2.66a1.375,1.375,0,0,0-.15-.21c-.26-.38-.53-.75-.79-1.11a21.276,21.276,0,0,0-1.76-2.07,5.9,5.9,0,0,0-.5-.5,2.4,2.4,0,0,0-.23-.21,10.131,10.131,0,0,0-.87-.75,9.688,9.688,0,0,0-2-1.24c-.17-.07-.35-.16-.53-.22a7.251,7.251,0,0,0-1.63-.44l-.61-.07h-.74a13.061,13.061,0,0,0-5.93,1.67,34.162,34.162,0,0,0-9.5,6.61,16.7,16.7,0,0,0-1.87,2.34,13,13,0,0,0-1,1.74,13.464,13.464,0,0,0-1,2.4,17,17,0,0,0-.76,3.29,29.163,29.163,0,0,0-.21,5.72l-4.87,3.19a3.53,3.53,0,0,1-1.19-.53s-3.43-9.86,3.45-21.08S982,772.73,987.45,773s10.69,2.92,14.56,10.57a1.2,1.2,0,0,1,.11.16Z" fill="#00c6e7"/>
    </g>
    <g id="Grupo_74084" data-name="Grupo 74084">
      <path id="Trazado_148298" data-name="Trazado 148298" d="M1067.28,844.39a13.05,13.05,0,0,1-5.35,8s-6.87,4.8-18.22,1.37c-9-2.72-14.26-8.22-12.7-15.33a16.64,16.64,0,0,1,2.74-6c6.87-10,15.11-6.87,20.62-5.15s12,5.49,13.07,12a13.66,13.66,0,0,1-.16,5.11Z" fill="#f3454b"/>
      <path id="Trazado_148299" data-name="Trazado 148299" d="M1067.28,844.39h0c-.62.9-9.22-7.77-17-9.15-10.2-1.79-19.24,3.16-19.24,3.16h0a16.641,16.641,0,0,1,2.74-6c6.87-10,15.11-6.87,20.62-5.15s12,5.49,13.07,12a13.659,13.659,0,0,1-.19,5.14Z" fill="#c82c32"/>
      <path id="Trazado_148300" data-name="Trazado 148300" d="M1042.68,843.25s2.41-2.58,5.5-1.89,8.25,2.4,7,3.95-6.36,3.61-8.59,2.75S1041.31,846.34,1042.68,843.25Z" fill="#f95e63"/>
    </g>
    <g id="Grupo_74085" data-name="Grupo 74085">
      <path id="Trazado_148301" data-name="Trazado 148301" d="M1086.1,736.24a72.17,72.17,0,0,0-7,9.21c-1-12.37-16.58-19.25-16.58-19.25-11.8,1.39-13.38,15.13-13.38,15.13,8.21,3.79,5.14,11,5.14,11-11.88,15.41-19.34,36.26-23.84,53.45-7-3.46-21.8-11.72-28.34-22-8.7-13.75-9.16-41.93-.23-61s16.27-25.45,9.86-37.35-14.9-14-14.9-14a11.3,11.3,0,0,1,1.27-6.11,11.17,11.17,0,0,1,2.63-3.29,12.852,12.852,0,0,1,2.61-1.76c3-1.45,4.73-.3,4.73-.3s13.51,8.26,17.86,21.31l-3-26.35a13.618,13.618,0,0,1,3.41-3.59,7.859,7.859,0,0,1,2.84-1.31,5.671,5.671,0,0,1,1.55-.13,9.339,9.339,0,0,1,4.72,1.49,8.308,8.308,0,0,1,2.15,1.94s.46,11.22,3,17.42c0,0-1.15-13.75,7.34-20.4a9.68,9.68,0,0,1,3.89,0,6.569,6.569,0,0,1,2.53,1.17,5.3,5.3,0,0,1,1.14,1.09,11.92,11.92,0,0,1,.73,1,12.149,12.149,0,0,1,2.24,5.2s-4.35,5.28-3.66,10.07,3.89,14.44,3.89,14.44,18.11,11.47,22.46,28.42a244.151,244.151,0,0,1,4.94,24.5Z" fill="#a90508"/>
      <path id="Trazado_148302" data-name="Trazado 148302" d="M1075.91,705.13c4.53,8.88,8.08,24.91,9,32.54.39-.47.78-.94,1.21-1.43a244.131,244.131,0,0,0-4.92-24.47c-4.35-16.95-22.46-28.42-22.46-28.42s-3.2-9.62-3.89-14.44,3.66-10.07,3.66-10.07a9.611,9.611,0,0,0-.76-2.55,22.7,22.7,0,0,0-6.34,8.05c-2.75,6.42-.23,19.25,1.6,21.77S1070,693.44,1075.91,705.13Z" fill="#780203"/>
      <path id="Trazado_148303" data-name="Trazado 148303" d="M1001.81,783.16a28.409,28.409,0,0,0,7.88-2s-12.38-14.89-10.32-33,6-27.5,11.23-35.52,11.46-14.21,9.86-22.23c-1.49-7.42-14.14-19.32-23.47-21.8a10.572,10.572,0,0,0-.14,2.78s8.48,2.07,14.9,14-.91,18.33-9.86,37.35C993.07,741.55,993.42,769.23,1001.81,783.16Z" fill="#780203"/>
      <path id="Trazado_148304" data-name="Trazado 148304" d="M1056.2,720.25c-11.68,3.44-12.37,18.33-12.37,27.5s-6.88,22-11.23,29.1-17.87,6.42-25.21-.46c-5.67-5.32-9.1-23-11.5-30.86-1.54,14.52.63,29.35,6.23,38.2,6.54,10.33,21.36,18.59,28.34,22,4.5-17.19,12-38,23.84-53.45,0,0,3.07-7.21-5.14-11,0,0,1.58-13.74,13.38-15.13,0,0,15.55,6.88,16.58,19.25a66.448,66.448,0,0,1,5.06-6.93c-1.35-3.25-4.4-7.61-6.44-10.94C1075.22,723.46,1067.89,716.81,1056.2,720.25Z" fill="#780203"/>
      <path id="Trazado_148305" data-name="Trazado 148305" d="M1030,685.3l-4-4-3-26.35a13.621,13.621,0,0,1,3.41-3.59C1026.86,661.45,1030,685.3,1030,685.3Z" fill="#780203"/>
      <path id="Trazado_148306" data-name="Trazado 148306" d="M1051.85,650.39c-8.74,7.16-11.23,20.37-11.23,20.37s-1.15-13.75,7.34-20.4a9.68,9.68,0,0,1,3.89.03Z" fill="#780203"/>
      <path id="Trazado_148307" data-name="Trazado 148307" d="M1035.35,743.62s.46,20.17-9.85,24.75-17-3.66-17.88-17.18,6-32.54,13.29-41.94,19.94-20.16,32.77-15.58,18.1,10.08,19.94,14.44,1.83,6.41-1.84,5.95-13.74-4.12-23.37,1.61S1036.73,729.88,1035.35,743.62Z" fill="#d61b1e"/>
      <path id="Trazado_148308" data-name="Trazado 148308" d="M1041,694.42l-9.31,6.89-10.72,7.92c.25-.45,4.54-8,4.05-14.64-.52-6.87-9.27-19.43-15.81-23.9a55.4,55.4,0,0,0-11-5.36,11.17,11.17,0,0,1,2.63-3.29,12.852,12.852,0,0,1,2.61-1.76c4.59,2,14.87,9,18.19,16.43,3.6,8.08,7.9,12.56,10.81,14.44.27.18.57.34.89.51A38.942,38.942,0,0,0,1041,694.42Z" fill="#d61b1e"/>
      <path id="Trazado_148309" data-name="Trazado 148309" d="M1049.38,663.48c-2.22,8.08-1.71,19.76.53,24.76s3.94,8.41,3.94,8.41l-23.35,9.26c0-.25.57-2.06,1.15-4.6a79.142,79.142,0,0,0,1.6-9.65c.07-.69.11-1.38.14-2.06.32-6.8-4.6-31.52-4.17-39.56a5.668,5.668,0,0,1,1.55-.13,9.339,9.339,0,0,1,4.72,1.49c.11,5.63.57,14.39,2.2,20.16,2.59,9.11,6,11,6,11s-3.39-20.62,10.67-31a5.3,5.3,0,0,1,1.14,1.09,11.911,11.911,0,0,1,.73,1,18.47,18.47,0,0,0-6.85,9.83Z" fill="#d61b1e"/>
      <circle id="Elipse_4605" data-name="Elipse 4605" cx="2.06" cy="2.06" r="2.06" transform="translate(1012.44 747.01)" fill="#fff"/>
      <path id="Trazado_148310" data-name="Trazado 148310" d="M1020.17,740.13a.86.86,0,1,1-.86-.86.87.87,0,0,1,.86.86Z" fill="#fff"/>
      <circle id="Elipse_4606" data-name="Elipse 4606" cx="1.72" cy="1.72" r="1.72" transform="translate(1042.85 695.96)" fill="#fff"/>
      <path id="Trazado_148311" data-name="Trazado 148311" d="M1044.23,713.49a.69.69,0,1,1-.69-.69A.69.69,0,0,1,1044.23,713.49Z" fill="#fff"/>
    </g>
    <path id="Trazado_148312" data-name="Trazado 148312" d="M1010.55,874.7s3.09,0,4.81,1.89a46.246,46.246,0,0,1,3.78,5.15l5-2.4s-4.47-4.3-4.81-5.67a18.82,18.82,0,0,0-2.06-4Z" fill="#f3454b"/>
    <path id="Trazado_148313" data-name="Trazado 148313" d="M1047.84,853c0,.52.17,3.44.17,5.33a6.929,6.929,0,0,1-1,3.44l6.36,1s-2.24-6.88-1.72-9.45S1047.84,853,1047.84,853Z" fill="#f3454b"/>
    <path id="Trazado_148314" data-name="Trazado 148314" d="M1100.77,852.7c.69-.52,3.27-2.41,3.61-3.78s-.69-5-1.2-5.33,2.23-1.72,2.23-1.72.69,3.78,2.41,4.3,5.67-.35,5.67-.35-7.56,7.22-8.59,7.39a18.378,18.378,0,0,1-4.13-.51Z" fill="#f3454b"/>
    <path id="Trazado_148315" data-name="Trazado 148315" d="M1118.82,812.83a5.46,5.46,0,0,1,3.26,3.09,8.291,8.291,0,0,0,2.58,3.44l1.72-3.44s-4.47-3.44-5.33-5.5-3.61-.51-3.61-.51Z" fill="#f3454b"/>
    <g id="Grupo_74086" data-name="Grupo 74086">
      <path id="Trazado_148316" data-name="Trazado 148316" d="M1003,859.18c-14.61-20.09-22.53-58.62-22.61-59l1.74-.35c.08.38,7.92,38.54,22.31,58.31Z" fill="#fff"/>
      <path id="Trazado_148317" data-name="Trazado 148317" d="M1006.35,862.08l-.69-6.23-5.05,3.72Z" fill="#fff"/>
    </g>
    <g id="Grupo_74087" data-name="Grupo 74087">
      <path id="Trazado_148318" data-name="Trazado 148318" d="M1058.92,913.43c-8.92,0-25.28-18.1-27.21-20.27L1033,892c5.32,6,20.52,21.2,26.82,19.56,1.3-.33,2.14-1.43,2.58-3.35,3.32-14.62-7.36-34.24-7.47-34.44l1.55-.86c.46.83,11.12,20.41,7.65,35.69-.59,2.6-1.89,4.17-3.86,4.68a5.3,5.3,0,0,1-1.35.15Z" fill="#fff"/>
      <path id="Trazado_148319" data-name="Trazado 148319" d="M1053.89,868.66l-.78,6.23,5.78-2.43Z" fill="#fff"/>
    </g>
    <g id="Grupo_74088" data-name="Grupo 74088">
      <path id="Trazado_148320" data-name="Trazado 148320" d="M1112.35,797.06c-4.47-9.28-7.51-25-7.64-25.66l1.75-.33c0,.16,3.12,16.15,7.48,25.22Z" fill="#fff"/>
      <path id="Trazado_148321" data-name="Trazado 148321" d="M1115.26,801.36l.68-6.24-5.74,2.53Z" fill="#fff"/>
    </g>
    <g id="Grupo_74089" data-name="Grupo 74089">
      <path id="Trazado_148322" data-name="Trazado 148322" d="M1124.86,866.86c-10.42,0-15.09-9.08-15.14-9.18l1.59-.8a15.53,15.53,0,0,0,17.35,7.78,6.51,6.51,0,0,0,4.46-3.28c4.57-7.89-1.17-26.1-1.23-26.28l1.69-.55c.25.78,6,19.15,1.07,27.72a8.33,8.33,0,0,1-5.62,4.13,19.689,19.689,0,0,1-4.17.46Z" fill="#fff"/>
      <path id="Trazado_148323" data-name="Trazado 148323" d="M1108.55,852.62l-.79,6.23,5.78-2.43Z" fill="#fff"/>
    </g>
    <g id="Grupo_74090" data-name="Grupo 74090">
      <path id="Trazado_148324" data-name="Trazado 148324" d="M1072.13,777l.69-6.23-5.74,2.51Z" fill="#fff"/>
      <path id="Trazado_148325" data-name="Trazado 148325" d="M1060.3,808.76l-1.78-.12c0-.16,1.17-16.25,10.64-34.72l1.58.82C1061.45,792.86,1060.31,808.6,1060.3,808.76Z" fill="#fff"/>
    </g>
    <g id="Grupo_74091" data-name="Grupo 74091">
      <path id="Trazado_148326" data-name="Trazado 148326" d="M1056.72,707.47l5.7-2.63-5.13-3.61Z" fill="#fff"/>
      <path id="Trazado_148327" data-name="Trazado 148327" d="M1024.63,761.12c-.27-1.2-6.63-29.66,6.43-46.19,5.83-7.39,14.66-11.17,26.22-11.26v1.77c-11,.09-19.36,3.65-24.85,10.59-12.53,15.87-6.15,44.41-6.09,44.7Z" fill="#fff"/>
    </g>
    <g id="Grupo_74092" data-name="Grupo 74092">
      <path id="Trazado_148328" data-name="Trazado 148328" d="M1050.69,663.5l-.22-6.27-5.32,3.33Z" fill="#fff"/>
      <path id="Trazado_148329" data-name="Trazado 148329" d="M1044.9,678.58c-.07-.44-1.72-10.71,2.34-17.78l1.54.89c-3.75,6.52-2.14,16.5-2.13,16.6Z" fill="#fff"/>
    </g>
    <g id="Grupo_74093" data-name="Grupo 74093">
      <path id="Trazado_148330" data-name="Trazado 148330" d="M1035.35,664.28l-4.36-4.51-1.73,6.03Z" fill="#fff"/>
      <path id="Trazado_148331" data-name="Trazado 148331" d="M1033.38,679.16c-.05-.62-1.46-8.9-2.4-14.33l1.75-.3c.9,5.23,2.42,14.07,2.42,14.59h-.89Z" fill="#fff"/>
    </g>
    <g id="Grupo_74094" data-name="Grupo 74094">
      <path id="Trazado_148332" data-name="Trazado 148332" d="M1011.43,668.53l-6.26-.33,2.84,5.59Z" fill="#fff"/>
      <path id="Trazado_148333" data-name="Trazado 148333" d="M1021.67,685.8c-.08-.12-8.17-12-12.88-14.31l.77-1.6c5.14,2.47,13.24,14.41,13.58,14.92Z" fill="#fff"/>
    </g>
    <g id="Grupo_74095" data-name="Grupo 74095">
      <path id="Trazado_148334" data-name="Trazado 148334" d="M1069.26,742.34l-5.75-2.5.7,6.23Z" fill="#fff"/>
      <path id="Trazado_148335" data-name="Trazado 148335" d="M1070,758l-1.75-.28c0-.08,1.26-8.14-2.76-13.78l1.44-1C1071.41,749.12,1070.08,757.62,1070,758Z" fill="#fff"/>
    </g>
    <g id="Grupo_74096" data-name="Grupo 74096">
      <path id="Trazado_148336" data-name="Trazado 148336" d="M1108.58,732.25l2.22-5.87-6.19,1.01Z" fill="#fff"/>
      <path id="Trazado_148337" data-name="Trazado 148337" d="M1086.22,752.48l-1.48-1c.45-.68,11.23-16.74,22.61-23.81l.94,1.51C1097.24,736.06,1086.32,752.32,1086.22,752.48Z" fill="#fff"/>
    </g>
  </g>
  <g id="Grupo">
    <text id="Sistema_ci" data-name="Sistema ci" transform="translate(529.68 41.91)" fill="#12263f" font-size="20" font-family="Roboto-Bold, Roboto" font-weight="700"><tspan x="0" y="0">Sistema ci</tspan></text>
    <text id="r" transform="translate(623.88 41.91)" fill="#12263f" font-size="20" font-family="Roboto-Bold, Roboto" font-weight="700" letter-spacing="-0.01em"><tspan x="0" y="0">r</tspan></text>
    <text id="cula" transform="translate(630.99 41.91)" fill="#12263f" font-size="20" font-family="Roboto-Bold, Roboto" font-weight="700"><tspan x="0" y="0">cula</tspan></text>
    <text id="t" transform="translate(668.64 41.91)" fill="#12263f" font-size="20" font-family="Roboto-Bold, Roboto" font-weight="700" letter-spacing="-0.01em"><tspan x="0" y="0">t</tspan></text>
    <text id="orio" transform="translate(675.1 41.91)" fill="#12263f" font-size="20" font-family="Roboto-Bold, Roboto" font-weight="700"><tspan x="0" y="0">orio</tspan></text>
    <text id="Está_formado_por_" data-name="Está formado por " transform="translate(476.93 80.31)" fill="#12263f" font-size="16" font-family="Roboto-Regular, Roboto"><tspan x="0" y="0">Está formado por </tspan></text>
    <text id="v" transform="translate(604.58 80.31)" fill="#12263f" font-size="16" font-family="Roboto-Regular, Roboto" letter-spacing="-0.01em"><tspan x="0" y="0">v</tspan></text>
    <text id="asos_sanguíneos_que_" data-name="asos sanguíneos que " transform="translate(612.21 80.31)" fill="#12263f" font-size="16" font-family="Roboto-Regular, Roboto"><tspan x="0" y="0">asos sanguíneos que </tspan></text>
    <text id="t-2" data-name="t" transform="translate(461.01 99.51)" fill="#12263f" font-size="16" font-family="Roboto-Regular, Roboto"><tspan x="0" y="0">t</tspan></text>
    <text id="r-2" data-name="r" transform="translate(466.24 99.51)" fill="#12263f" font-size="16" font-family="Roboto-Regular, Roboto" letter-spacing="-0.02em"><tspan x="0" y="0">r</tspan></text>
    <text id="anspo" transform="translate(471.34 99.51)" fill="#12263f" font-size="16" font-family="Roboto-Regular, Roboto"><tspan x="0" y="0">anspo</tspan></text>
    <text id="r-3" data-name="r" transform="translate(515.22 99.51)" fill="#12263f" font-size="16" font-family="Roboto-Regular, Roboto" letter-spacing="0.02em"><tspan x="0" y="0">r</tspan></text>
    <text id="tan_sang" data-name="tan sang" transform="translate(521.03 99.51)" fill="#12263f" font-size="16" font-family="Roboto-Regular, Roboto"><tspan x="0" y="0">tan sang</tspan></text>
    <text id="r-4" data-name="r" transform="translate(582.51 99.51)" fill="#12263f" font-size="16" font-family="Roboto-Regular, Roboto" letter-spacing="-0.01em"><tspan x="0" y="0">r</tspan></text>
    <text id="e_desde_y_hacia_el_co" data-name="e desde y hacia el co" transform="translate(587.77 99.51)" fill="#12263f" font-size="16" font-family="Roboto-Regular, Roboto"><tspan x="0" y="0">e desde y hacia el co</tspan></text>
    <text id="r-5" data-name="r" transform="translate(735.21 99.51)" fill="#12263f" font-size="16" font-family="Roboto-Regular, Roboto" letter-spacing="-0.02em"><tspan x="0" y="0">r</tspan></text>
    <text id="a" transform="translate(740.31 99.51)" fill="#12263f" font-size="16" font-family="Roboto-Regular, Roboto"><tspan x="0" y="0">a</tspan></text>
    <text id="z" transform="translate(749.01 99.51)" fill="#12263f" font-size="16" font-family="Roboto-Regular, Roboto" letter-spacing="-0.01em"><tspan x="0" y="0">z</tspan></text>
    <text id="ón." transform="translate(756.82 99.51)" fill="#12263f" font-size="16" font-family="Roboto-Regular, Roboto"><tspan x="0" y="0">ón.</tspan></text>
  </g>
  <g id="Grupo-2" data-name="Grupo">
    <text id="VE" transform="translate(514.32 205.03)" fill="#12263f" font-size="16" font-family="Roboto-Bold, Roboto" font-weight="700"><tspan x="0" y="0">VE</tspan></text>
    <text id="N" transform="translate(533.78 205.03)" fill="#12263f" font-size="16" font-family="Roboto-Bold, Roboto" font-weight="700" letter-spacing="0.01em"><tspan x="0" y="0">N</tspan></text>
    <text id="AS" transform="translate(545.22 205.03)" fill="#12263f" font-size="16" font-family="Roboto-Bold, Roboto" font-weight="700"><tspan x="0" y="0">AS</tspan></text>
    <text id="Sang" transform="translate(408.83 224.23)" fill="#12263f" font-size="16" font-family="Roboto-Regular, Roboto"><tspan x="0" y="0">Sang</tspan></text>
    <text id="r-6" data-name="r" transform="translate(444.83 224.23)" fill="#12263f" font-size="16" font-family="Roboto-Regular, Roboto" letter-spacing="-0.01em"><tspan x="0" y="0">r</tspan></text>
    <text id="e_con_desechos." data-name="e con desechos." transform="translate(450.09 224.23)" fill="#12263f" font-size="16" font-family="Roboto-Regular, Roboto"><tspan x="0" y="0">e con desechos.</tspan></text>
    <text id="P" transform="translate(365.19 243.43)" fill="#12263f" font-size="16" font-family="Roboto-Regular, Roboto" letter-spacing="-0.01em"><tspan x="0" y="0">P</tspan></text>
    <text id="enet" transform="translate(375.19 243.43)" fill="#12263f" font-size="16" font-family="Roboto-Regular, Roboto"><tspan x="0" y="0">enet</tspan></text>
    <text id="r-7" data-name="r" transform="translate(406.19 243.43)" fill="#12263f" font-size="16" font-family="Roboto-Regular, Roboto" letter-spacing="-0.02em"><tspan x="0" y="0">r</tspan></text>
    <text id="a_en_el_co" data-name="a en el co" transform="translate(411.3 243.43)" fill="#12263f" font-size="16" font-family="Roboto-Regular, Roboto"><tspan x="0" y="0">a en el co</tspan></text>
    <text id="r-8" data-name="r" transform="translate(479.05 243.43)" fill="#12263f" font-size="16" font-family="Roboto-Regular, Roboto" letter-spacing="-0.02em"><tspan x="0" y="0">r</tspan></text>
    <text id="a-2" data-name="a" transform="translate(484.15 243.43)" fill="#12263f" font-size="16" font-family="Roboto-Regular, Roboto"><tspan x="0" y="0">a</tspan></text>
    <text id="z-2" data-name="z" transform="translate(492.85 243.43)" fill="#12263f" font-size="16" font-family="Roboto-Regular, Roboto" letter-spacing="-0.01em"><tspan x="0" y="0">z</tspan></text>
    <text id="ón_desde_" data-name="ón desde " transform="translate(500.66 243.43)" fill="#12263f" font-size="16" font-family="Roboto-Regular, Roboto"><tspan x="0" y="0">ón desde </tspan></text>
    <text id="el_cuerpo_y_sale_hacia_los_" data-name="el cuerpo y sale hacia los " transform="translate(387.85 262.63)" fill="#12263f" font-size="16" font-family="Roboto-Regular, Roboto"><tspan x="0" y="0">el cuerpo y sale hacia los </tspan></text>
    <text id="pulmones." transform="translate(491.23 281.83)" fill="#12263f" font-size="16" font-family="Roboto-Regular, Roboto"><tspan x="0" y="0">pulmones.</tspan></text>
  </g>
  <text id="ARTERIAS_Sangre_oxigenada._Penetra_en_el_corazón_desde_los_pulmones_y_sale_hacia_el_cuerpo." data-name="ARTERIAS
Sangre oxigenada.
Penetra en el corazón desde 
los pulmones y sale hacia el 
cuerpo." transform="translate(868.99 205.03)" fill="#12263f" font-size="16" font-family="Roboto-Bold, Roboto" font-weight="700"><tspan x="0" y="0">A</tspan><tspan y="0" letter-spacing="-0.02em">R</tspan><tspan y="0">TER</tspan><tspan y="0" letter-spacing="0.01em">I</tspan><tspan y="0">AS</tspan><tspan font-family="Roboto-Regular, Roboto" font-weight="400"><tspan x="0" y="19.2">Sang</tspan><tspan y="19.2" letter-spacing="-0.01em">r</tspan><tspan y="19.2">e </tspan><tspan y="19.2" letter-spacing="-0.01em">o</tspan><tspan y="19.2">xigenada.</tspan><tspan x="0" y="38.4" letter-spacing="-0.01em">P</tspan><tspan y="38.4">enet</tspan><tspan y="38.4" letter-spacing="-0.02em">r</tspan><tspan y="38.4">a en el co</tspan><tspan y="38.4" letter-spacing="-0.02em">r</tspan><tspan y="38.4">a</tspan><tspan y="38.4" letter-spacing="-0.01em">z</tspan><tspan y="38.4">ón desde </tspan><tspan x="0" y="57.6">los pulmones y sale hacia el </tspan><tspan x="0" y="76.8">cuerpo.</tspan></tspan></text>
  <g id="Grupo_74098" data-name="Grupo 74098">
    <line id="Línea_184" data-name="Línea 184" x2="65.01" transform="translate(846.04 706.39)" fill="none" stroke="#7e5ee3" stroke-miterlimit="10" stroke-width="1"/>
    <circle id="Elipse_4607" data-name="Elipse 4607" cx="3.76" cy="3.76" r="3.76" transform="translate(842.47 702.63)" fill="#7e5ee3"/>
  </g>
  <g id="Grupo_74099" data-name="Grupo 74099">
    <line id="Línea_185" data-name="Línea 185" x2="65.01" transform="translate(573.97 199.46)" fill="none" stroke="#7e5ee3" stroke-miterlimit="10" stroke-width="1"/>
    <circle id="Elipse_4608" data-name="Elipse 4608" cx="3.76" cy="3.76" r="3.76" transform="translate(570.4 195.7)" fill="#7e5ee3"/>
  </g>
  <g id="Grupo_74100" data-name="Grupo 74100">
    <line id="Línea_186" data-name="Línea 186" x2="65.01" transform="translate(790.28 199.46)" fill="none" stroke="#7e5ee3" stroke-miterlimit="10" stroke-width="1"/>
    <circle id="Elipse_4609" data-name="Elipse 4609" cx="3.76" cy="3.76" r="3.76" transform="translate(851.34 195.7)" fill="#7e5ee3"/>
  </g>
  <g id="Grupo-3" data-name="Grupo">
    <text id="El_co" data-name="El co" transform="translate(573.2 711.38)" fill="#12263f" font-size="16" font-family="Roboto-Bold, Roboto" font-weight="700"><tspan x="0" y="0">El co</tspan></text>
    <text id="r-9" data-name="r" transform="translate(607.82 711.38)" fill="#12263f" font-size="16" font-family="Roboto-Bold, Roboto" font-weight="700" letter-spacing="-0.01em"><tspan x="0" y="0">r</tspan></text>
    <text id="a-3" data-name="a" transform="translate(613.42 711.38)" fill="#12263f" font-size="16" font-family="Roboto-Bold, Roboto" font-weight="700"><tspan x="0" y="0">a</tspan></text>
    <text id="z-3" data-name="z" transform="translate(622 711.38)" fill="#12263f" font-size="16" font-family="Roboto-Bold, Roboto" font-weight="700" letter-spacing="-0.01em"><tspan x="0" y="0">z</tspan></text>
    <text id="ón" transform="translate(630.01 711.38)" fill="#12263f" font-size="16" font-family="Roboto-Bold, Roboto" font-weight="700"><tspan x="0" y="0">ón</tspan></text>
    <text id="_es_un_músculo_que_actúa_" data-name=" es un músculo que actúa " transform="translate(648.02 711.38)" fill="#12263f" font-size="16" font-family="Roboto-Regular, Roboto"><tspan x="0" y="0" xml:space="preserve"> es un músculo que actúa </tspan></text>
    <text id="como_una_bomba_suele_latir_ent" data-name="como una bomba, suele latir ent" transform="translate(566.75 730.58)" fill="#12263f" font-size="16" font-family="Roboto-Regular, Roboto"><tspan x="0" y="0">como una bomba, suele latir ent</tspan></text>
    <text id="r-10" data-name="r" transform="translate(794.04 730.58)" fill="#12263f" font-size="16" font-family="Roboto-Regular, Roboto" letter-spacing="-0.01em"><tspan x="0" y="0">r</tspan></text>
    <text id="e_60_" data-name="e 60 " transform="translate(799.31 730.58)" fill="#12263f" font-size="16" font-family="Roboto-Regular, Roboto"><tspan x="0" y="0">e 60 </tspan></text>
    <text id="y_100_" data-name="y 100 " transform="translate(600 749.78)" fill="#12263f" font-size="16" font-family="Roboto-Regular, Roboto"><tspan x="0" y="0">y 100 </tspan></text>
    <text id="v-2" data-name="v" transform="translate(642.44 749.78)" fill="#12263f" font-size="16" font-family="Roboto-Regular, Roboto" letter-spacing="-0.01em"><tspan x="0" y="0">v</tspan></text>
    <text id="eces_por_minu" data-name="eces por minu" transform="translate(650.09 749.78)" fill="#12263f" font-size="16" font-family="Roboto-Regular, Roboto"><tspan x="0" y="0">eces por minu</tspan></text>
    <text id="t-3" data-name="t" transform="translate(750.66 749.78)" fill="#12263f" font-size="16" font-family="Roboto-Regular, Roboto" letter-spacing="-0.01em"><tspan x="0" y="0">t</tspan></text>
    <text id="o._En_cada_" data-name="o. En cada " transform="translate(755.73 749.78)" fill="#12263f" font-size="16" font-family="Roboto-Regular, Roboto"><tspan x="0" y="0">o. En cada </tspan></text>
    <text id="latido_el_co" data-name="latido el co" transform="translate(569.43 768.98)" fill="#12263f" font-size="16" font-family="Roboto-Regular, Roboto"><tspan x="0" y="0">latido el co</tspan></text>
    <text id="r-11" data-name="r" transform="translate(647.05 768.98)" fill="#12263f" font-size="16" font-family="Roboto-Regular, Roboto" letter-spacing="-0.02em"><tspan x="0" y="0">r</tspan></text>
    <text id="a-4" data-name="a" transform="translate(652.15 768.98)" fill="#12263f" font-size="16" font-family="Roboto-Regular, Roboto"><tspan x="0" y="0">a</tspan></text>
    <text id="z-4" data-name="z" transform="translate(660.86 768.98)" fill="#12263f" font-size="16" font-family="Roboto-Regular, Roboto" letter-spacing="-0.01em"><tspan x="0" y="0">z</tspan></text>
    <text id="ón_envía_sang" data-name="ón envía sang" transform="translate(668.66 768.98)" fill="#12263f" font-size="16" font-family="Roboto-Regular, Roboto"><tspan x="0" y="0">ón envía sang</tspan></text>
    <text id="r-12" data-name="r" transform="translate(767 768.98)" fill="#12263f" font-size="16" font-family="Roboto-Regular, Roboto" letter-spacing="-0.01em"><tspan x="0" y="0">r</tspan></text>
    <text id="e_a_" data-name="e a " transform="translate(772.27 768.98)" fill="#12263f" font-size="16" font-family="Roboto-Regular, Roboto"><tspan x="0" y="0">e a </tspan></text>
    <text id="t-4" data-name="t" transform="translate(797.37 768.98)" fill="#12263f" font-size="16" font-family="Roboto-Regular, Roboto" letter-spacing="-0.01em"><tspan x="0" y="0">t</tspan></text>
    <text id="odo_" data-name="odo " transform="translate(802.44 768.98)" fill="#12263f" font-size="16" font-family="Roboto-Regular, Roboto"><tspan x="0" y="0">odo </tspan></text>
    <text id="el_cuerpo_t" data-name="el cuerpo, t" transform="translate(583.31 788.18)" fill="#12263f" font-size="16" font-family="Roboto-Regular, Roboto"><tspan x="0" y="0">el cuerpo, t</tspan></text>
    <text id="r-13" data-name="r" transform="translate(661.15 788.18)" fill="#12263f" font-size="16" font-family="Roboto-Regular, Roboto" letter-spacing="-0.02em"><tspan x="0" y="0">r</tspan></text>
    <text id="anspo-2" data-name="anspo" transform="translate(666.25 788.18)" fill="#12263f" font-size="16" font-family="Roboto-Regular, Roboto"><tspan x="0" y="0">anspo</tspan></text>
    <text id="r-14" data-name="r" transform="translate(710.13 788.18)" fill="#12263f" font-size="16" font-family="Roboto-Regular, Roboto" letter-spacing="0.02em"><tspan x="0" y="0">r</tspan></text>
    <text id="tando_" data-name="tando " transform="translate(715.93 788.18)" fill="#12263f" font-size="16" font-family="Roboto-Regular, Roboto"><tspan x="0" y="0">tando </tspan></text>
    <text id="o" transform="translate(760.8 788.18)" fill="#12263f" font-size="16" font-family="Roboto-Regular, Roboto" letter-spacing="-0.01em"><tspan x="0" y="0">o</tspan></text>
    <text id="xígeno_a_" data-name="xígeno a " transform="translate(769.76 788.18)" fill="#12263f" font-size="16" font-family="Roboto-Regular, Roboto"><tspan x="0" y="0">xígeno a </tspan></text>
    <text id="t-5" data-name="t" transform="translate(614.54 807.38)" fill="#12263f" font-size="16" font-family="Roboto-Regular, Roboto" letter-spacing="-0.01em"><tspan x="0" y="0">t</tspan></text>
    <text id="odas_sus_células._Después_de_" data-name="odas sus células. Después de " transform="translate(619.61 807.38)" fill="#12263f" font-size="16" font-family="Roboto-Regular, Roboto"><tspan x="0" y="0">odas sus células. Después de </tspan></text>
    <text id="distribuir_el_" data-name="distribuir el " transform="translate(569.25 826.58)" fill="#12263f" font-size="16" font-family="Roboto-Regular, Roboto"><tspan x="0" y="0">distribuir el </tspan></text>
    <text id="o-2" data-name="o" transform="translate(652.3 826.58)" fill="#12263f" font-size="16" font-family="Roboto-Regular, Roboto" letter-spacing="-0.01em"><tspan x="0" y="0">o</tspan></text>
    <text id="xígeno_la_sang" data-name="xígeno, la sang" transform="translate(661.26 826.58)" fill="#12263f" font-size="16" font-family="Roboto-Regular, Roboto"><tspan x="0" y="0">xígeno, la sang</tspan></text>
    <text id="r-15" data-name="r" transform="translate(766.96 826.58)" fill="#12263f" font-size="16" font-family="Roboto-Regular, Roboto" letter-spacing="-0.01em"><tspan x="0" y="0">r</tspan></text>
    <text id="e_vuel" data-name="e vuel" transform="translate(772.22 826.58)" fill="#12263f" font-size="16" font-family="Roboto-Regular, Roboto"><tspan x="0" y="0">e vuel</tspan></text>
    <text id="v-3" data-name="v" transform="translate(813.59 826.58)" fill="#12263f" font-size="16" font-family="Roboto-Regular, Roboto" letter-spacing="-0.01em"><tspan x="0" y="0">v</tspan></text>
    <text id="e_" data-name="e " transform="translate(821.24 826.58)" fill="#12263f" font-size="16" font-family="Roboto-Regular, Roboto"><tspan x="0" y="0">e </tspan></text>
    <text id="al_co" data-name="al co" transform="translate(586 845.78)" fill="#12263f" font-size="16" font-family="Roboto-Regular, Roboto"><tspan x="0" y="0">al co</tspan></text>
    <text id="r-16" data-name="r" transform="translate(620.04 845.78)" fill="#12263f" font-size="16" font-family="Roboto-Regular, Roboto" letter-spacing="-0.02em"><tspan x="0" y="0">r</tspan></text>
    <text id="a-5" data-name="a" transform="translate(625.15 845.78)" fill="#12263f" font-size="16" font-family="Roboto-Regular, Roboto"><tspan x="0" y="0">a</tspan></text>
    <text id="z-5" data-name="z" transform="translate(633.85 845.78)" fill="#12263f" font-size="16" font-family="Roboto-Regular, Roboto" letter-spacing="-0.01em"><tspan x="0" y="0">z</tspan></text>
    <text id="ón._Desde_allí_la_sang" data-name="ón. Desde allí, la sang" transform="translate(641.65 845.78)" fill="#12263f" font-size="16" font-family="Roboto-Regular, Roboto"><tspan x="0" y="0">ón. Desde allí, la sang</tspan></text>
    <text id="r-17" data-name="r" transform="translate(795.29 845.78)" fill="#12263f" font-size="16" font-family="Roboto-Regular, Roboto" letter-spacing="-0.01em"><tspan x="0" y="0">r</tspan></text>
    <text id="e_se_" data-name="e se " transform="translate(800.55 845.78)" fill="#12263f" font-size="16" font-family="Roboto-Regular, Roboto"><tspan x="0" y="0">e se </tspan></text>
    <text id="bombea_hacia_los_pulmones_donde_" data-name="bombea hacia los pulmones, donde " transform="translate(577.86 864.98)" fill="#12263f" font-size="16" font-family="Roboto-Regular, Roboto"><tspan x="0" y="0">bombea hacia los pulmones, donde </tspan></text>
    <text id="se_vuel" data-name="se vuel" transform="translate(581.02 884.18)" fill="#12263f" font-size="16" font-family="Roboto-Regular, Roboto"><tspan x="0" y="0">se vuel</tspan></text>
    <text id="v-4" data-name="v" transform="translate(630.64 884.18)" fill="#12263f" font-size="16" font-family="Roboto-Regular, Roboto" letter-spacing="-0.01em"><tspan x="0" y="0">v</tspan></text>
    <text id="e_a_ca" data-name="e a ca" transform="translate(638.29 884.18)" fill="#12263f" font-size="16" font-family="Roboto-Regular, Roboto"><tspan x="0" y="0">e a ca</tspan></text>
    <text id="r-18" data-name="r" transform="translate(680.47 884.18)" fill="#12263f" font-size="16" font-family="Roboto-Regular, Roboto" letter-spacing="-0.01em"><tspan x="0" y="0">r</tspan></text>
    <text id="gar_de_" data-name="gar de " transform="translate(685.73 884.18)" fill="#12263f" font-size="16" font-family="Roboto-Regular, Roboto"><tspan x="0" y="0">gar de </tspan></text>
    <text id="o-3" data-name="o" transform="translate(734.25 884.18)" fill="#12263f" font-size="16" font-family="Roboto-Regular, Roboto" letter-spacing="-0.01em"><tspan x="0" y="0">o</tspan></text>
    <text id="xígeno._Este_" data-name="xígeno. Este " transform="translate(743.21 884.18)" fill="#12263f" font-size="16" font-family="Roboto-Regular, Roboto"><tspan x="0" y="0">xígeno. Este </tspan></text>
    <text id="ciclo_que_se_" data-name="ciclo que se " transform="translate(574.97 903.38)" fill="#12263f" font-size="16" font-family="Roboto-Regular, Roboto"><tspan x="0" y="0">ciclo que se </tspan></text>
    <text id="r-19" data-name="r" transform="translate(663.61 903.38)" fill="#12263f" font-size="16" font-family="Roboto-Regular, Roboto" letter-spacing="-0.01em"><tspan x="0" y="0">r</tspan></text>
    <text id="epite_una_y_ot" data-name="epite una y ot" transform="translate(668.87 903.38)" fill="#12263f" font-size="16" font-family="Roboto-Regular, Roboto"><tspan x="0" y="0">epite una y ot</tspan></text>
    <text id="r-20" data-name="r" transform="translate(764.07 903.38)" fill="#12263f" font-size="16" font-family="Roboto-Regular, Roboto" letter-spacing="-0.02em"><tspan x="0" y="0">r</tspan></text>
    <text id="a_" data-name="a " transform="translate(769.17 903.38)" fill="#12263f" font-size="16" font-family="Roboto-Regular, Roboto"><tspan x="0" y="0">a </tspan></text>
    <text id="v-5" data-name="v" transform="translate(781.83 903.38)" fill="#12263f" font-size="16" font-family="Roboto-Regular, Roboto" letter-spacing="-0.01em"><tspan x="0" y="0">v</tspan></text>
    <text id="ez_se_" data-name="ez, se " transform="translate(789.48 903.38)" fill="#12263f" font-size="16" font-family="Roboto-Regular, Roboto"><tspan x="0" y="0">ez, se </tspan></text>
    <text id="denomina_ci" data-name="denomina ci" transform="translate(673.14 922.58)" fill="#12263f" font-size="16" font-family="Roboto-Regular, Roboto"><tspan x="0" y="0">denomina ci</tspan></text>
    <text id="r-21" data-name="r" transform="translate(760.25 922.58)" fill="#12263f" font-size="16" font-family="Roboto-Regular, Roboto" letter-spacing="-0.01em"><tspan x="0" y="0">r</tspan></text>
    <text id="culación." transform="translate(765.51 922.58)" fill="#12263f" font-size="16" font-family="Roboto-Regular, Roboto"><tspan x="0" y="0">culación.</tspan></text>
  </g>
</svg>
