<svg xmlns="http://www.w3.org/2000/svg" xmlns:xlink="http://www.w3.org/1999/xlink" width="563.03" height="359.25" viewBox="0 0 563.03 359.25">
  <defs>
    <linearGradient id="linear-gradient" x1="0.5" y1="1" x2="0.5" gradientUnits="objectBoundingBox">
      <stop offset="0" stop-color="#ffc596"/>
      <stop offset="0.495" stop-color="#fdc091"/>
      <stop offset="1" stop-color="#fdae91"/>
    </linearGradient>
    <linearGradient id="linear-gradient-2" x1="0.5" y1="1" x2="0.5" gradientUnits="objectBoundingBox">
      <stop offset="0" stop-color="#ffc596"/>
      <stop offset="0.495" stop-color="#fccba4"/>
      <stop offset="1" stop-color="#f7c9b9"/>
    </linearGradient>
    <clipPath id="clip-path">
      <path id="Trazado_163264" data-name="Trazado 163264" d="M521.9,697.639c-.719,2.1-4.212,3.032-6.909,1.637a5.652,5.652,0,0,1-.567-.337,3.639,3.639,0,0,1,.212-.5C515.908,695.993,519.709,695.686,521.9,697.639Z" transform="translate(-514.425 -696.364)" fill="none"/>
    </clipPath>
    <linearGradient id="linear-gradient-3" x1="-7.594" y1="1" x2="-7.594" gradientUnits="objectBoundingBox">
      <stop offset="0" stop-color="#fcc992"/>
      <stop offset="0.524" stop-color="#f8d7be"/>
      <stop offset="1" stop-color="#fcd2c2"/>
    </linearGradient>
    <clipPath id="clip-path-2">
      <path id="Trazado_163274" data-name="Trazado 163274" d="M430.429,697.639c.72,2.1,4.212,3.032,6.909,1.637a5.638,5.638,0,0,0,.567-.337,3.639,3.639,0,0,0-.212-.5C436.422,695.993,432.621,695.686,430.429,697.639Z" transform="translate(-430.429 -696.364)" fill="none"/>
    </clipPath>
  </defs>
  <g id="Grupo_73870" data-name="Grupo 73870" transform="translate(-247 -4645.33)">
    <g id="Capa_2" data-name="Capa 2" transform="translate(61.63 4574.91)">
      <g id="Grupo_73855" data-name="Grupo 73855" transform="translate(-38.03)">
        <text id="Mirada_al_frente" data-name="Mirada al frente" transform="translate(602.43 88.36)" fill="#12263f" font-size="16" font-family="Roboto-Regular, Roboto"><tspan x="0" y="0">Mi</tspan><tspan y="0" letter-spacing="-0.02em">r</tspan><tspan y="0">ada al f</tspan><tspan y="0" letter-spacing="-0.01em">r</tspan><tspan y="0">ente</tspan></text>
        <text id="Posición_erecta" data-name="Posición erecta" transform="translate(223.4 202.72)" fill="#12263f" font-size="16" font-family="Roboto-Regular, Roboto"><tspan x="0" y="0" letter-spacing="-0.01em">P</tspan><tspan y="0">osición e</tspan><tspan y="0" letter-spacing="-0.01em">r</tspan><tspan y="0">ecta</tspan></text>
        <g id="Grupo_73845" data-name="Grupo 73845">
          <path id="Trazado_146751" data-name="Trazado 146751" d="M484.94,81.18l86.89,3.31v1.38l-86.89,3.31Z" fill="#00bcd4"/>
          <path id="Trazado_146752" data-name="Trazado 146752" d="M589.9,85.18,564.43,95.59l6.04-10.41-6.04-10.4Z" fill="#00bcd4"/>
        </g>
        <g id="Grupo_73846" data-name="Grupo 73846">
          <path id="Trazado_146753" data-name="Trazado 146753" d="M508.5,169.1l63.33,3.11v1.78L508.5,177.1Z" fill="#00bcd4"/>
          <path id="Trazado_146754" data-name="Trazado 146754" d="M589.9,173.1l-25.47,10.4,6.04-10.4-6.04-10.41Z" fill="#00bcd4"/>
        </g>
        <g id="Grupo_73847" data-name="Grupo 73847">
          <path id="Trazado_146755" data-name="Trazado 146755" d="M413.91,202.68l-54.21-3v-2l54.21-3Z" fill="#00bcd4"/>
          <path id="Trazado_146756" data-name="Trazado 146756" d="M341.63,198.68l25.47-10.4-6.04,10.4,6.04,10.41Z" fill="#00bcd4"/>
        </g>
        <text id="Bipedestación" transform="translate(236.37 352.06)" fill="#12263f" font-size="16" font-family="Roboto-Regular, Roboto"><tspan x="0" y="0">Bipedestación</tspan></text>
        <g id="Grupo_73848" data-name="Grupo 73848">
          <path id="Trazado_146757" data-name="Trazado 146757" d="M413.91,352.01l-54.21-2.99v-2.01l54.21-3Z" fill="#00bcd4"/>
          <path id="Trazado_146758" data-name="Trazado 146758" d="M341.63,348.01l25.47-10.4-6.04,10.4,6.04,10.41Z" fill="#00bcd4"/>
        </g>
        <g id="Grupo_73849" data-name="Grupo 73849">
          <path id="Trazado_146759" data-name="Trazado 146759" d="M532.72,235.89l39.11,2.74v2.52l-39.11,2.74Z" fill="#00bcd4"/>
          <path id="Trazado_146760" data-name="Trazado 146760" d="M589.9,239.89,564.43,250.3l6.04-10.41-6.04-10.4Z" fill="#00bcd4"/>
        </g>
        <text id="Miembros_superiores_ligeramente_separados_del_cuerpo" data-name="Miembros superiores 
ligeramente separados 
del cuerpo" transform="translate(602.43 177.59)" fill="#12263f" font-size="16" font-family="Roboto-Regular, Roboto"><tspan x="0" y="0">Miemb</tspan><tspan y="0" letter-spacing="-0.01em">r</tspan><tspan y="0">os superio</tspan><tspan y="0" letter-spacing="-0.01em">r</tspan><tspan y="0">es </tspan><tspan x="0" y="19.2">lige</tspan><tspan y="19.2" letter-spacing="-0.02em">r</tspan><tspan y="19.2">amente sepa</tspan><tspan y="19.2" letter-spacing="-0.02em">r</tspan><tspan y="19.2">ados </tspan><tspan x="0" y="38.4">del cuerpo</tspan></text>
        <g id="Grupo">
          <text id="Manos_supinadas_palma_" data-name="Manos supinadas (palma " transform="translate(602.43 242.67)" fill="#12263f" font-size="16" font-family="Roboto-Regular, Roboto"><tspan x="0" y="0">Manos supinadas (palma </tspan></text>
          <text id="hacia_delante_" data-name="hacia delante)" transform="translate(602.43 261.87)" fill="#12263f" font-size="16" font-family="Roboto-Regular, Roboto"><tspan x="0" y="0">hacia delante)</tspan></text>
        </g>
        <g id="_1" data-name="1">
          <g id="Grupo_73850" data-name="Grupo 73850">
            <path id="Trazado_146761" data-name="Trazado 146761" d="M463.36,91.79c2.3-.7,3.26.42,3.72,1.14a3.09,3.09,0,0,1,.25,2.46,25,25,0,0,1-1.15,3.09c-1.05,2.48,0,4.52-2.84,4.52-.89.06-3.11.68-3-.77a54.3,54.3,0,0,1,3.02-10.44Z" fill="#fcc992"/>
            <path id="Trazado_146762" data-name="Trazado 146762" d="M461.56,103.7a1.92,1.92,0,0,1-1.37-.42,1.27,1.27,0,0,1-.38-1.08,54.72,54.72,0,0,1,3.12-10.71l.1-.15h.18c1.91-.58,3.36-.12,4.31,1.36a3.59,3.59,0,0,1,.31,2.87,25.511,25.511,0,0,1-1.17,3.16,8.511,8.511,0,0,0-.53,2.1c-.21,1.35-.42,2.74-2.79,2.74a4.5,4.5,0,0,0-.49.06A9.09,9.09,0,0,1,461.56,103.7Zm2.15-11.47a57.994,57.994,0,0,0-2.86,10c0,.19,0,.24,0,.25.27.25,1.27.11,1.8,0l.61-.07c1.51,0,1.59-.51,1.79-1.86a9.6,9.6,0,0,1,.6-2.34,24.836,24.836,0,0,0,1.13-3,2.58,2.58,0,0,0-.19-2,2.32,2.32,0,0,0-2.88-.98Z" fill="#e8a96b"/>
          </g>
          <g id="Grupo_73851" data-name="Grupo 73851">
            <path id="Trazado_146763" data-name="Trazado 146763" d="M434.92,91.79c-2.3-.7-3.26.42-3.72,1.14a3.09,3.09,0,0,0-.25,2.46,25,25,0,0,0,1.15,3.09c1,2.48,0,4.52,2.84,4.52.89.06,3.12.68,3-.77a54.3,54.3,0,0,0-3.02-10.44Z" fill="#fcc992"/>
            <path id="Trazado_146764" data-name="Trazado 146764" d="M436.72,103.7a9.091,9.091,0,0,1-1.29-.12l-.53-.07c-2.33,0-2.54-1.38-2.75-2.73a8.92,8.92,0,0,0-.52-2.1,25.23,25.23,0,0,1-1.18-3.16,3.58,3.58,0,0,1,.31-2.87c.95-1.48,2.4-1.94,4.31-1.36h.18l.1.15a54,54,0,0,1,3.12,10.71,1.27,1.27,0,0,1-.38,1.08,1.92,1.92,0,0,1-1.37.47Zm-3.14-11.61a2.15,2.15,0,0,0-1.94,1.12,2.58,2.58,0,0,0-.19,2,28.012,28.012,0,0,0,1.13,3,9.6,9.6,0,0,1,.6,2.34c.2,1.35.28,1.86,1.76,1.86a2.092,2.092,0,0,1,.64.07c.54.08,1.53.22,1.8,0,0,0,.07-.06.06-.25a58,58,0,0,0-2.87-10,3.79,3.79,0,0,0-.99-.14Z" fill="#e8a96b"/>
          </g>
          <g id="Grupo_73852" data-name="Grupo 73852">
            <path id="Trazado_146765" data-name="Trazado 146765" d="M522.3,230.3a11.73,11.73,0,0,1,4.29,1.9c2.1,1.29,3.67,1.23,4.41.2,1-1.44-3.66-4-5.86-5.66-2.74-2.13-7.47-3.23-9.81-5.12a2.589,2.589,0,0,1-.48-.54,7.5,7.5,0,0,1-1-1.9c-1.44-4-5.21-17-7.64-26.21-2.6-9.88-5-14.87-6.45-17.39-.79-4.28-1.08-9-4.17-19.22.44-18.2-4.3-24-8.54-26.82-7.09-4.73-13.19-3.13-26.88-11.34l-1.5-12.89H439.74l-1.5,12.89c-13.7,8.21-19.79,6.61-26.88,11.34-4.24,2.83-9,8.62-8.55,26.82-3.08,10.21-3.38,14.94-4.16,19.22-1.46,2.52-3.85,7.51-6.45,17.39-.67,2.55-5.95,22.14-8.09,27.37A3.85,3.85,0,0,1,383,222c-2.34,1.89-7.07,3-9.81,5.12-2.19,1.71-6.9,4.22-5.86,5.66.74,1,2.32,1.09,4.41-.2a12.11,12.11,0,0,1,4.29-1.9.87.87,0,0,1,.88,1.23c-.66,1.48-2.47,3.95-4.62,8-.57,1.05-3.73,5.3-4.83,8a1.49,1.49,0,0,0,2.49,1.54,41.52,41.52,0,0,0,5.16-6.92c.36-.67,2.13-3.65,2.64-4.49-.31,1-2,4.4-2.44,5.55-.76,1.92-3.11,7.21-3.89,9.32-.51,1.35,1.8,2.49,2.8,1.17a43.63,43.63,0,0,0,5.16-9.43s1.48-3.32,2.27-5.33c-.45,2.14-.91,3.06-1.38,5.29,0,0-2.39,6.14-2.64,8a1.5,1.5,0,0,0,2.74,1,66.181,66.181,0,0,0,3.62-8c1.26-3.36,2.15-5.92,2.15-5.92s-.41,2.61-.71,4.15c-.16.83-1.52,4.43-1.59,6.84a1.3,1.3,0,0,0,2,1c1.64-1.11,3.2-7.38,3.2-7.38.65-2.73,2.21-8.24,2.84-9.83,1.55-3.95.84-6.42.77-8.75a5.429,5.429,0,0,1,.41-1.63c.71-1.83,2.92-5.87,10.45-18.27,7.1-11.7,8.71-21.06,8.71-21.06,3.64-5.29,5.56-11.14,7.48-15.42,4,13.36,3.65,19.67,2.8,32.54-1.88,28.33-9.92,38-8.59,73.71.61,16.52,5.78,33.07,5.63,39-.16,6.17-.51,13-.94,17.14-.7,6.94-1.93,13.88-1.61,20.88.31,6.83,3.07,13.27,5.1,19.76a109.679,109.679,0,0,1,3.52,16.23c1.9,12.44,3.27,16-7.28,31.11-1.14,1.62-3.28,4.34-2.63,6.5.61,2,3.33,2.27,5,2.4,12.65.9,17.89.89,19.13-1.79A5.11,5.11,0,0,0,440,423c-2.94-8.75-1.11-17.76-2.2-26.72-.82-6.75-1.19-7.89.59-17.63,1.12-6.14,2.31-12.28,2.89-18.5,1.72-18.53-3.43-22.78-3.18-33.88.27-11.37,10.75-60.28,9.5-81.57a1.21,1.21,0,0,1,1.19-1.27h.93a1.2,1.2,0,0,1,1.19,1.26c-1.39,30,9.21,70.14,9.47,81.58.26,11.1-4.89,15.35-3.17,33.88.57,6.22,1.77,12.36,2.89,18.5,1.78,9.74,1.41,10.88.59,17.63-1.09,9,.74,18-2.21,26.72a5.11,5.11,0,0,0,.12,3.75c1.24,2.68,6.47,2.69,19.12,1.79,1.69-.13,4.42-.41,5-2.4.66-2.16-1.49-4.88-2.62-6.5-10.55-15.08-9.18-18.67-7.28-31.11a109.663,109.663,0,0,1,3.52-16.23c2-6.49,4.79-12.93,5.1-19.76.32-7-.91-13.94-1.62-20.88-.42-4.18-.77-11-.93-17.14-.15-5.94,5-22.49,5.63-39,1.33-35.81-4.22-45.47-8.52-73.64-1.64-10.68-1.47-20.18,1.67-33.68a151.7,151.7,0,0,0,8.89,16.7s1.25,9.15,8.36,20.85c7.45,12.27,9.68,16.35,10.43,18.21a5.139,5.139,0,0,1,.27,2.05c-.15,2.13-.6,4.49.8,8,.63,1.59,2.19,7.1,2.85,9.83,0,0,1.56,6.27,3.19,7.38a1.3,1.3,0,0,0,2.06-1c-.08-2.4-1.44-6-1.6-6.84-.3-1.54-.61-3.52-.61-3.52s.78,1.73,2.06,5.3a63.72,63.72,0,0,0,3.61,8,1.5,1.5,0,0,0,2.75-1c-.26-1.89-2.64-8-2.64-8-.48-2.22-1.23-3.65-1.68-5.79.78,2,2.78,5.84,2.78,5.84a45.456,45.456,0,0,0,4.94,9.42c1,1.33,3.31.19,2.8-1.17-.78-2.1-3.13-7.4-3.89-9.31-.41-1-2.76-6-2.8-6.17.52.84,2.64,4.43,3,5.11A40.761,40.761,0,0,0,528.4,249a1.48,1.48,0,0,0,2.48-1.53c-1.1-2.68-4.26-7.3-4.83-8.36-2.15-4-4-6.13-4.62-7.61a.87.87,0,0,1,.87-1.2Z" fill="#fcc992"/>
            <path id="Trazado_146766" data-name="Trazado 146766" d="M431.73,429.62c-2.86,0-6.5-.22-11-.54-1.42-.11-4.75-.35-5.48-2.77-.68-2.22,1.16-4.8,2.38-6.51l.31-.44c9.81-14,9.19-18,7.53-28.61l-.33-2.12a107.377,107.377,0,0,0-3.51-16.15c-.45-1.45-.94-2.9-1.43-4.35-1.7-5-3.45-10.17-3.69-15.55a94.736,94.736,0,0,1,1-15.66c.22-1.76.43-3.53.61-5.29.4-4,.76-10.68.93-17.1.06-2.4-.78-6.62-1.84-12-1.53-7.71-3.43-17.3-3.79-27-.79-21.31,1.69-33.13,4.32-45.64a185.873,185.873,0,0,0,4.26-28.1c.8-12.16,1.22-18.48-2.38-31l-.86,2.08a62.829,62.829,0,0,1-6,12A69.17,69.17,0,0,1,404,206c-8.14,13.4-9.82,16.66-10.42,18.19a5,5,0,0,0-.36,1.38v.14c0,.39.06.87.11,1.37a14.69,14.69,0,0,1-.91,7.49c-.6,1.54-2.15,7-2.82,9.77-.16.66-1.66,6.49-3.41,7.68a2,2,0,0,1-2,.07,1.65,1.65,0,0,1-.85-1.55,16.1,16.1,0,0,1,.6-3.47,51.758,51.758,0,0,1-3.12,6.71,2.018,2.018,0,0,1-3.69-1.33,29.731,29.731,0,0,1,1.32-4.48,44,44,0,0,1-3.79,6.31,2.12,2.12,0,0,1-2.76.5,1.77,1.77,0,0,1-.95-2.17c.47-1.26,1.5-3.66,2.41-5.78l.82-1.93a44.994,44.994,0,0,1-3.84,4.79,2.06,2.06,0,0,1-2.62.3,1.87,1.87,0,0,1-.72-2.38,43.6,43.6,0,0,1,3.73-6.3,17.231,17.231,0,0,0,1.12-1.74c1.16-2.17,2.21-3.88,3.05-5.25a27.612,27.612,0,0,0,1.56-2.7.35.35,0,0,0,0-.36.32.32,0,0,0-.3-.13A11.33,11.33,0,0,0,372,233c-2.23,1.38-4.14,1.4-5.1.07a1.32,1.32,0,0,1-.23-1c.21-1.19,1.84-2.37,4.31-4.05.7-.48,1.37-.93,1.89-1.33a23.831,23.831,0,0,1,5.27-2.76,20.86,20.86,0,0,0,4.53-2.35,3.56,3.56,0,0,0,1-1.41c2-5,7.15-23.82,8.06-27.31,2-7.61,4.18-13.47,6.47-17.44.16-.93.31-1.87.46-2.89a104.88,104.88,0,0,1,3.67-16.22c-.43-18.61,4.47-24.3,8.78-27.18,3.2-2.14,6.22-3,9.72-4a64.83,64.83,0,0,0,17-7.19l1.47-12.64a.52.52,0,0,1,.52-.46h18.93a.52.52,0,0,1,.52.46l1.46,12.64a65,65,0,0,0,17,7.19,32.71,32.71,0,0,1,9.72,4c4.31,2.88,9.2,8.57,8.77,27.18a103.683,103.683,0,0,1,3.67,16.22c.16,1,.3,2,.47,2.89,2.29,4,4.46,9.84,6.46,17.44,2.54,9.63,6.24,22.35,7.63,26.17a7,7,0,0,0,.92,1.76,2.668,2.668,0,0,0,.39.44,20.661,20.661,0,0,0,4.53,2.35,24.6,24.6,0,0,1,5.28,2.77c.51.4,1.18.85,1.88,1.33,2.47,1.67,4.1,2.86,4.31,4.05a1.28,1.28,0,0,1-.22,1c-1,1.34-2.88,1.32-5.11-.06a11.389,11.389,0,0,0-4.08-1.82.27.27,0,0,0-.3.13.33.33,0,0,0,0,.36,18.935,18.935,0,0,0,1.42,2.34,60.068,60.068,0,0,1,3.18,5.23c.16.3.55.91,1,1.69a54.319,54.319,0,0,1,3.81,6.72,1.88,1.88,0,0,1-.72,2.39,2.06,2.06,0,0,1-2.62-.3,45.008,45.008,0,0,1-3.84-4.79c.25.59.54,1.25.83,1.95.91,2.11,1.93,4.5,2.4,5.76a1.75,1.75,0,0,1-.95,2.17,2.12,2.12,0,0,1-2.75-.5,44.886,44.886,0,0,1-4.58-8.48,46.993,46.993,0,0,1,2.1,6.65,1.92,1.92,0,0,1-1.27,2.09,2,2,0,0,1-2.42-.76,51.834,51.834,0,0,1-3.1-6.65,16.837,16.837,0,0,1,.59,3.41,1.65,1.65,0,0,1-.86,1.55,2,2,0,0,1-2-.07c-1.75-1.19-3.24-7-3.41-7.68-.67-2.79-2.22-8.23-2.82-9.77a14.659,14.659,0,0,1-.9-7.49l.06-.79a4.37,4.37,0,0,0-.24-1.83c-.62-1.54-2.31-4.81-10.39-18.12-6.64-10.95-8.23-19.81-8.41-20.93a151.756,151.756,0,0,1-8.22-15.28c-2.64,11.93-3,21-1.33,32,1.25,8.2,2.59,14.71,3.88,21,3.12,15.25,5.59,27.3,4.65,52.72-.36,9.73-2.26,19.32-3.79,27-1.06,5.34-1.9,9.56-1.84,12,.16,6.42.53,13.14.93,17.1.18,1.76.39,3.53.61,5.29a95.911,95.911,0,0,1,1,15.66c-.25,5.38-2,10.55-3.69,15.55-.49,1.45-1,2.9-1.43,4.35a109,109,0,0,0-3.51,16.15l-.33,2.12c-1.66,10.62-2.28,14.6,7.53,28.61l.31.44c1.21,1.71,3.06,4.29,2.38,6.51-.73,2.42-4.06,2.66-5.48,2.77-12.56.9-18.21,1-19.63-2.1a5.58,5.58,0,0,1-.14-4.13c1.8-5.35,1.79-11,1.78-16.36a84.268,84.268,0,0,1,.4-10.25l.17-1.38c.7-5.62.89-7.13-.75-16.1l-.34-1.83c-1-5.45-2-11.09-2.56-16.71a61.27,61.27,0,0,1,1.64-22.47,42.3,42.3,0,0,0,1.53-11.45c-.08-3.84-1.35-11-2.95-20-3.14-17.64-7.44-41.8-6.52-61.64a.69.69,0,0,0-.19-.51.67.67,0,0,0-.49-.21h-.91a.68.68,0,0,0-.5.22.66.66,0,0,0-.18.5c.79,13.55-3.07,37.79-6.18,57.27-1.73,10.85-3.22,20.21-3.32,24.34a42.678,42.678,0,0,0,1.54,11.45,61.271,61.271,0,0,1,1.64,22.47c-.52,5.62-1.56,11.24-2.56,16.69l-.34,1.85c-1.64,9-1.45,10.48-.75,16.1l.17,1.38a86.334,86.334,0,0,1,.4,10.25c0,5.42,0,11,1.78,16.36a5.58,5.58,0,0,1-.14,4.13C439.42,428.94,436.78,429.62,431.73,429.62Zm-12-260.86a.51.51,0,0,1,.5.37c4.09,13.61,3.67,20,2.83,32.73a188.38,188.38,0,0,1-4.29,28.26c-2.62,12.44-5.09,24.2-4.3,45.39.36,9.64,2.25,19.19,3.77,26.86,1.07,5.4,1.92,9.67,1.86,12.18-.17,6.45-.53,13.2-.94,17.19-.18,1.76-.39,3.53-.61,5.3a94.206,94.206,0,0,0-1,15.49c.24,5.24,2,10.34,3.63,15.27.5,1.45,1,2.91,1.44,4.37a108.05,108.05,0,0,1,3.55,16.3l.32,2.12c1.71,10.92,2.35,15-7.7,29.37l-.31.45c-1.1,1.54-2.76,3.87-2.24,5.6.47,1.53,2.57,1.88,4.56,2,12.23.87,17.53.86,18.62-1.49a4.54,4.54,0,0,0,.09-3.37c-1.85-5.51-1.84-11.19-1.83-16.69a83.859,83.859,0,0,0-.4-10.12l-.17-1.38c-.69-5.6-.9-7.3.77-16.42l.34-1.85c1-5.42,2-11,2.54-16.6A60.581,60.581,0,0,0,439.11,338a43.369,43.369,0,0,1-1.57-11.71c.1-4.2,1.6-13.59,3.33-24.47,3.1-19.43,7-43.61,6.17-57.05a1.75,1.75,0,0,1,.46-1.27,1.73,1.73,0,0,1,1.25-.55h.94a1.69,1.69,0,0,1,1.23.54,1.72,1.72,0,0,1,.47,1.26c-.92,19.73,3.37,43.83,6.5,61.42,1.61,9.05,2.88,16.2,3,20.12A43,43,0,0,1,459.3,338a60.36,60.36,0,0,0-1.61,22.14c.51,5.58,1.55,11.2,2.55,16.63l.33,1.82c1.67,9.13,1.46,10.82.76,16.42l-.17,1.38a83.844,83.844,0,0,0-.39,10.12c0,5.5,0,11.18-1.83,16.69a4.54,4.54,0,0,0,.09,3.37c1.09,2.35,6.38,2.37,18.62,1.49,2-.15,4.09-.5,4.56-2,.52-1.73-1.14-4.06-2.24-5.61l-.32-.44c-10-14.36-9.41-18.45-7.7-29.37l.33-2.12a112.159,112.159,0,0,1,3.54-16.3c.46-1.46.95-2.92,1.45-4.37,1.67-4.94,3.39-10,3.63-15.27a92.925,92.925,0,0,0-1-15.48c-.21-1.77-.42-3.54-.6-5.31-.41-4-.77-10.74-.94-17.19-.06-2.51.78-6.78,1.86-12.18,1.52-7.67,3.41-17.22,3.77-26.86.94-25.31-1.52-37.3-4.63-52.49-1.29-6.3-2.63-12.82-3.89-21.05-1.77-11.57-1.3-21.07,1.68-33.88a.55.55,0,0,1,.46-.4.54.54,0,0,1,.52.31A155.217,155.217,0,0,0,487,184.63a.54.54,0,0,1,.08.21c0,.09,1.33,9.19,8.29,20.65,7.67,12.63,9.73,16.45,10.47,18.28a5.829,5.829,0,0,1,.31,2.29,3.132,3.132,0,0,1-.07.8,13.79,13.79,0,0,0,.84,7c.61,1.57,2.18,7.08,2.86,9.9.59,2.34,1.91,6.34,3,7.07a1,1,0,0,0,.92,0,.61.61,0,0,0,.32-.61,24.1,24.1,0,0,0-1.23-5.48c-.18-.59-.31-1-.36-1.28-.3-1.53-.61-3.52-.61-3.54a.51.51,0,0,1,.36-.58.5.5,0,0,1,.62.28c0,.07.81,1.8,2.08,5.34a64.244,64.244,0,0,0,3.55,7.9,1,1,0,0,0,1.19.36.89.89,0,0,0,.61-1,64.726,64.726,0,0,0-2.61-7.91,24.489,24.489,0,0,0-.86-3,24.886,24.886,0,0,1-.84-2.91.522.522,0,0,1,1-.3c.77,2,2.74,5.75,2.76,5.79a45.18,45.18,0,0,0,4.9,9.35,1.07,1.07,0,0,0,1.42.21c.12-.06.66-.39.48-.89-.46-1.23-1.48-3.61-2.38-5.71-.63-1.46-1.2-2.81-1.51-3.59s-1.35-3-2.06-4.55-.73-1.59-.75-1.66a.51.51,0,0,1,.28-.62.52.52,0,0,1,.66.2c.54.88,2.65,4.46,3,5.13a41,41,0,0,0,5.09,6.81,1,1,0,0,0,1.3.13.83.83,0,0,0,.32-1.11,53.478,53.478,0,0,0-3.73-6.56c-.5-.8-.9-1.43-1.08-1.75a54.651,54.651,0,0,0-3.13-5.16,18.319,18.319,0,0,1-1.5-2.48,1.42,1.42,0,0,1,.15-1.42,1.37,1.37,0,0,1,1.27-.54,12.821,12.821,0,0,1,4.5,2c1.71,1.05,3.1,1.18,3.71.33a.24.24,0,0,0,0-.2c-.15-.85-2.3-2.31-3.87-3.37-.72-.49-1.4-1-1.94-1.37a23.63,23.63,0,0,0-5-2.63A21.07,21.07,0,0,1,515,222a3,3,0,0,1-.57-.63,7.661,7.661,0,0,1-1.07-2c-1.39-3.84-5.11-16.6-7.65-26.25-2-7.57-4.15-13.38-6.4-17.27a.871.871,0,0,1-.07-.17c-.17-1-.32-1.94-.48-3a104.2,104.2,0,0,0-3.66-16.16.509.509,0,0,1,0-.17c.44-18.37-4.53-23.84-8.31-26.36-3.07-2.06-6-2.91-9.43-3.9a66,66,0,0,1-17.43-7.43.54.54,0,0,1-.25-.39l-1.44-12.43h-18l-1.44,12.43a.54.54,0,0,1-.25.39,66,66,0,0,1-17.43,7.43c-3.41,1-6.36,1.84-9.44,3.9-3.77,2.52-8.74,8-8.31,26.36a.33.33,0,0,1,0,.17,104.2,104.2,0,0,0-3.66,16.16c-.16,1.06-.31,2-.49,3a.49.49,0,0,1-.06.17c-2.25,3.89-4.41,9.7-6.4,17.27-.92,3.5-6,22.36-8.11,27.43a4.47,4.47,0,0,1-1.31,1.83,21,21,0,0,1-4.77,2.49,24.19,24.19,0,0,0-5.05,2.63c-.54.42-1.22.88-1.94,1.37-1.57,1.07-3.72,2.53-3.86,3.37a.24.24,0,0,0,0,.21c.61.84,2,.72,3.72-.34a12.54,12.54,0,0,1,4.49-2,1.33,1.33,0,0,1,1.27.54,1.42,1.42,0,0,1,.16,1.41,30.381,30.381,0,0,1-1.62,2.82c-.84,1.36-1.88,3-3,5.19-.19.35-.63,1-1.18,1.83a43.428,43.428,0,0,0-3.63,6.11.85.85,0,0,0,.32,1.12,1,1,0,0,0,1.31-.14,40.352,40.352,0,0,0,5.08-6.81c.37-.68,2.14-3.66,2.66-4.51a.519.519,0,0,1,.94.42c-.2.66-.86,2.1-1.51,3.5-.4.85-.76,1.65-.94,2.1-.31.77-.89,2.11-1.51,3.56-.9,2.11-1.92,4.5-2.38,5.74-.19.5.36.83.47.89a1.09,1.09,0,0,0,1.42-.22,42.411,42.411,0,0,0,5.09-9.3c0-.06,1.5-3.36,2.27-5.33a.54.54,0,0,1,.64-.31.53.53,0,0,1,.36.61c-.23,1.09-.47,1.88-.69,2.65s-.46,1.54-.7,2.63c0,.15-2.39,6.19-2.63,8a.89.89,0,0,0,.61,1,1,1,0,0,0,1.19-.36,67.45,67.45,0,0,0,3.56-7.9c1.25-3.32,2.14-5.89,2.15-5.91a.51.51,0,0,1,.61-.34.53.53,0,0,1,.39.59s-.41,2.63-.7,4.17a7.18,7.18,0,0,1-.37,1.27,24.1,24.1,0,0,0-1.22,5.48.6.6,0,0,0,.31.61,1,1,0,0,0,.93,0c1.07-.73,2.4-4.72,3-7.07.68-2.81,2.25-8.32,2.87-9.9a13.88,13.88,0,0,0,.83-7c-.05-.52-.09-1-.1-1.52v-.22a6.069,6.069,0,0,1,.42-1.62c.72-1.82,2.77-5.63,10.5-18.35,7-11.49,8.62-20.79,8.64-20.88a.49.49,0,0,1,.08-.21,62.088,62.088,0,0,0,6-11.91c.49-1.22,1-2.37,1.44-3.43a.52.52,0,0,1,.42-.35Z" fill="#e8a96b"/>
          </g>
          <g id="Grupo_73853" data-name="Grupo 73853">
            <path id="Trazado_146767" data-name="Trazado 146767" d="M464.4,81.51c-.27-2.2-1.89-10.69-14.72-10.61H448.6c-12.83-.08-14.45,8.41-14.72,10.61-1.32,10.75.67,15.19,1.25,20.11.11.94.45,2.83.8,4.7a11.73,11.73,0,0,0,6.34,8.36,17.17,17.17,0,0,0,6.67,2h.4a17.31,17.31,0,0,0,6.67-2,11.7,11.7,0,0,0,6.34-8.36c.35-1.87.69-3.76.8-4.7C463.74,96.7,465.72,92.26,464.4,81.51Z" fill="#fcc992"/>
            <path id="Trazado_146768" data-name="Trazado 146768" d="M449.33,117.18h-.53a17.41,17.41,0,0,1-6.76-2,12.27,12.27,0,0,1-6.62-8.72c-.44-2.33-.71-3.93-.81-4.74-.14-1.2-.37-2.39-.61-3.64a46.729,46.729,0,0,1-.63-16.59c.41-3.36,2.69-11.15,15.24-11.07h1.27c12.34,0,14.63,7.73,15,11.07a46.931,46.931,0,0,1-.6,16.51c-.24,1.25-.47,2.44-.61,3.64-.1.83-.37,2.42-.81,4.74a12.28,12.28,0,0,1-6.62,8.73,17.42,17.42,0,0,1-6.76,2h-.12Zm-.19-1.05h.19a16.2,16.2,0,0,0,6.45-1.92,11.23,11.23,0,0,0,6.06-8c.43-2.27.7-3.88.8-4.67.14-1.24.38-2.45.62-3.72a45.06,45.06,0,0,0,.62-16.26c-.37-3.07-2.49-10.16-14-10.16h-1.45c-11.52,0-13.64,7.09-14,10.16A45.53,45.53,0,0,0,435,97.84c.25,1.27.48,2.48.63,3.72.09.79.36,2.36.79,4.67a11.23,11.23,0,0,0,6.06,8,16.2,16.2,0,0,0,6.45,1.92h.19Z" fill="#e8a96b"/>
          </g>
          <path id="Trazado_146769" data-name="Trazado 146769" d="M479.79,161.61s-.17.42-.37,1.07-.44,1.54-.64,2.43c-.43,1.78-.7,3.58-.7,3.58a.52.52,0,1,1-1.03-.15s.41-1.86,1-3.64c.27-.89.57-1.77.82-2.42s.45-1.08.45-1.08a.27.27,0,0,1,.37-.14A.28.28,0,0,1,479.79,161.61Z" fill="#e8a96b"/>
          <path id="Trazado_146770" data-name="Trazado 146770" d="M417.86,162.1s.2.42.45,1.06.56,1.5.83,2.37c.56,1.73,1,3.49,1,3.49a.53.53,0,0,1-.37.64.52.52,0,0,1-.64-.37s-.35-1.8-.78-3.55c-.21-.87-.45-1.73-.66-2.37s-.37-1.05-.37-1.05a.28.28,0,0,1,.15-.36.27.27,0,0,1,.35.13Z" fill="#e8a96b"/>
          <g id="Grupo_73854" data-name="Grupo 73854">
            <path id="Trazado_146771" data-name="Trazado 146771" d="M471.56,157.21a2.61,2.61,0,1,0-2.59,2.34,2.47,2.47,0,0,0,2.59-2.34Z" fill="#e8a96b"/>
            <path id="Trazado_146772" data-name="Trazado 146772" d="M431.91,157.21a2.61,2.61,0,1,0-2.59,2.34,2.47,2.47,0,0,0,2.59-2.34Z" fill="#e8a96b"/>
          </g>
          <g id="Grupo_75508" data-name="Grupo 75508" transform="translate(16.554 -578.453)">
            <g id="Grupo_75494" data-name="Grupo 75494" transform="translate(424.726 682.569)">
              <path id="Trazado_163242" data-name="Trazado 163242" d="M529.582,766.769c.244.153.322.382-.353.882.009-.008.017-.017.027-.027C529.584,767.27,529.342,766.619,529.582,766.769Z" transform="translate(-515.18 -766.747)" fill="#da634d"/>
              <path id="Trazado_163243" data-name="Trazado 163243" d="M452.728,771.656a4.262,4.262,0,0,1-.7-.483,5.225,5.225,0,0,0,3.575.446,4.663,4.663,0,0,1,2.6.164,3.558,3.558,0,0,0,2.756-.036,6.983,6.983,0,0,1,2.588-.179,3.967,3.967,0,0,0,2.4-.714,6.161,6.161,0,0,1-.723.629v0a3.963,3.963,0,0,1-2.485.808,5.5,5.5,0,0,0-2.026.519,3.284,3.284,0,0,1-2.469-.065,7.191,7.191,0,0,0-2.664-.505A5.046,5.046,0,0,1,452.728,771.656Z" transform="translate(-451.712 -770.124)" fill="#ff9769"/>
              <path id="Trazado_163244" data-name="Trazado 163244" d="M468.446,774.4a1.434,1.434,0,0,1-.136.388c-.472.946-2.052,2.092-4.544,1.777a4.394,4.394,0,0,0-1.706.113,7.049,7.049,0,0,1-5.721-1.618,2.446,2.446,0,0,1-.4-.489,5.046,5.046,0,0,0,2.859.586,7.188,7.188,0,0,1,2.664.505,3.283,3.283,0,0,0,2.469.065,5.5,5.5,0,0,1,2.027-.519A3.96,3.96,0,0,0,468.446,774.4Z" transform="translate(-454.926 -773.039)" fill="#da634d"/>
              <path id="Trazado_163245" data-name="Trazado 163245" d="M450.33,768.73c.226-.313.085.462.367.745C450.279,769.268,450.1,769.044,450.33,768.73Z" transform="translate(-450.231 -768.317)" fill="#da634d"/>
              <path id="Trazado_163246" data-name="Trazado 163246" d="M498.2,776.928c.709-.408,1.475-.395.561.139S497.283,777.455,498.2,776.928Z" transform="translate(-489.284 -774.883)" fill="#fff" opacity="0.24"/>
              <path id="Trazado_163247" data-name="Trazado 163247" d="M506.136,776.1c.265-.334.533-.291.339-.028S505.949,776.336,506.136,776.1Z" transform="translate(-496.148 -774.241)" fill="#fff" opacity="0.24"/>
              <path id="Trazado_163248" data-name="Trazado 163248" d="M474.57,775.441c.555-.13,1.063.032.346.2S473.855,775.609,474.57,775.441Z" transform="translate(-469.918 -773.856)" fill="#fff" opacity="0.24"/>
              <path id="Trazado_163249" data-name="Trazado 163249" d="M472.8,778.146a.151.151,0,0,1,.164.245,4.729,4.729,0,0,1-4.172,1.245,4.395,4.395,0,0,0-1.706.113,7.094,7.094,0,0,1-4.933-1.009.21.21,0,0,1,.152-.384c1.447.25,2.453-.016,3.783.423,1.719.569,2.425.527,3.534-.027C470.491,778.317,471.787,778.53,472.8,778.146Z" transform="translate(-459.952 -776.11)" fill="#ff9769"/>
              <path id="Trazado_163250" data-name="Trazado 163250" d="M505.81,780.816c.555-.13,1.063.032.346.2S505.1,780.984,505.81,780.816Z" transform="translate(-495.603 -778.276)" fill="#fff" opacity="0.24"/>
              <path id="Trazado_163251" data-name="Trazado 163251" d="M472.021,785.576a7.209,7.209,0,0,0,1.843.294,5.967,5.967,0,0,0,.927-.055,4.369,4.369,0,0,0,.455-.088c.147-.036.3-.088.457-.12a3.454,3.454,0,0,1,.955-.05c.319.021.626.09.933.115a6.161,6.161,0,0,0,.933.009,3.706,3.706,0,0,0,.92-.157,4.478,4.478,0,0,1-1.86.26c-.32-.009-.627-.081-.935-.094a3.354,3.354,0,0,0-.917.06c-.15.028-.3.076-.454.112a4.423,4.423,0,0,1-.469.084,4.965,4.965,0,0,1-.949.036A5.956,5.956,0,0,1,472.021,785.576Z" transform="translate(-468.146 -782.184)" fill="#f34f3d"/>
              <path id="Trazado_163252" data-name="Trazado 163252" d="M486.474,788.993a4.792,4.792,0,0,1,3.18-.1A8.251,8.251,0,0,0,486.474,788.993Z" transform="translate(-480.029 -784.769)" fill="#da634d"/>
              <path id="Trazado_163253" data-name="Trazado 163253" d="M491.462,773.759a1.793,1.793,0,0,1-2.2.1A2.917,2.917,0,0,0,491.462,773.759Z" transform="translate(-482.322 -772.512)" fill="#da634d"/>
            </g>
            <g id="Grupo_75495" data-name="Grupo 75495" transform="translate(428.601 667.016)">
              <path id="Trazado_163254" data-name="Trazado 163254" d="M472.021,751.672a4.764,4.764,0,0,0,7.933.04C477.886,750.535,472.021,751.672,472.021,751.672Z" transform="translate(-472.021 -741.394)" opacity="0.6" fill="url(#linear-gradient)" style="mix-blend-mode: multiply;isolation: isolate"/>
              <path id="Trazado_163255" data-name="Trazado 163255" d="M504.933,742.065l1.25-.246s.039-2.779-1.61-2.671S504.933,742.065,504.933,742.065Z" transform="translate(-498.249 -731.5)" fill="#f1a95c"/>
              <path id="Trazado_163256" data-name="Trazado 163256" d="M473.282,741.739l-1.26-.126s-.039-2.779,1.61-2.671S473.282,741.739,473.282,741.739Z" transform="translate(-472.021 -731.33)" fill="#f1a95c"/>
              <path id="Trazado_163257" data-name="Trazado 163257" d="M482.673,706.667c-1.685,1.686-5.245.948-6.233-.04a4.428,4.428,0,0,0-.078-2.589,29.366,29.366,0,0,1,1.551-6.694,1.591,1.591,0,0,1,3.074-.005,57.823,57.823,0,0,1,1.8,6.764A6.224,6.224,0,0,0,482.673,706.667Z" transform="translate(-475.589 -696.159)" fill="#e7ac6c"/>
              <path id="Trazado_163258" data-name="Trazado 163258" d="M479.954,753.994c-2.22,1.965-6.745,1.2-7.933-.04C472.021,753.954,477.25,754.555,479.954,753.994Z" transform="translate(-472.021 -743.676)" fill="#d79a58"/>
              <path id="Trazado_163259" data-name="Trazado 163259" d="M503.119,749.518c-.394.414-.112.714.214.428S503.352,749.274,503.119,749.518Z" transform="translate(-497.431 -739.965)" fill="#f0edfe"/>
            </g>
            <g id="Grupo_75504" data-name="Grupo 75504" transform="translate(420.889 665.831)">
              <g id="Grupo_75499" data-name="Grupo 75499" transform="translate(15.231)">
                <path id="Trazado_163260" data-name="Trazado 163260" d="M515.56,691.939a4.768,4.768,0,0,0-1.238,3.363l.271.072A5.932,5.932,0,0,1,515.56,691.939Z" transform="translate(-514.3 -691.505)" fill="#da634d"/>
                <path id="Trazado_163261" data-name="Trazado 163261" d="M515.951,692.658c.95-3.869,5.654-4.189,7.1-.946Z" transform="translate(-515.657 -689.497)" fill="url(#linear-gradient-2)" style="mix-blend-mode: multiply;isolation: isolate"/>
                <path id="Trazado_163262" data-name="Trazado 163262" d="M521.9,697.639a2.6,2.6,0,0,1-.476.834c-1.235,1.49-4.126,2-6.433.8-.155-.081-.309-.168-.458-.265-.037-.023-.072-.047-.109-.072a3.639,3.639,0,0,1,.212-.5C515.908,695.993,519.709,695.686,521.9,697.639Z" transform="translate(-514.403 -695.142)" fill="#f0edfe"/>
                <g id="Grupo_75498" data-name="Grupo 75498" transform="translate(0.022 1.221)">
                  <g id="Grupo_75497" data-name="Grupo 75497" clip-path="url(#clip-path)">
                    <g id="Grupo_75496" data-name="Grupo 75496" transform="translate(1.429 -0.75)">
                      <circle id="Elipse_4924" data-name="Elipse 4924" cx="1.831" cy="1.831" r="1.831" transform="translate(0 3.564) rotate(-76.718)" fill="#573127"/>
                      <path id="Trazado_163263" data-name="Trazado 163263" d="M532.046,700.957a.774.774,0,1,1-.774-.774A.774.774,0,0,1,532.046,700.957Z" transform="translate(-529.069 -698.754)" fill="#23031b"/>
                    </g>
                  </g>
                </g>
                <path id="Trazado_163265" data-name="Trazado 163265" d="M514.992,708.881a5.665,5.665,0,0,1-.567-.337,3.645,3.645,0,0,1,.212-.5C514.987,708.278,515.136,708.548,514.992,708.881Z" transform="translate(-514.403 -704.747)" fill="#da634d"/>
                <path id="Trazado_163266" data-name="Trazado 163266" d="M537.912,705.263c.092-.535.5-.5.415-.106S537.839,705.688,537.912,705.263Z" transform="translate(-533.706 -702.129)" fill="#fff"/>
                <path id="Trazado_163267" data-name="Trazado 163267" d="M521.9,697.639a2.6,2.6,0,0,1-.476.834c-1.827-2.253-5.519-1.541-6.891.539-.037-.023-.072-.047-.109-.072a3.639,3.639,0,0,1,.212-.5C515.908,695.993,519.709,695.686,521.9,697.639Z" transform="translate(-514.403 -695.142)" fill="#23031b" opacity="0.15" style="mix-blend-mode: multiply;isolation: isolate"/>
                <path id="Trazado_163268" data-name="Trazado 163268" d="M514.423,697.159c1.045-3.094,5.1-4.09,7.792-1.4l-.385.28c-3.337-3.03-6.936-.543-7.3,1.195Z" transform="translate(-514.401 -693.363)" fill="#23031b"/>
                <path id="Trazado_163269" data-name="Trazado 163269" d="M514.423,705.658a7.746,7.746,0,0,0,1.932.754,6.052,6.052,0,0,0,2.048.14,4.936,4.936,0,0,0,1.952-.6,3.943,3.943,0,0,0,1.476-1.418c-.085.151-.158.313-.259.456l-.236.318-.091.1a3.034,3.034,0,0,1-.388.359l-.208.165-.225.141a4.863,4.863,0,0,1-2,.657,5.868,5.868,0,0,1-2.1-.185l-.255-.07-.247-.092a4.033,4.033,0,0,1-.487-.2c-.155-.082-.318-.148-.466-.243S514.57,705.752,514.423,705.658Z" transform="translate(-514.401 -701.862)" fill="#da634d"/>
              </g>
              <g id="Grupo_75503" data-name="Grupo 75503">
                <path id="Trazado_163270" data-name="Trazado 163270" d="M465.505,691.939a4.768,4.768,0,0,1,1.238,3.363l-.271.072A5.932,5.932,0,0,0,465.505,691.939Z" transform="translate(-458.952 -691.505)" fill="#da634d"/>
                <path id="Trazado_163271" data-name="Trazado 163271" d="M438.119,692.658c-.95-3.869-5.654-4.189-7.1-.946Z" transform="translate(-430.599 -689.497)" fill="url(#linear-gradient-3)" style="mix-blend-mode: multiply;isolation: isolate"/>
                <path id="Trazado_163272" data-name="Trazado 163272" d="M430.429,697.639a2.6,2.6,0,0,0,.476.834c1.235,1.49,4.126,2,6.433.8.155-.081.309-.168.458-.265.037-.023.072-.047.109-.072a3.639,3.639,0,0,0-.212-.5C436.422,695.993,432.621,695.686,430.429,697.639Z" transform="translate(-430.113 -695.142)" fill="#f0edfe"/>
                <g id="Grupo_75502" data-name="Grupo 75502" transform="translate(0.315 1.221)">
                  <g id="Grupo_75501" data-name="Grupo 75501" clip-path="url(#clip-path-2)">
                    <g id="Grupo_75500" data-name="Grupo 75500" transform="translate(1.641 -0.75)">
                      <circle id="Elipse_4925" data-name="Elipse 4925" cx="1.831" cy="1.831" r="1.831" transform="translate(0 0.841) rotate(-13.282)" fill="#573127"/>
                      <path id="Trazado_163273" data-name="Trazado 163273" d="M447.689,700.957a.774.774,0,1,0,.774-.774A.774.774,0,0,0,447.689,700.957Z" transform="translate(-446.26 -698.754)" fill="#23031b"/>
                    </g>
                  </g>
                </g>
                <path id="Trazado_163275" data-name="Trazado 163275" d="M469.027,708.881a5.661,5.661,0,0,0,.567-.337,3.648,3.648,0,0,0-.212-.5C469.033,708.278,468.883,708.548,469.027,708.881Z" transform="translate(-461.803 -704.747)" fill="#da634d"/>
                <path id="Trazado_163276" data-name="Trazado 163276" d="M455.027,705.263c.091-.535.5-.5.414-.106S454.955,705.688,455.027,705.263Z" transform="translate(-450.33 -702.129)" fill="#fff"/>
                <path id="Trazado_163277" data-name="Trazado 163277" d="M430.429,697.639a2.6,2.6,0,0,0,.476.834c1.827-2.253,5.519-1.541,6.891.539.037-.023.072-.047.109-.072a3.639,3.639,0,0,0-.212-.5C436.422,695.993,432.621,695.686,430.429,697.639Z" transform="translate(-430.113 -695.142)" fill="#23031b" opacity="0.15" style="mix-blend-mode: multiply;isolation: isolate"/>
                <path id="Trazado_163278" data-name="Trazado 163278" d="M436.447,697.159c-1.045-3.094-5.1-4.09-7.792-1.4l.384.28c3.338-3.03,6.936-.543,7.3,1.195Z" transform="translate(-428.655 -693.363)" fill="#23031b"/>
                <path id="Trazado_163279" data-name="Trazado 163279" d="M438.224,705.658q-.22.141-.444.278c-.148.1-.311.161-.466.243a4.034,4.034,0,0,1-.487.2l-.247.092-.254.07a5.869,5.869,0,0,1-2.1.185,4.863,4.863,0,0,1-2-.657l-.225-.141-.208-.165a3.05,3.05,0,0,1-.388-.359l-.091-.1-.236-.318c-.1-.143-.174-.3-.259-.456a3.943,3.943,0,0,0,1.476,1.418,4.936,4.936,0,0,0,1.952.6,6.051,6.051,0,0,0,2.048-.14A7.746,7.746,0,0,0,438.224,705.658Z" transform="translate(-430.432 -701.862)" fill="#da634d"/>
              </g>
            </g>
            <g id="Grupo_75507" data-name="Grupo 75507" transform="translate(419.209 660.712)">
              <g id="Grupo_75505" data-name="Grupo 75505" transform="translate(14.978 0)">
                <path id="Trazado_163280" data-name="Trazado 163280" d="M514.858,665.7a10.327,10.327,0,0,0-2.522-1.781,24.582,24.582,0,0,0-6.691,1.348,14.1,14.1,0,0,0-1.393.567l-.82-3.057c.179-.014.144-.01.314-.026l.644,1.6v-1.311a.4.4,0,0,1,.351-.391,22.9,22.9,0,0,0,3.65-.716,10.477,10.477,0,0,0,2.9-1.221S514.286,663.311,514.858,665.7Z" transform="translate(-503.432 -660.712)"/>
                <path id="Trazado_163281" data-name="Trazado 163281" d="M524.334,665.7a10.327,10.327,0,0,0-2.522-1.781,24.582,24.582,0,0,0-6.691,1.348l-.163-1.751.527,1.16a9.842,9.842,0,0,1,2.383-2.739,10.477,10.477,0,0,0,2.9-1.221S523.762,663.311,524.334,665.7Z" transform="translate(-512.908 -660.712)"/>
              </g>
              <g id="Grupo_75506" data-name="Grupo 75506" transform="translate(0 0)">
                <path id="Trazado_163282" data-name="Trazado 163282" d="M430.635,662.774l-.82,3.057s-.321-.16-.911-.388a24.374,24.374,0,0,0-7.174-1.527s-.295.14-.719.4a9.63,9.63,0,0,0-1.8,1.381c.572-2.387,3.562-4.986,3.562-4.986a11.92,11.92,0,0,0,3.885,1.476,24.442,24.442,0,0,0,2.669.462.325.325,0,0,1,.084.021.39.39,0,0,1,.267.37v1.311l.644-1.6C430.491,662.763,430.456,662.76,430.635,662.774Z" transform="translate(-419.209 -660.712)"/>
                <path id="Trazado_163283" data-name="Trazado 163283" d="M437.237,670.555a24.376,24.376,0,0,0-7.174-1.527s-.295.14-.719.4a5.955,5.955,0,0,1,2.353-2.5,4.545,4.545,0,0,0-.788,1.455,8.772,8.772,0,0,1,4.08-1.084,24.447,24.447,0,0,0,2.669.461.327.327,0,0,1,.084.021A4.647,4.647,0,0,0,437.237,670.555Z" transform="translate(-427.542 -665.823)"/>
              </g>
            </g>
          </g>
        </g>
      </g>
    </g>
  </g>
</svg>
