<svg xmlns="http://www.w3.org/2000/svg" xmlns:xlink="http://www.w3.org/1999/xlink" width="980.83" height="883.69" viewBox="0 0 980.83 883.69">
  <defs>
    <radialGradient id="radial-gradient" cx="0.501" cy="0.501" r="0.44" gradientTransform="translate(-0.176) scale(1.352 1)" gradientUnits="objectBoundingBox">
      <stop offset="0.2" stop-color="#e1795c"/>
      <stop offset="0.53" stop-color="#e0765b"/>
      <stop offset="0.78" stop-color="#df6c58"/>
      <stop offset="1" stop-color="#dc5d54"/>
    </radialGradient>
    <radialGradient id="radial-gradient-2" cx="0.499" cy="0.499" r="0.607" gradientTransform="translate(0.142) scale(0.716 1)" xlink:href="#radial-gradient"/>
    <radialGradient id="radial-gradient-3" cx="0.499" cy="0.496" r="0.59" gradientTransform="translate(0.125) scale(0.749 1)" xlink:href="#radial-gradient"/>
    <radialGradient id="radial-gradient-4" cx="0.499" cy="0.501" r="0.44" xlink:href="#radial-gradient"/>
    <radialGradient id="radial-gradient-5" cx="0.499" cy="0.499" r="0.607" gradientTransform="translate(0.142) scale(0.717 1)" xlink:href="#radial-gradient"/>
    <radialGradient id="radial-gradient-6" cx="0.5" cy="0.496" r="0.59" gradientTransform="translate(0.125) scale(0.749 1)" xlink:href="#radial-gradient"/>
    <linearGradient id="linear-gradient" x1="0.184" y1="0.5" x2="0.87" y2="0.5" gradientUnits="objectBoundingBox">
      <stop offset="0" stop-color="#7e5ee3"/>
      <stop offset="0.08" stop-color="#8769e4"/>
      <stop offset="0.31" stop-color="#9c85e5"/>
      <stop offset="0.45" stop-color="#a48fe6"/>
      <stop offset="0.49" stop-color="#a18be6"/>
      <stop offset="1" stop-color="#7e5ee3"/>
    </linearGradient>
    <radialGradient id="radial-gradient-7" cx="0.5" cy="0.5" r="0.5" gradientTransform="translate(0.001)" xlink:href="#radial-gradient"/>
  </defs>
  <g id="Capa_2" data-name="Capa 2" transform="translate(0 -0.35)">
    <g id="Grupo_74552" data-name="Grupo 74552">
      <path id="Trazado_158947" data-name="Trazado 158947" d="M366,492.08c-3.24-2.27-7.18-4.7-14.1-13.1a38.209,38.209,0,0,0-15.91-10.86,14,14,0,0,1-3.21-1.5c-2-1.42-2.32-4.35-2.86-6.57s-1-4.42-1.55-6.59c-1.19-4.4-2.26-11.38-2.26-23.07,0-27.68-5.69-51.57-8.72-58s-4.94-11.38-8.47-37.55,3.28-21.87,0-53.47-27.56-37.17-38.44-39.7S237.31,230,233,226.67c-2.12-1.62-2.45-9.87-2.25-17.81,3.32-5.1,5-11.83,6.25-17.71.52.66,1.61,1.89,2.6,2,1.35.1,3.33-4.16,3.95-6.45s1.46-10.1.52-13-3.12-.63-3.85.52a4,4,0,0,1-1.39,1.13c.2-3.85.39-7.7.95-11.53a45.24,45.24,0,0,0-2-22.06c-5.39-15.35-26.44-16.42-29.36-16.49h0c-2.92.07-24,1.14-29.36,16.49a45.36,45.36,0,0,0-2,22.06c.56,3.83.76,7.68,1,11.53a4.1,4.1,0,0,1-1.4-1.13c-.72-1.15-2.91-3.44-3.85-.52s-.1,10.72.52,13,2.61,6.55,4,6.45c1-.08,2.07-1.31,2.6-2,1.2,5.88,2.93,12.61,6.24,17.71.21,7.94-.13,16.19-2.25,17.81-4.3,3.29-26.55,12.45-37.42,15s-35.14,8.09-38.43,39.7,3.54,27.3,0,53.47-5.43,31.1-8.47,37.55-8.72,30.34-8.72,58c0,11.69-1.08,18.67-2.27,23.07-.59,2.17-1,4.4-1.54,6.59s-.88,5.15-2.86,6.57a14,14,0,0,1-3.21,1.5A38.6,38.6,0,0,0,65.08,479c-6.91,8.4-10.85,10.83-14.1,13.1s-2.18,8,5.23,6.34,12.31-11.08,14.14-10.53-2,14.48-3.55,19.18-3,10.34-4,13.21-2.05,8.17.12,11.1,5.27-.85,7.41-8.4,6.55-21,6.55-21-2.43,11.38-4.22,18.28-6.41,15.7-2.46,19c2.08,1.75,4.54-.47,5.92-3.8s3.12-9,3.24-9.52c1.31-5.63,5.16-21.1,5.16-21.1s-2.49,13-4,19.12c-.82,3.44-2.73,7.91-2.72,10.69a2.94,2.94,0,0,0,4,3c2-.61,3.85-5.2,5.05-10.06s3.06-14,4.18-18.31c.42-1.61,1.13-3.21,1.08-2-.1,2.63-2.15,9.82-2.81,13.41-.84,4.56-.69,7.78,1.46,8,1.35.17,2.53-.17,3.69-2.17,1.32-2.29,2.64-8.33,3.58-12.59,1.54-6.91,3.66-13.27,4.55-19.48s2.17-18.89,3.13-23,2.91-9.58,2.91-9.58h-.13c3.76-11.68,12.85-39.74,18.75-56.83,7.58-22,4.93-29.58,6.06-39.06.74-6.15,7.23-21.56,11.9-38.05,7.07,14.82,14.34,36.63,10,58.15-7.65,37.81-5.26,26.8-7.65,37.81-2.64,12.13-5.31,24-6.51,36.45-2.68,27.73-4.76,55.81-.36,83.25,1.61,10,7.43,68,7.06,70-1.37,7.55-5.83,23.35-7.55,32.27s-.84,22.32-.16,46.7,3.78,43.26,4.81,56.65c.88,11.49-.8,40.88-1.3,49a16.3,16.3,0,0,1-.8,4.15,78.834,78.834,0,0,1-4.4,10.62c-3.34,6.43-11,18.5-13.62,21.07s-6.71,8.77-2.82,10.54c1.36.62,2,0,2,0-.51,2,.38,4.16,1.61,4.76a4.8,4.8,0,0,0,2.25.35c.11,1.57,1.92,4.53,5.78,3.47,0,0,1,3.44,4,3.6a6.681,6.681,0,0,0,2.88-.36c.84-.33,1.77-1.3,2.79-3.69,0,0-.77,3.08,3,4.56s8.29-.26,10.6-5.14,2.06-5.78,4-10,1-15.29,2.44-19.79,5.52-6,5.91-9.76a51,51,0,0,0-.2-10.54c.09,0,.27-16.81.27-16.81l.48-7.49a279.621,279.621,0,0,1,4.36-34.48c3.65-19.13,8.73-50.82,10.26-70,2.06-25.75,4.47-47.38,5.84-51.5.06-.18.15-.45.25-.77a246.553,246.553,0,0,0,10.61-48.45c.59-5.2,1.13-10.95,1.56-17.11,1.86-27.08,1-41.82,5.86-42.53,4.84.71,4,15.45,5.86,42.53.43,6.16,1,11.91,1.56,17.11A247.252,247.252,0,0,0,226.49,621c.11.32.19.59.26.77,1.37,4.12,3.77,25.75,5.83,51.5,1.54,19.22,6.61,50.91,10.27,70a281.551,281.551,0,0,1,4.35,34.48l.49,7.49s.18,16.78.27,16.81a51,51,0,0,0-.2,10.54c.38,3.72,4.49,5.26,5.91,9.76s.51,15.55,2.44,19.79,1.67,5.14,4,10,6.81,6.62,10.6,5.14,3-4.56,3-4.56c1,2.39,1.94,3.36,2.79,3.69a6.681,6.681,0,0,0,2.88.36c3-.16,4-3.6,4-3.6a4.31,4.31,0,0,0,5.78-3.47,4.81,4.81,0,0,0,2.25-.35c1.23-.6,2.12-2.73,1.61-4.76a1.964,1.964,0,0,0,2.05,0c3.89-1.77-.26-8-2.83-10.54s-10.3-14.62-13.65-21.05a80,80,0,0,1-4.42-10.74,15.879,15.879,0,0,1-.8-4.15c-.5-8.09-2.19-37.48-1.3-49,1-13.39,4.12-32.28,4.8-56.65s1.56-37.77-.15-46.7-6.18-24.72-7.56-32.27c-.36-2,5.46-60,7.07-70,4.4-27.44,2.31-55.52-.36-83.25-1.2-12.41-3.87-24.32-6.51-36.45-2.39-11,0,0-7.66-37.81-4.35-21.52,2.92-43.33,10-58.15,4.67,16.49,11.15,31.9,11.89,38.05,1.14,9.48-1.52,17.07,6.07,39.06,5.89,17.09,15,45.15,18.75,56.83h-.13a88.848,88.848,0,0,1,2.91,9.58c.91,4.16,2.24,16.84,3.13,23s3,12.57,4.54,19.48c.95,4.26,2.26,10.3,3.59,12.59,1.16,2,2.34,2.34,3.69,2.17,2.14-.26,2.3-3.48,1.46-8-.67-3.59-2.71-10.78-2.81-13.41,0-1.21.66.39,1.08,2,1.11,4.27,3,13.33,4.18,18.31s3,9.45,5,10.06a3,3,0,0,0,4-3c0-2.78-1.91-7.25-2.72-10.69-1.46-6.15-3.95-19.12-3.95-19.12s3.85,15.47,5.15,21.1c.13.54,1.85,6.15,3.25,9.52s3.84,5.55,5.92,3.8c3.95-3.32-.68-12.13-2.47-19s-4.21-18.28-4.21-18.28,4.4,13.49,6.54,21,5.24,11.34,7.41,8.4,1.1-8.23.13-11.1-2.46-8.51-4-13.21-5.38-18.62-3.55-19.18,6.72,8.84,14.13,10.53S369.2,494.34,366,492.08Z" fill="#fcd7c8"/>
      <path id="Trazado_158948" data-name="Trazado 158948" d="M148.56,803.06c-2.13,6.47-3.28,14-7.66,19.84A83.85,83.85,0,0,1,124.66,839c6.19-3.23,13.62-8.8,17.51-14.55a48.442,48.442,0,0,0,6.39-14.71Z" fill="#a48fe6"/>
      <path id="Trazado_158949" data-name="Trazado 158949" d="M151.72,820.56a2,2,0,0,0,.16-1.66,138.826,138.826,0,0,1-13.16,13.42c-4.89,4.21-7.28,7-13.28,10.86,5.43-2.29,7.25-4.4,11.62-7.51C143,831.48,149,826.92,151.72,820.56Z" fill="#a48fe6"/>
      <path id="Trazado_158950" data-name="Trazado 158950" d="M154.43,821.11c-1.26-.08-1.5,0-2.11,1.08-2.34,3.91-4,5.68-7.45,9.67-1.32,1.54-6.46,6.12-7.89,7.58s-2.78,2.66-4.21,4l-4.13,3.75a92.069,92.069,0,0,0,22.49-19.64C152.7,825.6,154.23,823.51,154.43,821.11Z" fill="#a48fe6"/>
      <path id="Trazado_158951" data-name="Trazado 158951" d="M148.51,836.44a54.161,54.161,0,0,0,5.72-13.13c.3-1.08,2.88-9.33,2.88-9.33-.82-.1-1.88,3.19-2.32,3.83a44.93,44.93,0,0,0-2.06,5.1c-2.82,9.54-10.54,22-16.32,30C142.91,847.15,147.59,838,148.51,836.44Z" fill="#a48fe6"/>
      <path id="Trazado_158952" data-name="Trazado 158952" d="M152.56,823.84c.24,2,.67,4.25.69,5.6a54.589,54.589,0,0,1-.92,9.55c-1.05,4.3-2.88,10.27-5.49,14.66,3.35-2.7,6.16-11.26,6.94-15.29,1.71-8.88.95-13.86-.06-16.17a14.4,14.4,0,0,1-1.16,1.65Z" fill="#a48fe6"/>
      <path id="Trazado_158953" data-name="Trazado 158953" d="M149,825.21c4.07-4.9,5.57-10.67,6.67-16.74,1.83-10.08,2.9-19,1-29.1-.91-4.83-1.88-10.92-3.26-15.66-7.1-24.39-4.85-50-2.55-75,2-22.09,4.2-47.27,6.23-69.37-3,9.59-4,22.72-4.93,32.68l-3.78,42.73c-1.56,17.61-3.12,35.36-.73,53,2.16,15.86,7.52,31.45,7.75,47.4a72.209,72.209,0,0,1-6.4,30.06Z" fill="#b6a5eb"/>
      <path id="Trazado_158954" data-name="Trazado 158954" d="M161,647.49q-1.51,3.78-3.05,7.56c-1.92,4.74-3.87,9.69-3.54,14.8.26,4.12,2.66,11.73,8.69,18.93.72.87-1-2.89,0-2.73-4.37-8.66-5.4-9.54-6-13.37a39.56,39.56,0,0,1,.85-13.8Q159.33,653.15,161,647.49Z" fill="#a48fe6"/>
      <path id="Trazado_158955" data-name="Trazado 158955" d="M162.31,713.73c-.93-6.11-3-12-4.68-17.94a220.818,220.818,0,0,1-5.8-26.7,30.459,30.459,0,0,0-.45,7.32c.35,7.16,1.32,12.06,4.73,21.19,5.15,13.8,6.74,22.31,5.06,29.95C163.36,723.92,162.94,717.93,162.31,713.73Z" fill="#a48fe6"/>
      <path id="Trazado_158956" data-name="Trazado 158956" d="M168.33,718c-2.11-25.38,1.24-39,.71-52.73-.74-19.14-3.32-26.14-5.76-45.85-.47,17.11,3.29,30.06,3.77,46.69S164,701.89,168.33,718Z" fill="#b6a5eb"/>
      <path id="Trazado_158957" data-name="Trazado 158957" d="M156.65,808.48c-1.73,5.84-2.76,11.31-5.69,16.73,6.93-8.18,7.84-17.85,9.93-28a115.4,115.4,0,0,0,1.74-14.6q.9-12.39,1.5-24.88a818.975,818.975,0,0,0-.39-89.61c-.6-9.53-2.31-27.6-6.59-36,6,28.46,5.19,67.52,4.83,96.39q-.16,14.26-.75,28.52-.69,17-2,34C158.83,796.9,158.33,802.81,156.65,808.48Z" fill="#b6a5eb"/>
      <path id="Trazado_158958" data-name="Trazado 158958" d="M155.25,664.7c-1.65,6.06-8.08,15-10.29,20.9s-3.53,12.4-1.57,18.4c.71-2.91.54-6,1.09-8.9.87-4.69,3.47-8.85,5.48-13.18S156.8,669.22,155.25,664.7Z" fill="#a48fe6"/>
      <path id="Trazado_158959" data-name="Trazado 158959" d="M157.36,708.66a58.462,58.462,0,0,0,1.47-6.75c-.26-.44-.49-.89-.71-1.36A74.9,74.9,0,0,0,159.4,757c-3.85-15.1-4-15.71-4.15-23.91C155,722.85,155.43,716.5,157.36,708.66Z" fill="#a48fe6"/>
      <path id="Trazado_158960" data-name="Trazado 158960" d="M163.39,718c-4.78,10.54-7.6,16.24-8.73,31.23-.62,8.31-.34,12.12-4.07,26.9a96.728,96.728,0,0,0-2.41,14.26c-.63,6.36.15,12.79,0,19.19s-.27,13-4.16,18.32c2.21-2.94,2-.48,2.94-2.65,2.46-5.64,2.86-12,2.46-17.93a131.15,131.15,0,0,1,.66-18c1.29-10.89,3.32-14.56,4.69-20.83,2.36-10.85.74-21.62,3.42-32.4,1.18-4.73,3.26-9.28,5.15-13.85Z" fill="#a48fe6"/>
      <path id="Trazado_158961" data-name="Trazado 158961" d="M162.88,650.53c-1.16,6.55-1.58,13.33-4.15,19.46,4.2-5.13,5.14-12.08,6.52-18.56a109.261,109.261,0,0,1,9.64-27.11c1.85-3.62,4-7.26,4.45-11.3a86.94,86.94,0,0,0-16.46,37.51Z" fill="#b6a5eb"/>
      <path id="Trazado_158962" data-name="Trazado 158962" d="M157.09,646c3.7-8.61,1.9-18.43.77-27.72a138.892,138.892,0,0,1-.41-31.83c.49-4.43,1.17-9.22-1-13.1a222.741,222.741,0,0,0,.2,54.55C157.37,633.88,158.38,640,157.09,646Z" fill="#b6a5eb"/>
      <path id="Trazado_158963" data-name="Trazado 158963" d="M188.05,603.42c-.45,3.5-1.22,7-2,10.39,6.27-15.72,6.52-33.54,1.9-49.82C186.87,577.11,189.73,590.37,188.05,603.42Z" fill="#b6a5eb"/>
      <path id="Trazado_158964" data-name="Trazado 158964" d="M146.83,532.78a15.54,15.54,0,0,1-.54-3.42c-.06-1.68-.16-3.36-.26-5a108.479,108.479,0,0,0,.85,45.17C145.79,551.74,146.09,541.88,146.83,532.78Z" fill="#b6a5eb"/>
      <path id="Trazado_158965" data-name="Trazado 158965" d="M202.43,421.71c2-1.1,4.48-2.69,4.21-5a75.22,75.22,0,0,0-44.57,50.64c-3.41,13.42-3,27.48-2.53,41.32q1.74,54.12,3.49,108.25a64.8,64.8,0,0,0,1.46,13.91q2.41-47.1,1-94.31c-.21-7.06-.49-14.12-1.3-21.13s-2.17-14.15-2.54-21.28C160.12,464.92,176.68,435.54,202.43,421.71Z" fill="#b6a5eb"/>
      <path id="Trazado_158966" data-name="Trazado 158966" d="M188.69,448.35c2.47-2.72,6.91-8,9.85-10.23s9.59-6.1,9.65-9.77c-10.42,4.19-22.83,18-28.24,27.86a110,110,0,0,0-10.29,26.18c-7.67,30.72-1.38,63.1,6.72,93.71,2.14,8.08,4.42,16.22,4.67,24.58,3.56-15.84-2.33-32-6-47.85-2.18-9.46-3.56-19.07-4.81-28.69A121.581,121.581,0,0,1,169,509c-.1-18.37,7.53-35.8,15-52.58a30.129,30.129,0,0,1,4.69-8.07Z" fill="#b6a5eb"/>
      <path id="Trazado_158967" data-name="Trazado 158967" d="M206.64,450.7c.66-.68,1-2.17.1-2.23a61.63,61.63,0,0,0-23.64,37.67,121.13,121.13,0,0,0-1.58,15Q179.24,537,177,572.86a157.508,157.508,0,0,0-.47,16.4c.47,11.82,3.6,23.61,2.21,35.36,5.93-15.12-.08-32.11.7-48.34.34-7.17,2-14.2,2.88-21.32.57-4.74.78-9.51,1-14.27q1.11-25.76,2.21-51.49c.19-4.49.39-9,1.72-13.34C190.33,465.62,199.21,458.42,206.64,450.7Z" fill="#b6a5eb"/>
      <path id="Trazado_158968" data-name="Trazado 158968" d="M207.3,455.09c-7.84,6.07-12.17,15.66-14.9,25.22-8.55,30-4,62.12-6.72,93.25a199.491,199.491,0,0,1-16.13,62.93c1.88-6.81,5.34-13,8.25-19.49,8.81-19.48,9.72-41.48,11.32-62.81s-.38-30.77,1.89-52c1.47-13.69,3.87-26.73,8-32.92C202,464.59,207.1,460.66,207.3,455.09Z" fill="#b6a5eb"/>
      <path id="Trazado_158969" data-name="Trazado 158969" d="M176.23,666.61c-.16-4.42-.95-8.79-1.13-13.2-.28-6.85,1.82-13.59,2.31-20.43.14-2-.67-9.41-1.9-11.7-.41-.77-1.1,1.8-1.1,1.8,3,10.8-1.78,22.48-1.11,30.88,1,12.24,2.8,27.09-3.75,39.85C174.79,685.84,176.58,676.14,176.23,666.61Z" fill="#b6a5eb"/>
      <path id="Trazado_158970" data-name="Trazado 158970" d="M172,627.81a1.5,1.5,0,0,0,0-.22,14.18,14.18,0,0,1-2.65,4.37c1.32,17.42-1.92,35.18-1.85,52.79.08,21.55,5.1,44-2.9,64.06,5.08-8.1,6.52-18,6.4-27.58s-1.68-19.07-2.05-28.63C168,671,173.18,649.41,172,627.81Z" fill="#b6a5eb"/>
      <path id="Trazado_158971" data-name="Trazado 158971" d="M152,489.35c1.8-8.11,5-19.47,8.53-27,4.86-10.26,11.77-27.12,22.89-38.35,5.29-5.34,16.08-15.66,25.51-20.75a17.579,17.579,0,0,1,.12-3.77c-20.08,8.1-36.54,29.64-45.93,49.13-10.46,21.7-17.21,45.42-17.65,69.51-.62,35,11.28,68.35,29.58,100.35,4.07,7.13,5.67,14.81,5.92,23,3.3-7.46,1-16.28-2.88-23.44s-19-36.78-20.78-45.2c-1.36-6.47-9.55-36-8.67-58.86A135.5,135.5,0,0,1,152,489.35Z" fill="#b6a5eb"/>
      <path id="Trazado_158972" data-name="Trazado 158972" d="M165.1,502.24c-1.86-4.43-3.74-8.91-4.37-13.61-.79-6,.48-12,2.08-17.8,3.19-11.58,7.84-23,15.37-32.77,2.95-3.82,6.33-7.4,8.84-11.47,3.17-5.16,4.86-10.94,6.34-16.69,1.94-7.49,4.36-13.35,5.74-20.94,1.25-6.9,11.84-19.33,12.41-20.27s.87-4.52-.31-4.67c-6.07,6.61-11.86,14-15,22.15-2.1,5.38-5.23,20.45-6.81,26-3.69,12.86-13.29,20.53-19.49,32.56-6.75,13.13-9.65,21-11.05,35.44-.62,6.5-.66,13.11,1,19.46,1.43,5.41,5.59,10.74,7.88,15.9,3.55,8,6.86,15.07,6.74,24.5,3.72-5.51,1.26-12.61-1.28-18.65Z" fill="#b6a5eb"/>
      <path id="Trazado_158973" data-name="Trazado 158973" d="M180.11,388.05a136.489,136.489,0,0,0,12.24-11.57c2.25-2.31,4.55-4.68,5.94-7.59a59.829,59.829,0,0,1,6.06-9.92c1.28-1.62,3.09-2.78,4.26-4.49s1.37-4.41-.35-5.56a55.68,55.68,0,0,0-10.41,13.85c-1.8,3.4-5.29,7.48-7.45,10.66-4.69,6.87-12.2,11.14-18.82,16.17s-12.92,11.88-13.16,20.19c2.22-5.48,5.22-7.94,8.56-11.3C170.93,394.52,175.74,391.54,180.11,388.05Z" fill="#b6a5eb"/>
      <path id="Trazado_158974" data-name="Trazado 158974" d="M209.18,348.54A74.34,74.34,0,0,0,186.79,368c-1.89,2.47-3.69,5.27-3.65,8.37,0,0,5.21-5.43,8-8.55,2.19-2.43,12.81-9.92,14.68-11.93a11.05,11.05,0,0,0,3.36-7.35Z" fill="#b6a5eb"/>
      <path id="Trazado_158975" data-name="Trazado 158975" d="M205.91,374.57c-6.76,3.77-16.88,11.93-23,16.27-5.69,4.05-8.25,9-10.14,16.74-.95,3.89-2,7.54-7.15,12,2.17-.56,6.21-3,7-5.1a60.058,60.058,0,0,0,2.54-7.06A25.41,25.41,0,0,1,182.29,395c2.89-2.79,21.05-14.81,23.55-16.61l.07-.06Z" fill="#b6a5eb"/>
      <path id="Trazado_158976" data-name="Trazado 158976" d="M191,399.86c2.18-1.07,6.46-4.63,8.24-6.28,5.36-5,7.62-7.45,7.62-7.45a7.24,7.24,0,0,1,1.58-3.67c-6,4.29-14.66,12.24-20.69,16.53a24.839,24.839,0,0,0-5.92,5.26,12.38,12.38,0,0,0-2.35,7.19C181.31,404.12,188.55,401.07,191,399.86Z" fill="#b6a5eb"/>
      <path id="Trazado_158977" data-name="Trazado 158977" d="M114.75,392.41a14.78,14.78,0,0,1,.55-3.75c-4.45,3.7-9.13,7.7-12.82,10.33a24.841,24.841,0,0,0-5.92,5.26,12.39,12.39,0,0,0-2.36,7.19c1.84-7.32,9.07-10.37,11.53-11.58,2.17-1.07,6.46-4.63,8.24-6.28l.82-.77C114.79,392.68,114.75,392.54,114.75,392.41Z" fill="#b6a5eb"/>
      <path id="Trazado_158978" data-name="Trazado 158978" d="M201.41,419.77A16.811,16.811,0,0,0,205.8,417c1.2-1.25,1.78-3.34.74-4.72-6.2,1.81-11.51,6-15.62,10.94s-7.11,10.76-9.82,16.61c-8.66,18.7-14.79,39.17-13.1,59.65.67,8.29,2.59,16.56,1.82,24.84,5.17-17-.47-35.59,3.64-52.84a96,96,0,0,1,5.38-15l5.6-13.2C188.25,434.23,192.7,424.46,201.41,419.77Z" fill="#b6a5eb"/>
      <path id="Trazado_158979" data-name="Trazado 158979" d="M197.93,489.41a66.31,66.31,0,0,1,2.23-14.86c1.91-6.19,3.86-12.48,7.46-17.86,1.28,2.62.91,5.77,0,8.53s-2.42,5.32-3.37,8.08a68,68,0,0,0-2.8,11.85c-1,8.59-1,15.46,1.36,23.79C198.61,503.14,197.47,496.54,197.93,489.41Z" fill="#b6a5eb"/>
      <path id="Trazado_158980" data-name="Trazado 158980" d="M193.16,501.59c-1.22-8.3-.15-16.8,1.9-24.93,2.24-8.86,6.14-18,14-22.73,0,0-3.45,6.41-6.35,11.29-7.77,13.08-10.11,34.07-4.2,48.09C195.2,510.41,193.8,505.93,193.16,501.59Z" fill="#b6a5eb"/>
      <path id="Trazado_158981" data-name="Trazado 158981" d="M186.83,471.12c-.57,4-.23,8.58,2.59,11.52a51.82,51.82,0,0,1-.74-11.45c.31-3.82,2.28-7.16,4.14-10.5,4.36-7.81,14.63-16.6,14.28-17.3s-1.49-1-1.93-.35l-5.44,5.41a67.323,67.323,0,0,0-6.4,7A33.94,33.94,0,0,0,186.83,471.12Z" fill="#b6a5eb"/>
      <path id="Trazado_158982" data-name="Trazado 158982" d="M184.36,461c-5.62,9.31-8.78,21-4.86,31.11,0,0,0-9.35.64-14.08.9-6.89,5-13,9-19C196.1,448.47,211,435,209,433.12l-3.69,2.25S190,451.72,184.36,461Z" fill="#b6a5eb"/>
      <path id="Trazado_158983" data-name="Trazado 158983" d="M205.88,425.12c0,1.42.11-2.84.17-4.26-.52-.49-1.36-.11-2,.3-9.52,6.59-16.57,19.27-16.72,30.86,0,0,3.53-11,4.47-12.77C196.72,430,205.91,424.35,205.88,425.12Z" fill="#b6a5eb"/>
      <path id="Trazado_158984" data-name="Trazado 158984" d="M197.23,348.12c-3.58,2.4-7.53,4.28-10.83,7.06s-6,6.78-5.74,11.09c3.93-4.83,7.94-9.74,13.08-13.27,3.39-2.32,7.21-4,10.4-6.6s5.77-6.46,5.32-10.54A44.33,44.33,0,0,1,197.23,348.12Z" fill="#b6a5eb"/>
      <path id="Trazado_158985" data-name="Trazado 158985" d="M200.3,338.24a72.638,72.638,0,0,0,6.18-4.39,11.061,11.061,0,0,0,2.86-3.05,6.07,6.07,0,0,0,.63-4.09c-3.25,5.08-8.65,8.33-14,11s-11.05,5.09-15.55,9.1-7.69,10.13-6.37,16c1.71-5.91,6-10.79,10.8-14.59S195.13,341.56,200.3,338.24Z" fill="#b6a5eb"/>
      <path id="Trazado_158986" data-name="Trazado 158986" d="M164,355.85c4.84-8.61,13.36-14.4,21.58-19.87l17.69-11.79c2.67-1.78,5.63-4.07,5.67-7.28-13.5,7.44-27.19,15-38.07,25.94C167.31,346.42,163.9,350.81,164,355.85Z" fill="#b6a5eb"/>
      <path id="Trazado_158987" data-name="Trazado 158987" d="M194.29,314.74c-7.12,3.8-14.87,6.44-21.57,10.94s-12.46,11.48-12.65,19.55c8.8-15.36,25.29-24.5,41.46-31.69a21.759,21.759,0,0,0,6.29-3.68c1.78-1.67,3-4.2,2.38-6.57A73.921,73.921,0,0,1,194.29,314.74Z" fill="#b6a5eb"/>
      <path id="Trazado_158988" data-name="Trazado 158988" d="M200.72,304a56.622,56.622,0,0,0,5.57-4.34c2.2-1.86,4.61-4.89,3-7.28-7.69,8.13-18.41,12.51-28.36,17.62s-20,11.84-24.17,22.23a122.54,122.54,0,0,1,34.33-23.42,72.44,72.44,0,0,0,9.63-4.81Z" fill="#b6a5eb"/>
      <path id="Trazado_158989" data-name="Trazado 158989" d="M155.84,321.76c13.46-13.51,32.53-19.38,49.32-28.42a10.18,10.18,0,0,0,2.7-1.87,5.45,5.45,0,0,0,1.09-5.55c-13.81,11.16-32.24,15.23-46.28,26.1C159.45,314.52,156.3,317.71,155.84,321.76Z" fill="#b6a5eb"/>
      <path id="Trazado_158990" data-name="Trazado 158990" d="M210.51,278.28l-1.73-.57c-13.87,11.85-33.12,15-48.86,24.22-2.86,1.68-5.9,4.05-6,7.37,15.22-10.59,33.82-15.13,50-24.2C206.72,283.5,209.73,281.45,210.51,278.28Z" fill="#b6a5eb"/>
      <path id="Trazado_158991" data-name="Trazado 158991" d="M199.42,277.55c4.3-1.38,9.21-3.2,10.67-7.47-15.11,9.1-33.36,11.61-48.93,19.91-2.82,1.5-5.77,3.49-6.54,6.59a272.926,272.926,0,0,1,44.8-19.03Z" fill="#b6a5eb"/>
      <path id="Trazado_158992" data-name="Trazado 158992" d="M202.22,266.84c1.58-.71,3.17-1.42,4.7-2.24a5.33,5.33,0,0,0,1.84-1.41,2.92,2.92,0,0,0,.37-2.81c-7.87,4.38-16.8,6.42-25.28,9.47s-17,7.47-21.88,15Z" fill="#b6a5eb"/>
      <path id="Trazado_158993" data-name="Trazado 158993" d="M209.42,246.3A54.221,54.221,0,0,1,196,255.24c-12.81,6-27.45,6.92-41.59,8.68S125.51,268.78,115,278c7.61-2.95,15.26-5.9,23.25-7.69,17.14-3.82,35.23-2.1,52.32-6.1,4.72-1.1,9.44-2.69,13.16-5.68S210,250.93,209.42,246.3Z" fill="#b6a5eb"/>
      <path id="Trazado_158994" data-name="Trazado 158994" d="M194.85,208a6.33,6.33,0,0,1,1.78-5.7c2.14-2.68,4.34-5.42,7.26-7.21a19.74,19.74,0,0,0,4.17-2.7c1.15-1.19,1.72-3.2.7-4.51-5.45,2.46-11,5.22-14.76,9.88s-5.11,11.76-1.62,16.61a13.87,13.87,0,0,0,7.42,4.87,36.3,36.3,0,0,0,8.94,1.17c-.86-2.46-3.66-3.57-6.18-4.25s-5.34-1.42-6.7-3.65A9.75,9.75,0,0,1,194.85,208Z" fill="#b6a5eb"/>
      <path id="Trazado_158995" data-name="Trazado 158995" d="M206.29,208.42c1.57-.61,2.42-2.4,3.27-3.86s1.05-3.5-.12-4.72c-7.8,4.64-11.41,14.17-12.14,23.23s.86,18.14.68,27.22c-.22,11.89-.72,44.9-.13,49.61.91,7.25.51,14.61,1.2,21.88s2.65,14.75,7.52,20.21a7.4,7.4,0,0,0,1.24-9.4c-.52-.77-1.19-1.44-1.65-2.25-.69-1.24-.76-3.3-1.56-2.14-4.09,5.95-4.39-57.52-3.55-67.66C201.76,251.81,195.86,212.51,206.29,208.42Z" fill="#b6a5eb"/>
      <path id="Trazado_158996" data-name="Trazado 158996" d="M141.7,247.13c11.59,1.82,21.51-2,32.12-5.64s33.76-16.72,34.44-18.23c1.09-2.42-2,.27-.35-2-10.9,5.63-17.55,9.55-28.23,14.18C168.54,240.26,155.4,246.75,141.7,247.13Z" fill="#b6a5eb"/>
      <path id="Trazado_158997" data-name="Trazado 158997" d="M209.31,228.25c-12.12,6.39-24.32,12.81-37.86,17.67s-28.65,8.15-43.95,7.79c8.18,4,19.53,2.45,29,.12a280,280,0,0,0,37.93-12.57C201.76,238.31,209.84,234,209.31,228.25Z" fill="#b6a5eb"/>
      <path id="Trazado_158998" data-name="Trazado 158998" d="M194.44,246.3c1.57-3,4.63-7.37,6.67-10.74a16.57,16.57,0,0,1-.94-3.53c-9.28,11.86-14.29,26.74-16.13,41.73-1.92,15.71-.63,31.64,1.25,47.36.71,6,1.49,12.26-.41,18-1.52,4.6-5.13,13.68-3.63,18.29,0-4.83,4-13.2,6.27-17.49,4.26-8.19-.17-26.88-.69-36.1-.84-15.11-1.18-21.43,1.51-36.53C189.29,261.94,191.94,251.15,194.44,246.3Z" fill="#b6a5eb"/>
      <path id="Trazado_158999" data-name="Trazado 158999" d="M150.06,264a59.77,59.77,0,0,0-9.8,6.31,41.66,41.66,0,0,0-8.45,10.7A90.38,90.38,0,0,0,121,309.19c-3.48,17.44-12.25,53.26-20.54,71.63,10.75-16.88,20.26-50.16,23.08-66s8-32.39,20.43-42.69c6.12-5.08,13.55-8.25,20.45-12.22,4.53-2.61,8.84-5.56,13.15-8.52l13.23-9.07c6.36-4.36,13.37-9.82,13.77-17.53A306.372,306.372,0,0,1,150.06,264Z" fill="#b6a5eb"/>
      <path id="Trazado_159000" data-name="Trazado 159000" d="M153.51,274.8c-1.49-1.21-2.44,0-2.55,2-.3,5.6-5.38,17.62-8.51,22.13-4.13,5.95-8.95,10.86-11.13,17.87s-2.21,15.15,1.53,21.39c-1.19-15,1-17.85,2-21.36A19,19,0,0,1,137.2,312c3.63-5.82,7.84-11.24,11.14-17.27S154,281.76,153.51,274.8Z" fill="#b6a5eb"/>
      <path id="Trazado_159001" data-name="Trazado 159001" d="M108.36,440.71c3.37-9.17,7.1-19.92,9.93-29.27,7.41-24.44,9-46.4,8.64-72.84-.39-27.64,2-45,25-61.89,8.66-6.35,46.11-28.39,56.76-29.73a3.8,3.8,0,0,0-1.61-4.53c-17.1,10.38-63.69,28.91-73.83,46.14-9.62,16.35-9.26,28.82-9.49,47.79-.13,11.81.11,18.17-1.18,35-.78,10.26-2.07,17.29-3.72,27.46-1.2,7.34-3.68,14.4-6.14,21.43C105.17,441.86,98,469.32,92,486c-4.59,12.69-3.56,21.49-8.35,41.81,7.13-18.55,3.82-28.77,9.77-40.74C96.52,480.84,105.24,449.2,108.36,440.71Z" fill="#b6a5eb"/>
      <path id="Trazado_159002" data-name="Trazado 159002" d="M77.57,478.63l-.82.32a43,43,0,0,0-10.45,5.78c-3.24,2.43-6,5.71-9.65,7.55,4,.3,8.37-5,12.33-7.69s8.87-4.65,13.94-7.2c2.29-1.15,6.86-4,9.35-7.13,1.43-1.79,1.18-3.83,1.93-5.23C90.77,471.46,84.21,476,77.57,478.63Z" fill="#b6a5eb"/>
      <path id="Trazado_159003" data-name="Trazado 159003" d="M79.23,489c-1.62,2.12-5.1,6.52-6.48,8.81-4.15,6.88-5.41,13.17-7.09,23,2.27-8.2,4.62-16.58,9.5-23.5,3.2-4.53,6.28-9.1,9.33-13.74,2.59-3.94,7.43-10.34,8.11-15.05C88.83,476.12,84.28,482.35,79.23,489Z" fill="#b6a5eb"/>
      <path id="Trazado_159004" data-name="Trazado 159004" d="M77.27,511.05c-.59,6-1.24,12-1.64,18,3-7.92,2-22.45,5.11-30.35.82-2.11,2-4.08,3-6.1,2.76-5.46,3.8-7.74,4.79-13.78-3.34,10.86-6.64,13.36-8.34,18.39a50.731,50.731,0,0,0-2.67,11.44C77.42,509.43,77.35,510.24,77.27,511.05Z" fill="#b6a5eb"/>
      <path id="Trazado_159005" data-name="Trazado 159005" d="M88,480.41c.71,9.14-.52,11.37-3.23,17.66-1.53,3.53-1.53,11.9-.77,19.87a126.424,126.424,0,0,1,.77-16c.47-3.78,3.28-8.22,4-12a18.53,18.53,0,0,0-.46-10A4.253,4.253,0,0,1,88,480.41Z" fill="#b6a5eb"/>
      <path id="Trazado_159006" data-name="Trazado 159006" d="M96.08,476.65c-.17,4.42.32,6.89-.38,20.24-.35,6.71-1.35,14.59-1.5,21.05,1.45-9.83,4-26,2.88-41.53a8.1,8.1,0,0,1-1,.24Z" fill="#b6a5eb"/>
      <path id="Trazado_159007" data-name="Trazado 159007" d="M207.6,407.65c-14.6,5.89-29.24,12.41-41.45,22.35s-21.91,23.86-23.81,39.51a87.5,87.5,0,0,1,47.9-47.71c3.65-1.47,7.44-2.7,10.74-4.85S207.09,411.56,207.6,407.65Z" fill="#b6a5eb"/>
      <path id="Trazado_159008" data-name="Trazado 159008" d="M145.23,817.12c.54-.7,1.06-1.68.54-2.4a40.069,40.069,0,0,1-9.37,8.87,21,21,0,0,0-4,3.09,29.82,29.82,0,0,0,12.83-9.56Z" fill="#a48fe6"/>
      <path id="Trazado_159009" data-name="Trazado 159009" d="M161.61,796.29a32.211,32.211,0,0,1-.35-4.9c.07-2.79.79-5.91-.88-8.15a91.43,91.43,0,0,0,3.3,29.93Z" fill="#a48fe6"/>
      <path id="Trazado_159010" data-name="Trazado 159010" d="M158.68,819.8a36.759,36.759,0,0,1-.35-11.95c-1,.86-1.18,2.81-1.22,4.12a76.74,76.74,0,0,0,1.52,14.71,27.321,27.321,0,0,0,.05-6.88Z" fill="#a48fe6"/>
      <path id="Trazado_159011" data-name="Trazado 159011" d="M147.81,807.08a38.4,38.4,0,0,1-7.53,7.43c2.62-.94,4.69-3,6.66-5a2.932,2.932,0,0,0,.65-.8,4.469,4.469,0,0,0,.22-1.63Z" fill="#a48fe6"/>
      <path id="Trazado_159012" data-name="Trazado 159012" d="M152.94,640.19a11.558,11.558,0,0,0,1.07-2.14,10.429,10.429,0,0,0,.35-3.11,50.24,50.24,0,0,0-10.44,30.43,73.319,73.319,0,0,1,9.02-25.18Z" fill="#b6a5eb"/>
      <path id="Trazado_159013" data-name="Trazado 159013" d="M268.38,803.06c2.12,6.47,3.28,14,7.65,19.84A83.639,83.639,0,0,0,292.28,839c-6.19-3.23-13.62-8.8-17.51-14.55a48.441,48.441,0,0,1-6.39-14.71Z" fill="#a48fe6"/>
      <path id="Trazado_159014" data-name="Trazado 159014" d="M265.21,820.56a2,2,0,0,1-.16-1.66,140,140,0,0,0,13.16,13.42c4.9,4.21,7.29,7,13.28,10.86-5.43-2.29-7.24-4.4-11.61-7.51C274,831.48,267.93,826.92,265.21,820.56Z" fill="#a48fe6"/>
      <path id="Trazado_159015" data-name="Trazado 159015" d="M262.51,821.11c1.25-.08,1.5,0,2.11,1.08,2.34,3.91,4,5.68,7.44,9.67,1.33,1.54,6.47,6.12,7.9,7.58s2.77,2.66,4.2,4l4.13,3.75a92.438,92.438,0,0,1-22.49-19.64C264.24,825.6,262.71,823.51,262.51,821.11Z" fill="#a48fe6"/>
      <path id="Trazado_159016" data-name="Trazado 159016" d="M268.43,836.44a53.782,53.782,0,0,1-5.72-13.13c-.3-1.08-2.88-9.33-2.88-9.33.82-.1,1.88,3.19,2.31,3.83a43.207,43.207,0,0,1,2.07,5.1c2.82,9.54,10.54,22,16.31,30C274,847.15,269.35,838,268.43,836.44Z" fill="#a48fe6"/>
      <path id="Trazado_159017" data-name="Trazado 159017" d="M264.37,823.84c-.23,2-.67,4.25-.68,5.6a54.591,54.591,0,0,0,.92,9.55c1.05,4.3,2.87,10.27,5.49,14.66-3.35-2.7-6.17-11.26-6.94-15.29-1.72-8.88-1-13.86.06-16.17a14.325,14.325,0,0,0,1.15,1.65Z" fill="#a48fe6"/>
      <path id="Trazado_159018" data-name="Trazado 159018" d="M268,825.21c-4.07-4.9-5.56-10.67-6.66-16.74-1.83-10.08-2.91-19-1-29.1.9-4.83,1.88-10.92,3.26-15.66,7.09-24.39,4.85-50,2.55-75-2-22.09-4.2-47.27-6.23-69.37,3,9.59,4,22.72,4.92,32.68q1.9,21.38,3.79,42.73c1.56,17.61,3.12,35.36.72,53-2.16,15.86-7.52,31.45-7.75,47.4A72.359,72.359,0,0,0,268,825.21Z" fill="#b6a5eb"/>
      <path id="Trazado_159019" data-name="Trazado 159019" d="M255.93,647.49q1.53,3.78,3.05,7.56c1.92,4.74,3.87,9.69,3.55,14.8-.26,4.12-2.66,11.73-8.69,18.93-.73.87,1-2.89,0-2.73,4.36-8.66,5.39-9.54,6-13.37a39.561,39.561,0,0,0-.85-13.8Q257.6,653.15,255.93,647.49Z" fill="#a48fe6"/>
      <path id="Trazado_159020" data-name="Trazado 159020" d="M254.63,713.73c.93-6.11,3-12,4.68-17.94a220.817,220.817,0,0,0,5.8-26.7,31,31,0,0,1,.44,7.32c-.34,7.16-1.31,12.06-4.72,21.19-5.15,13.8-6.75,22.31-5.06,29.95C253.58,723.92,254,717.93,254.63,713.73Z" fill="#a48fe6"/>
      <path id="Trazado_159021" data-name="Trazado 159021" d="M248.6,718c2.12-25.38-1.23-39-.7-52.73.74-19.14,3.32-26.14,5.75-45.85.47,17.11-3.28,30.06-3.76,46.69S253,701.89,248.6,718Z" fill="#b6a5eb"/>
      <path id="Trazado_159022" data-name="Trazado 159022" d="M260.28,808.48c1.73,5.84,2.77,11.31,5.69,16.73-6.92-8.18-7.83-17.85-9.92-28a111.854,111.854,0,0,1-1.74-14.6q-.9-12.39-1.5-24.88a819.015,819.015,0,0,1,.39-89.61c.6-9.53,2.31-27.6,6.58-36-6,28.46-5.18,67.52-4.83,96.39q.18,14.26.76,28.52.69,17,2,34C258.11,796.9,258.61,802.81,260.28,808.48Z" fill="#b6a5eb"/>
      <path id="Trazado_159023" data-name="Trazado 159023" d="M261.69,664.7c1.65,6.06,8.08,15,10.28,20.9s3.53,12.4,1.57,18.4c-.7-2.91-.54-6-1.08-8.9-.87-4.69-3.47-8.85-5.49-13.18S260.13,669.22,261.69,664.7Z" fill="#a48fe6"/>
      <path id="Trazado_159024" data-name="Trazado 159024" d="M259.57,708.66a60.638,60.638,0,0,1-1.47-6.75,13.584,13.584,0,0,0,.72-1.36A74.9,74.9,0,0,1,257.54,757c3.84-15.1,4-15.71,4.15-23.91C261.93,722.85,261.51,716.5,259.57,708.66Z" fill="#a48fe6"/>
      <path id="Trazado_159025" data-name="Trazado 159025" d="M253.55,718c4.78,10.54,7.59,16.24,8.72,31.23.63,8.31.35,12.12,4.08,26.9a98.069,98.069,0,0,1,2.41,14.26c.62,6.36-.15,12.79-.05,19.19s.27,13,4.16,18.32c-2.21-2.94-2-.48-2.95-2.65-2.45-5.64-2.86-12-2.45-17.93a131.14,131.14,0,0,0-.66-18c-1.29-10.89-3.32-14.56-4.69-20.83-2.37-10.85-.75-21.62-3.43-32.4-1.17-4.73-3.26-9.28-5.14-13.85Z" fill="#a48fe6"/>
      <path id="Trazado_159026" data-name="Trazado 159026" d="M254.06,650.53c1.15,6.55,1.58,13.33,4.14,19.46-4.19-5.13-5.13-12.08-6.51-18.56a110.079,110.079,0,0,0-9.64-27.11c-1.86-3.62-4-7.26-4.45-11.3a87.06,87.06,0,0,1,16.46,37.51Z" fill="#b6a5eb"/>
      <path id="Trazado_159027" data-name="Trazado 159027" d="M259.85,646c-3.7-8.61-1.9-18.43-.78-27.72a138.33,138.33,0,0,0,.42-31.83c-.49-4.43-1.17-9.22,1-13.1a222.74,222.74,0,0,1-.19,54.55C259.56,633.88,258.56,640,259.85,646Z" fill="#b6a5eb"/>
      <path id="Trazado_159028" data-name="Trazado 159028" d="M228.89,603.42c.45,3.5,1.22,7,2,10.39-6.27-15.72-6.52-33.54-1.9-49.82C230.06,577.11,227.21,590.37,228.89,603.42Z" fill="#b6a5eb"/>
      <path id="Trazado_159029" data-name="Trazado 159029" d="M270.11,532.78a16.16,16.16,0,0,0,.54-3.42c.06-1.68.16-3.36.25-5a108.64,108.64,0,0,1-.84,45.17C271.15,551.74,270.84,541.88,270.11,532.78Z" fill="#b6a5eb"/>
      <path id="Trazado_159030" data-name="Trazado 159030" d="M214.51,421.71c-2-1.1-4.49-2.69-4.22-5a75.26,75.26,0,0,1,44.58,50.64c3.4,13.42,3,27.48,2.53,41.32q-1.74,54.12-3.49,108.25a64.8,64.8,0,0,1-1.46,13.91q-2.41-47.1-1-94.31c.21-7.06.49-14.12,1.29-21.13s2.17-14.15,2.54-21.28C256.82,464.92,240.26,435.54,214.51,421.71Z" fill="#b6a5eb"/>
      <path id="Trazado_159031" data-name="Trazado 159031" d="M228.24,448.35c-2.47-2.72-6.9-8-9.84-10.23s-9.59-6.1-9.65-9.77c10.41,4.19,22.83,18,28.23,27.86a109.21,109.21,0,0,1,10.29,26.18c7.67,30.72,1.39,63.1-6.72,93.71-2.14,8.08-4.42,16.22-4.66,24.58-3.56-15.84,2.32-32,6-47.85,2.18-9.46,3.56-19.07,4.81-28.69A123.534,123.534,0,0,0,248,509c.09-18.37-7.53-35.8-15-52.58a29.9,29.9,0,0,0-4.76-8.07Z" fill="#b6a5eb"/>
      <path id="Trazado_159032" data-name="Trazado 159032" d="M210.29,450.7c-.65-.68-1-2.17-.09-2.23a61.63,61.63,0,0,1,23.64,37.67,121.135,121.135,0,0,1,1.58,15Q237.7,537,240,572.86a160.315,160.315,0,0,1,.47,16.4c-.48,11.82-3.6,23.61-2.21,35.36-5.94-15.12.07-32.11-.7-48.34-.35-7.17-2-14.2-2.88-21.32-.57-4.74-.78-9.51-1-14.27q-1.11-25.76-2.21-51.49c-.19-4.49-.4-9-1.72-13.34C226.61,465.62,217.73,458.42,210.29,450.7Z" fill="#b6a5eb"/>
      <path id="Trazado_159033" data-name="Trazado 159033" d="M209.63,455.09c7.85,6.07,12.18,15.66,14.9,25.22,8.56,30,4,62.12,6.73,93.25a199.219,199.219,0,0,0,16.13,62.93c-1.88-6.81-5.35-13-8.26-19.49-8.8-19.48-9.71-41.48-11.32-62.81s.39-30.77-1.89-52c-1.46-13.69-3.87-26.73-7.95-32.92C214.9,464.59,209.83,460.66,209.63,455.09Z" fill="#b6a5eb"/>
      <path id="Trazado_159034" data-name="Trazado 159034" d="M240.7,666.61c.16-4.42,1-8.79,1.13-13.2.28-6.85-1.81-13.59-2.3-20.43-.14-2,.66-9.41,1.89-11.7.42-.77,1.1,1.8,1.1,1.8-3,10.8,1.79,22.48,1.12,30.88-1,12.24-2.81,27.09,3.75,39.85C242.15,685.84,240.36,676.14,240.7,666.61Z" fill="#b6a5eb"/>
      <path id="Trazado_159035" data-name="Trazado 159035" d="M249.51,684.75c.07-18-3.33-36.1-1.78-53.87a14,14,0,0,1-2.57-4.47,11.67,11.67,0,0,0-.18,1.4c-1.22,21.6,3.94,43.16,3.08,64.79-.38,9.56-1.93,19.06-2.05,28.63s1.32,19.48,6.4,27.58C244.41,728.8,249.42,706.3,249.51,684.75Z" fill="#b6a5eb"/>
      <path id="Trazado_159036" data-name="Trazado 159036" d="M264.9,489.35c-1.8-8.11-5-19.47-8.54-27-4.85-10.26-11.77-27.12-22.89-38.35-5.29-5.34-16.08-15.66-25.5-20.75a17,17,0,0,0-.13-3.77c20.08,8.1,36.55,29.64,45.94,49.13,10.46,21.7,17.21,45.42,17.64,69.51.63,35-11.27,68.35-29.57,100.35-4.07,7.13-5.67,14.81-5.92,23-3.3-7.46-1-16.28,2.88-23.44s19-36.78,20.78-45.2c1.35-6.47,9.55-36,8.67-58.86a136.389,136.389,0,0,0-3.36-24.62Z" fill="#b6a5eb"/>
      <path id="Trazado_159037" data-name="Trazado 159037" d="M251.84,502.24c1.86-4.43,3.74-8.91,4.36-13.61.79-6-.47-12-2.07-17.8-3.2-11.58-7.85-23-15.38-32.77-2.94-3.82-6.32-7.4-8.83-11.47-3.18-5.16-4.86-10.94-6.35-16.69-1.93-7.49-4.36-13.35-5.73-20.94-1.25-6.9-11.84-19.33-12.42-20.27s-.86-4.52.32-4.67c6.06,6.61,11.86,14,15,22.15,2.11,5.38,5.23,20.45,6.82,26,3.69,12.86,13.29,20.53,19.48,32.56,6.76,13.13,9.65,21,11.05,35.44.63,6.5.67,13.11-1,19.46-1.42,5.41-5.58,10.74-7.87,15.9-3.55,8-6.87,15.07-6.75,24.5-3.72-5.51-1.26-12.61,1.29-18.65Q247.81,511.81,251.84,502.24Z" fill="#b6a5eb"/>
      <path id="Trazado_159038" data-name="Trazado 159038" d="M236.82,388.05a137.845,137.845,0,0,1-12.24-11.57c-2.25-2.31-4.54-4.68-5.93-7.59a59.828,59.828,0,0,0-6.06-9.92c-1.28-1.62-3.1-2.78-4.26-4.49s-1.38-4.41.34-5.56a55.719,55.719,0,0,1,10.42,13.85c1.8,3.4,5.28,7.48,7.45,10.66,4.68,6.87,12.2,11.14,18.82,16.17s12.91,11.88,13.16,20.19c-2.22-5.48-5.23-7.94-8.56-11.3C246,394.52,241.19,391.54,236.82,388.05Z" fill="#b6a5eb"/>
      <path id="Trazado_159039" data-name="Trazado 159039" d="M207.76,348.54A74.46,74.46,0,0,1,230.15,368c1.88,2.47,3.69,5.27,3.64,8.37,0,0-5.21-5.43-8-8.55-2.19-2.43-12.81-9.92-14.69-11.93a11.09,11.09,0,0,1-3.34-7.35Z" fill="#b6a5eb"/>
      <path id="Trazado_159040" data-name="Trazado 159040" d="M211,374.57c6.77,3.77,16.88,11.93,23,16.27,5.69,4.05,8.24,9,10.14,16.74,1,3.89,2,7.54,7.15,12-2.17-.56-6.21-3-7-5.1a60.127,60.127,0,0,1-2.55-7.06A25.39,25.39,0,0,0,234.65,395c-2.9-2.79-21.05-14.81-23.55-16.61l-.08-.06Z" fill="#b6a5eb"/>
      <path id="Trazado_159041" data-name="Trazado 159041" d="M225.94,399.86c-2.18-1.07-6.47-4.63-8.24-6.28-5.37-5-7.63-7.45-7.63-7.45a7.15,7.15,0,0,0-1.58-3.67c6,4.29,14.67,12.24,20.7,16.53a24.839,24.839,0,0,1,5.92,5.26,12.45,12.45,0,0,1,2.35,7.19C235.62,404.12,228.39,401.07,225.94,399.86Z" fill="#b6a5eb"/>
      <path id="Trazado_159042" data-name="Trazado 159042" d="M320.38,404.25a24.841,24.841,0,0,0-5.92-5.26c-3.45-2.45-7.76-6.11-11.95-9.59a12.527,12.527,0,0,1,0,2.29c-.05.48-.12.88-.18,1.32l.61.57c1.78,1.65,6.06,5.21,8.24,6.28,2.45,1.21,9.69,4.26,11.52,11.58a12.38,12.38,0,0,0-2.32-7.19Z" fill="#b6a5eb"/>
      <path id="Trazado_159043" data-name="Trazado 159043" d="M215.53,419.77a16.871,16.871,0,0,1-4.4-2.74c-1.2-1.25-1.77-3.34-.73-4.72,6.19,1.81,11.51,6,15.62,10.94s7.1,10.76,9.82,16.61c8.65,18.67,14.79,39.11,13.14,59.62-.66,8.29-2.59,16.56-1.82,24.84-5.17-17,.48-35.59-3.64-52.84a95.922,95.922,0,0,0-5.37-15l-5.6-13.2C228.69,434.23,224.24,424.46,215.53,419.77Z" fill="#b6a5eb"/>
      <path id="Trazado_159044" data-name="Trazado 159044" d="M219,489.41a66.31,66.31,0,0,0-2.23-14.86c-1.9-6.19-3.85-12.48-7.46-17.86-1.27,2.62-.91,5.77,0,8.53s2.41,5.32,3.37,8.08a68,68,0,0,1,2.8,11.85c1,8.59,1,15.46-1.36,23.79C218.33,503.14,219.46,496.54,219,489.41Z" fill="#b6a5eb"/>
      <path id="Trazado_159045" data-name="Trazado 159045" d="M223.77,501.59c1.22-8.3.16-16.8-1.9-24.93-2.23-8.86-6.14-18-14-22.73,0,0,3.45,6.41,6.34,11.29,7.77,13.08,10.11,34.07,4.21,48.09C221.73,510.41,223.14,505.93,223.77,501.59Z" fill="#b6a5eb"/>
      <path id="Trazado_159046" data-name="Trazado 159046" d="M230.1,471.12c.57,4,.24,8.58-2.58,11.52a52.429,52.429,0,0,0,.74-11.45c-.32-3.82-2.28-7.16-4.15-10.5-4.36-7.81-14.62-16.6-14.27-17.3s1.49-1,1.93-.35l5.44,5.41a68.467,68.467,0,0,1,6.4,7A33.92,33.92,0,0,1,230.1,471.12Z" fill="#b6a5eb"/>
      <path id="Trazado_159047" data-name="Trazado 159047" d="M232.57,461c5.63,9.31,8.78,21,4.87,31.11,0,0,0-9.35-.64-14.08-.91-6.89-5-13-9-19-7-10.59-21.92-24.11-19.83-25.94l3.69,2.25S227,451.72,232.57,461Z" fill="#b6a5eb"/>
      <path id="Trazado_159048" data-name="Trazado 159048" d="M211.05,425.12c.06,1.42-.11-2.84-.16-4.26.52-.49,1.36-.11,1.94.3,9.53,6.59,16.58,19.27,16.72,30.86,0,0-3.53-11-4.47-12.77C220.22,430,211,424.35,211.05,425.12Z" fill="#b6a5eb"/>
      <path id="Trazado_159049" data-name="Trazado 159049" d="M219.7,348.12c3.59,2.4,7.54,4.28,10.84,7.06s6,6.78,5.74,11.09c-3.94-4.83-7.94-9.74-13.09-13.27-3.38-2.32-7.2-4-10.39-6.6s-5.77-6.46-5.32-10.54A44.43,44.43,0,0,0,219.7,348.12Z" fill="#b6a5eb"/>
      <path id="Trazado_159050" data-name="Trazado 159050" d="M216.63,338.24a74.1,74.1,0,0,1-6.17-4.39,10.911,10.911,0,0,1-2.86-3.05,6.07,6.07,0,0,1-.63-4.09c3.24,5.08,8.64,8.33,14,11s11.05,5.09,15.54,9.1,7.7,10.13,6.38,16c-1.71-5.91-6-10.79-10.81-14.59S221.81,341.56,216.63,338.24Z" fill="#b6a5eb"/>
      <path id="Trazado_159051" data-name="Trazado 159051" d="M252.94,355.85c-4.84-8.61-13.36-14.4-21.58-19.87l-17.69-11.79c-2.67-1.78-5.64-4.07-5.67-7.28,13.49,7.44,27.19,15,38.07,25.94C249.62,346.42,253,350.81,252.94,355.85Z" fill="#b6a5eb"/>
      <path id="Trazado_159052" data-name="Trazado 159052" d="M222.64,314.74c7.12,3.8,14.88,6.44,21.58,10.94s12.46,11.48,12.64,19.55c-8.79-15.36-25.28-24.5-41.45-31.69a22,22,0,0,1-6.3-3.68c-1.77-1.67-3-4.2-2.37-6.57a73.862,73.862,0,0,0,15.9,11.45Z" fill="#b6a5eb"/>
      <path id="Trazado_159053" data-name="Trazado 159053" d="M216.22,304a54.35,54.35,0,0,1-5.57-4.34c-2.21-1.86-4.61-4.89-3-7.28,7.7,8.13,18.41,12.51,28.37,17.62s20,11.84,24.17,22.23a122.69,122.69,0,0,0-34.33-23.42A72.44,72.44,0,0,1,216.22,304Z" fill="#b6a5eb"/>
      <path id="Trazado_159054" data-name="Trazado 159054" d="M261.1,321.76c-13.46-13.51-32.54-19.38-49.32-28.42a10.4,10.4,0,0,1-2.71-1.87,5.45,5.45,0,0,1-1.09-5.55c13.81,11.16,32.25,15.23,46.28,26.1C257.49,314.52,260.63,317.71,261.1,321.76Z" fill="#b6a5eb"/>
      <path id="Trazado_159055" data-name="Trazado 159055" d="M206.43,278.28l1.72-.57c13.87,11.85,33.12,15,48.87,24.22,2.86,1.68,5.9,4.05,6,7.37-15.22-10.59-33.82-15.13-50-24.2C210.22,283.5,207.21,281.45,206.43,278.28Z" fill="#b6a5eb"/>
      <path id="Trazado_159056" data-name="Trazado 159056" d="M217.52,277.55c-4.3-1.38-9.21-3.2-10.67-7.47,15.11,9.1,33.36,11.61,48.93,19.91,2.82,1.5,5.77,3.49,6.54,6.59a272.926,272.926,0,0,0-44.8-19.03Z" fill="#b6a5eb"/>
      <path id="Trazado_159057" data-name="Trazado 159057" d="M214.72,266.84c-1.59-.71-3.17-1.42-4.7-2.24a5.37,5.37,0,0,1-1.85-1.41,3,3,0,0,1-.36-2.81c7.87,4.38,16.8,6.42,25.28,9.47s17,7.47,21.87,15Z" fill="#b6a5eb"/>
      <path id="Trazado_159058" data-name="Trazado 159058" d="M207.52,246.3a53.849,53.849,0,0,0,13.41,8.94c12.81,6,27.45,6.92,41.58,8.68S291.42,268.78,302,278c-7.61-2.95-15.26-5.9-23.25-7.69-17.13-3.82-35.23-2.1-52.32-6.1-4.71-1.1-9.43-2.69-13.15-5.68S206.93,250.93,207.52,246.3Z" fill="#b6a5eb"/>
      <path id="Trazado_159059" data-name="Trazado 159059" d="M222.09,208a6.4,6.4,0,0,0-1.78-5.7c-2.14-2.68-4.34-5.42-7.27-7.21a19.671,19.671,0,0,1-4.16-2.7c-1.16-1.19-1.73-3.2-.7-4.51,5.45,2.46,11,5.22,14.76,9.88s5.11,11.76,1.61,16.61a13.84,13.84,0,0,1-7.42,4.87,36.3,36.3,0,0,1-8.94,1.17c.87-2.46,3.67-3.57,6.19-4.25s5.34-1.42,6.69-3.65A9.63,9.63,0,0,0,222.09,208Z" fill="#b6a5eb"/>
      <path id="Trazado_159060" data-name="Trazado 159060" d="M210.65,208.42c-1.58-.61-2.43-2.4-3.27-3.86s-1-3.5.12-4.72c7.8,4.64,11.41,14.17,12.13,23.23s-.85,18.14-.68,27.22c.23,11.89.73,44.9.13,49.61-.91,7.25-.5,14.61-1.19,21.88s-2.66,14.75-7.52,20.21a7.4,7.4,0,0,1-1.25-9.4c.52-.77,1.2-1.44,1.65-2.25.69-1.24.76-3.3,1.56-2.14,4.1,5.95,4.39-57.52,3.56-67.66C215.17,251.81,221.07,212.51,210.65,208.42Z" fill="#b6a5eb"/>
      <path id="Trazado_159061" data-name="Trazado 159061" d="M275.23,247.13c-11.58,1.82-21.5-2-32.11-5.64s-33.77-16.72-34.45-18.23c-1.08-2.42,2,.27.36-2,10.9,5.63,17.54,9.55,28.22,14.18C248.4,240.26,261.54,246.75,275.23,247.13Z" fill="#b6a5eb"/>
      <path id="Trazado_159062" data-name="Trazado 159062" d="M207.63,228.25c12.12,6.39,24.31,12.81,37.86,17.67s28.65,8.15,43.95,7.79c-8.19,4-19.54,2.45-29,.12a280.505,280.505,0,0,1-37.93-12.57C215.17,238.31,207.1,234,207.63,228.25Z" fill="#b6a5eb"/>
      <path id="Trazado_159063" data-name="Trazado 159063" d="M222.49,246.3c-1.56-3-4.62-7.37-6.66-10.74a16,16,0,0,0,.93-3.53c9.29,11.86,14.3,26.74,16.14,41.73,1.92,15.71.62,31.64-1.25,47.36-.71,6-1.49,12.26.41,18,1.52,4.6,5.12,13.68,3.63,18.29-.05-4.83-4-13.2-6.27-17.49-4.26-8.19.17-26.88.68-36.1.85-15.11,1.18-21.43-1.5-36.53C227.64,261.94,225,251.15,222.49,246.3Z" fill="#b6a5eb"/>
      <path id="Trazado_159064" data-name="Trazado 159064" d="M266.88,264a59.766,59.766,0,0,1,9.8,6.31,41.841,41.841,0,0,1,8.44,10.7,90.4,90.4,0,0,1,10.79,28.22c3.48,17.44,12.25,53.26,20.53,71.63-10.74-16.88-20.26-50.16-23.08-66s-8-32.39-20.42-42.69c-6.12-5.08-13.55-8.25-20.45-12.22-4.53-2.61-8.85-5.56-13.16-8.52l-13.22-9.07c-6.37-4.36-13.38-9.82-13.78-17.53A306.084,306.084,0,0,0,266.88,264Z" fill="#b6a5eb"/>
      <path id="Trazado_159065" data-name="Trazado 159065" d="M263.42,274.8c1.5-1.21,2.44,0,2.55,2,.3,5.6,5.38,17.62,8.51,22.13,4.13,5.95,9,10.86,11.14,17.87s2.2,15.15-1.53,21.39c1.18-15-1-17.85-2-21.36a19.63,19.63,0,0,0-2.38-4.84c-3.63-5.82-7.84-11.24-11.14-17.27S262.92,281.76,263.42,274.8Z" fill="#b6a5eb"/>
      <path id="Trazado_159066" data-name="Trazado 159066" d="M308.57,440.71c-3.36-9.17-7.09-19.92-9.92-29.27-7.42-24.44-9-46.4-8.64-72.84.39-27.64-2-45-25-61.89-8.66-6.35-46.11-28.39-56.76-29.73a3.79,3.79,0,0,1,1.61-4.53c17.1,10.38,63.68,28.91,73.83,46.14,9.62,16.35,9.26,28.82,9.48,47.79.14,11.81-.1,18.17,1.18,35,.78,10.26,2.07,17.29,3.73,27.46,1.2,7.34,3.67,14.4,6.14,21.43,7.57,21.56,14.69,49,20.73,65.68,4.59,12.69,3.55,21.49,8.35,41.81-7.14-18.55-3.82-28.77-9.77-40.74C320.42,480.84,311.69,449.2,308.57,440.71Z" fill="#b6a5eb"/>
      <path id="Trazado_159067" data-name="Trazado 159067" d="M339.36,478.63l.83.32a43,43,0,0,1,10.45,5.78c3.24,2.43,6,5.71,9.65,7.55-4,.3-8.37-5-12.33-7.69s-8.87-4.65-13.94-7.2c-2.29-1.15-6.87-4-9.36-7.13-1.42-1.79-1.18-3.83-1.93-5.23C326.17,471.46,332.72,476,339.36,478.63Z" fill="#b6a5eb"/>
      <path id="Trazado_159068" data-name="Trazado 159068" d="M337.71,489c1.62,2.12,5.09,6.52,6.47,8.81,4.15,6.88,5.41,13.17,7.1,23-2.27-8.2-4.62-16.58-9.5-23.5-3.2-4.53-6.28-9.1-9.33-13.74-2.59-3.94-7.44-10.34-8.11-15.05C328.1,476.12,332.65,482.35,337.71,489Z" fill="#b6a5eb"/>
      <path id="Trazado_159069" data-name="Trazado 159069" d="M339.67,511.05c.59,6,1.24,12,1.64,18-3-7.92-2-22.45-5.11-30.35-.82-2.11-2-4.08-3-6.1-2.77-5.46-3.8-7.74-4.8-13.78,3.35,10.86,6.64,13.36,8.35,18.39a50.731,50.731,0,0,1,2.67,11.44C339.51,509.43,339.59,510.24,339.67,511.05Z" fill="#b6a5eb"/>
      <path id="Trazado_159070" data-name="Trazado 159070" d="M328.94,480.41c-.71,9.14.52,11.37,3.23,17.66,1.52,3.53,1.52,11.9.77,19.87a128.423,128.423,0,0,0-.77-16c-.47-3.78-3.29-8.22-4-12a18.63,18.63,0,0,1,.47-10A3.144,3.144,0,0,0,328.94,480.41Z" fill="#b6a5eb"/>
      <path id="Trazado_159071" data-name="Trazado 159071" d="M320.86,476.65c.17,4.42-.32,6.89.37,20.24.35,6.71,1.36,14.59,1.5,21.05-1.44-9.83-4-26-2.88-41.53a8.26,8.26,0,0,0,1.01.24Z" fill="#b6a5eb"/>
      <path id="Trazado_159072" data-name="Trazado 159072" d="M109.18,417.82a41.073,41.073,0,0,1-3.26,2.5c-2,1.62-5.33,2.62-8.23,3.8s-5.65,2.8-5.75,4.75a10.28,10.28,0,0,1,3.74-2.66c1.73-.93,3.83-1.63,5.74-2.45s3.64-1.78,5.36-2.72a10.181,10.181,0,0,0,2.59-1.79c.12-.13.31-.3.46-.44v-1.54C109.62,417.45,109.37,417.62,109.18,417.82Z" fill="#b6a5eb"/>
      <path id="Trazado_159073" data-name="Trazado 159073" d="M307.57,417.82c.8.79,2.33,1.76,3.29,2.5,2.06,1.62,5.37,2.62,8.28,3.8s5.68,2.8,5.79,4.75a10.4,10.4,0,0,0-3.77-2.66c-1.73-.93-3.85-1.63-5.78-2.45A47.647,47.647,0,0,1,310,421a10.139,10.139,0,0,1-2.61-1.79c-.12-.13-.31-.3-.46-.44v-1.54C307.13,417.45,307.38,417.62,307.57,417.82Z" fill="#b6a5eb"/>
      <path id="Trazado_159074" data-name="Trazado 159074" d="M209.34,407.65c14.62,5.89,29.23,12.41,41.44,22.38s21.92,23.86,23.82,39.51a87.51,87.51,0,0,0-47.91-47.71c-3.65-1.47-7.44-2.7-10.73-4.85S209.85,411.56,209.34,407.65Z" fill="#b6a5eb"/>
      <path id="Trazado_159075" data-name="Trazado 159075" d="M271.71,817.12c-.54-.7-1.06-1.68-.55-2.4a39.92,39.92,0,0,0,9.38,8.87,21,21,0,0,1,4,3.09,29.849,29.849,0,0,1-12.83-9.56Z" fill="#a48fe6"/>
      <path id="Trazado_159076" data-name="Trazado 159076" d="M255.33,796.29a32.207,32.207,0,0,0,.35-4.9c-.08-2.79-.79-5.91.88-8.15a91.7,91.7,0,0,1-3.3,29.93Z" fill="#a48fe6"/>
      <path id="Trazado_159077" data-name="Trazado 159077" d="M258.26,819.8a36.809,36.809,0,0,0,.34-11.95c1,.86,1.18,2.81,1.23,4.12a76,76,0,0,1-1.53,14.71,27.321,27.321,0,0,1-.04-6.88Z" fill="#a48fe6"/>
      <path id="Trazado_159078" data-name="Trazado 159078" d="M269.12,807.08a38.168,38.168,0,0,0,7.54,7.43c-2.63-.94-4.69-3-6.67-5a3.091,3.091,0,0,1-.64-.8,4.28,4.28,0,0,1-.23-1.63Z" fill="#a48fe6"/>
      <path id="Trazado_159079" data-name="Trazado 159079" d="M264,640.19a11,11,0,0,1-1.07-2.14,10.44,10.44,0,0,1-.36-3.11A50.25,50.25,0,0,1,273,665.37a73.319,73.319,0,0,0-9-25.18Z" fill="#b6a5eb"/>
      <path id="Trazado_159080" data-name="Trazado 159080" d="M113.64,350.86A95.489,95.489,0,0,1,115,380.17c-.8,7.26-2.74,20.83-4.46,27.94-7.06,29.09-13.17,51.26-26.87,82.18,9.42-18.4,17.73-40.57,24.14-60.22,4.19-12.84,6.68-26.53,8.31-39.93S118.42,363.49,113.64,350.86Z" fill="#b6a5eb"/>
      <path id="Trazado_159081" data-name="Trazado 159081" d="M313,391c4,21.35,5.6,37.91,13.29,62.17,3.06,9.68,7,21.19,16.95,23.29a13.19,13.19,0,0,1-10.62-5.25c-.77,2.89,4,10.44,4.28,13.42-4.23-7-6-12.5-8.81-20a323,323,0,0,1-12.64-42.82c-2.07-9.6-2.93-19.45-5.39-29-2-7.79-3.47-13.88-5.59-21.64-4.56-16.68-1.72-33.39-3.49-50.59S291,283.4,280.43,269.67c-8.5-11.09-20.71-18.65-32.89-25.51-2.64-1.49-8.36-4.84-10.63-6.85-4.77-4.23-22.06-18.57-19.8-20.59,11.44,13.51,55.37,37.9,67.74,53.41s18.52,35.65,19.5,55.59c.7,14.34-1.07,28.9,1.84,43C307.77,376.29,311.58,383.32,313,391Z" fill="#b6a5eb"/>
      <path id="Trazado_159082" data-name="Trazado 159082" d="M303.29,350.86A95.481,95.481,0,0,0,302,380.17c.79,7.26,2.74,20.83,4.46,27.94,7.06,29.09,13.16,51.26,26.87,82.18-9.43-18.4-17.73-40.57-24.15-60.22-4.19-12.84-6.67-26.53-8.3-39.93S298.51,363.49,303.29,350.86Z" fill="#b6a5eb"/>
      <path id="Trazado_159083" data-name="Trazado 159083" d="M103.91,391c-4,21.35-5.6,37.91-13.28,62.17-3.07,9.68-7,21.19-16.95,23.29a13.19,13.19,0,0,0,10.62-5.25c.77,2.89-4,10.44-4.29,13.42,4.24-7,6-12.5,8.82-20a322.94,322.94,0,0,0,12.63-42.82c2.08-9.6,2.94-19.45,5.39-29,2-7.79,3.47-13.88,5.59-21.64,4.56-16.68,1.73-33.39,3.49-50.59S126,283.4,136.51,269.67c8.5-11.09,20.71-18.65,32.88-25.51,2.64-1.49,8.37-4.84,10.64-6.85,4.76-4.23,22.06-18.57,19.8-20.59-11.45,13.51-55.38,37.9-67.74,53.41s-18.53,35.65-19.51,55.59c-.7,14.34,1.08,28.9-1.84,43C109.17,376.29,105.36,383.32,103.91,391Z" fill="#b6a5eb"/>
      <g id="Grupo_74551" data-name="Grupo 74551">
        <g id="Grupo_74549" data-name="Grupo 74549">
          <g id="Grupo_74545" data-name="Grupo 74545">
            <path id="Trazado_159084" data-name="Trazado 159084" d="M230.46,143.79c-2.84-6.59-13.71-9.82-15.81-11.81s-5.55-1-5.55-1h-1.26s-3.46-1-5.56,1-13,5.22-15.81,11.81-9.15,14-7.66,18.6S183.6,180,184,181.85s11.35,6.31,14.56,4.44c2.07-1.2,6.07-1.21,8.67-1.07v.2s.48-.06,1.23-.12a3.028,3.028,0,0,1,1.22.12v-.2c2.59-.14,6.6-.13,8.67,1.07,3.21,1.87,14.14-2.63,14.56-4.44s3.72-14.82,5.21-19.46S233.31,150.37,230.46,143.79Z" fill="#a13d39"/>
            <g id="Grupo_74544" data-name="Grupo 74544">
              <path id="Trazado_159085" data-name="Trazado 159085" d="M181.77,161.65a42.73,42.73,0,0,0,14.57,8c2.56.8,5.52,1.32,7.77-.13s3-4.42,3.4-7.12c1.23-9.12,0-18.36-1.29-27.48a5.56,5.56,0,0,0-1-2.88c-1.19-1.42-3.48-1.27-5.11-.38s-2.89,2.33-4.48,3.29c-3,1.8-6.92,1.87-9.36,4.35s-2.45,6.18-3.83,9.26c-1.46,3.24-4.5,6.41-3.35,9.77A8,8,0,0,0,181.77,161.65Z" fill="url(#radial-gradient)"/>
              <path id="Trazado_159086" data-name="Trazado 159086" d="M179.8,170.1c.07,1.17-.11,2.35.07,3.51a7.1,7.1,0,0,0,3.58,4.84,13.09,13.09,0,0,0,6,1.53,18.18,18.18,0,0,0,8.94-1.67,12.56,12.56,0,0,0,6.22-6.52.53.53,0,0,0,.05-.42c-.12-.25-.47-.2-.73-.12a15,15,0,0,1-10.11-.57,29.379,29.379,0,0,1-4.73-2.74l-9.7-6.44C177.94,164.06,179.62,167.17,179.8,170.1Z" fill="url(#radial-gradient-2)"/>
              <path id="Trazado_159087" data-name="Trazado 159087" d="M204.76,174.91c.37-.79.66-1.81,1.5-2a1.61,1.61,0,0,1,1.74,1,4.78,4.78,0,0,1,.29,2.13l-.09,4.59c-.06,2.79-.22,5.86-2.11,7.91s-5.14,2.47-8,2.4a19,19,0,0,1-9.22-2.14c-2.74-1.63-4.86-4.65-4.65-7.85,1.48-.35,3,.19,4.51.4,3.52.49,7-.86,10.31-2.18C201.27,178.2,203.72,177.11,204.76,174.91Z" fill="url(#radial-gradient-3)"/>
              <path id="Trazado_159088" data-name="Trazado 159088" d="M235.16,161.65a42.59,42.59,0,0,1-14.56,8c-2.56.8-5.52,1.32-7.78-.13s-3-4.42-3.4-7.12c-1.22-9.12,0-18.36,1.29-27.48a5.65,5.65,0,0,1,1-2.88c1.19-1.42,3.49-1.27,5.11-.38s2.9,2.33,4.48,3.29c3,1.8,6.93,1.87,9.36,4.35s2.46,6.18,3.84,9.26c1.46,3.24,4.49,6.41,3.34,9.77a7.91,7.91,0,0,1-2.68,3.32Z" fill="url(#radial-gradient-4)"/>
              <path id="Trazado_159089" data-name="Trazado 159089" d="M237.14,170.1c-.07,1.17.1,2.35-.08,3.51a7,7,0,0,1-3.58,4.84,13,13,0,0,1-5.95,1.53,18.24,18.24,0,0,1-8.95-1.67,12.56,12.56,0,0,1-6.22-6.52.57.57,0,0,1,0-.42c.11-.25.47-.2.72-.12a15,15,0,0,0,10.12-.57,29.378,29.378,0,0,0,4.73-2.74l9.69-6.44C239,164.06,237.31,167.17,237.14,170.1Z" fill="url(#radial-gradient-5)"/>
              <path id="Trazado_159090" data-name="Trazado 159090" d="M212.18,174.91c-.38-.79-.66-1.81-1.5-2a1.6,1.6,0,0,0-1.74,1,4.78,4.78,0,0,0-.29,2.13l.09,4.59c.06,2.79.22,5.86,2.11,7.91s5.13,2.47,8,2.4a19,19,0,0,0,9.21-2.14c2.75-1.63,4.86-4.65,4.66-7.85-1.48-.35-3,.19-4.51.4-3.52.49-7-.86-10.31-2.18C215.66,178.2,213.21,177.11,212.18,174.91Z" fill="url(#radial-gradient-6)"/>
            </g>
          </g>
          <g id="Grupo_74548" data-name="Grupo 74548">
            <g id="Grupo_74546" data-name="Grupo 74546">
              <path id="Trazado_159091" data-name="Trazado 159091" d="M196.5,140.59h-.12a5.33,5.33,0,0,1-4-2,.51.51,0,0,1,.06-.68.44.44,0,0,1,.64.06,4.41,4.41,0,0,0,3.32,1.69,5.77,5.77,0,0,0,2-.33,7.489,7.489,0,0,0,1.4-.58,5.65,5.65,0,0,0,2.72-4.32A.47.47,0,0,1,203,134h0a.48.48,0,0,1,.41.53,6.61,6.61,0,0,1-3.2,5.09,7.651,7.651,0,0,1-1.56.64,7.35,7.35,0,0,1-2.15.33Z" fill="#edb8a6"/>
              <path id="Trazado_159092" data-name="Trazado 159092" d="M207.6,173h-.13a10.15,10.15,0,0,1-4.41-2.88,17.541,17.541,0,0,1-1.2-1.53,12.12,12.12,0,0,0-1.89-2.17,11.09,11.09,0,0,0-1.78-1.15A8.18,8.18,0,0,1,195.4,163c-1.19-1.67-1.29-4.07-.3-7.13l.4-1.18a12.24,12.24,0,0,0,1-5.33,13.551,13.551,0,0,0-.31-1.54,6.68,6.68,0,0,1-.23-3.38,7.84,7.84,0,0,1,.82-1.79c.51-.88.95-1.65.66-2.39a.5.5,0,0,1,.25-.63.44.44,0,0,1,.59.26c.46,1.19-.17,2.29-.72,3.26a7.23,7.23,0,0,0-.73,1.55,5.9,5.9,0,0,0,.24,2.88,13.172,13.172,0,0,1,.33,1.66,12.89,12.89,0,0,1-1.08,5.78l-.39,1.16c-.89,2.74-.84,4.84.16,6.24a7.33,7.33,0,0,0,2.5,1.92,11.541,11.541,0,0,1,1.91,1.24,12.929,12.929,0,0,1,2,2.34,17.843,17.843,0,0,0,1.15,1.45,9.13,9.13,0,0,0,4,2.63.49.49,0,0,1,.31.6A.46.46,0,0,1,207.6,173Z" fill="#edb8a6"/>
              <path id="Trazado_159093" data-name="Trazado 159093" d="M194.67,157.68a.44.44,0,0,1-.29-.11h-.3l-1.11-.26-.23-.05a4.44,4.44,0,0,1-2.15-1c-1.7-1.51-1.82-3.77-.32-5.89.14-.19.29-.39.46-.6,1-1.24,1.61-2.19,1-3.15a3.27,3.27,0,0,0-1.58-.92,4.12,4.12,0,0,1-2.24-1.46.5.5,0,0,1,.12-.67.44.44,0,0,1,.63.12,3.39,3.39,0,0,0,1.79,1.1,3.88,3.88,0,0,1,2,1.27c1.12,1.64-.15,3.25-1,4.32-.16.2-.31.39-.43.57-.58.81-1.72,2.89.17,4.56a3.45,3.45,0,0,0,1.77.79h.19l1.13.27a2,2,0,0,0,.27,0c.27,0,.66.06.7.49a.52.52,0,0,1-.45.56Z" fill="#edb8a6"/>
              <path id="Trazado_159094" data-name="Trazado 159094" d="M199.45,165.72a.46.46,0,0,1-.35-.17.5.5,0,0,1,.06-.68l.45-.4c1-.89,2.1-1.81,2.29-3.07a5.46,5.46,0,0,0-.61-2.8,12,12,0,0,1-.59-1.78,6.11,6.11,0,0,1,1.36-5.31c.21-.22.43-.44.66-.65a3.72,3.72,0,0,0,1.21-1.61,1.61,1.61,0,0,0-.46-1.55,1.42,1.42,0,0,0-1.51-.24.44.44,0,0,1-.59-.24.48.48,0,0,1,.23-.63,2.24,2.24,0,0,1,2.47.38,2.62,2.62,0,0,1,.73,2.53,4.34,4.34,0,0,1-1.48,2.08c-.21.2-.42.39-.6.6a5.05,5.05,0,0,0-1.14,4.41,10.787,10.787,0,0,0,.55,1.63,6.35,6.35,0,0,1,.66,3.33c-.24,1.62-1.49,2.71-2.6,3.67l-.45.39A.42.42,0,0,1,199.45,165.72Z" fill="#edb8a6"/>
              <path id="Trazado_159095" data-name="Trazado 159095" d="M204.78,176.88a4.908,4.908,0,0,1-.94-.09,12.73,12.73,0,0,1-4.93-2.53c-.61-.43-1.23-.87-1.85-1.25a30.18,30.18,0,0,0-5.2-2.31,35.151,35.151,0,0,1-4.63-2c-2.09-1.13-3.32-2.53-3.67-4.16a8.54,8.54,0,0,1,.2-3.38c.09-.42.18-.85.23-1.27.17-1.32-.13-2.93-1.22-3.34a.49.49,0,0,1-.27-.62.45.45,0,0,1,.58-.29c1.57.6,2,2.63,1.81,4.38-.06.45-.15.9-.24,1.34a7.4,7.4,0,0,0-.2,3c.28,1.33,1.36,2.51,3.19,3.51a35,35,0,0,0,4.52,1.92,30,30,0,0,1,5.35,2.39c.65.39,1.29.84,1.9,1.28a11.86,11.86,0,0,0,4.58,2.38,3,3,0,0,0,2.57-.51,1.89,1.89,0,0,0,.58-1.27,1.25,1.25,0,0,0-.28-.93.51.51,0,0,1,0-.68.42.42,0,0,1,.64,0,2.21,2.21,0,0,1,.53,1.65,2.82,2.82,0,0,1-.92,1.95A3.47,3.47,0,0,1,204.78,176.88Z" fill="#edb8a6"/>
              <path id="Trazado_159096" data-name="Trazado 159096" d="M190.35,173.76a4.78,4.78,0,0,1-4.06-2.36l-.1-.17a2.55,2.55,0,0,0-.31-.47c-.38-.38-1-.28-1.76-.17l-.43.07a5.46,5.46,0,0,1-3.31-.63.5.5,0,0,1-.2-.65.46.46,0,0,1,.61-.21,4.77,4.77,0,0,0,2.79.53l.41-.06a2.21,2.21,0,0,1,3,1.1l.09.16a3.78,3.78,0,0,0,4.2,1.77,7.338,7.338,0,0,0,1.24-.53c.31-.15.61-.3.93-.43a3.36,3.36,0,0,1,2.3-.17,3.81,3.81,0,0,0-.64-4.2,7.06,7.06,0,0,0-1.13-.84,7.23,7.23,0,0,1-1.44-1.13,4.19,4.19,0,0,1-.87-3.87.44.44,0,0,1,.56-.32.47.47,0,0,1,.3.6,3.2,3.2,0,0,0,.67,2.92,6.12,6.12,0,0,0,1.25,1,8.91,8.91,0,0,1,1.28,1,4.76,4.76,0,0,1,.57,5.79l-.24.35-.35-.2a2.28,2.28,0,0,0-1.94.05c-.3.11-.58.25-.87.39a7.85,7.85,0,0,1-1.39.59A4,4,0,0,1,190.35,173.76Z" fill="#edb8a6"/>
              <path id="Trazado_159097" data-name="Trazado 159097" d="M192.35,180.56a4.28,4.28,0,0,1-1.53-.32,7.84,7.84,0,0,1-3.79-3.12.5.5,0,0,1,.13-.67.43.43,0,0,1,.63.13,6.92,6.92,0,0,0,3.34,2.76,2.58,2.58,0,0,0,2,.07,3.29,3.29,0,0,0,.77-.65,4.68,4.68,0,0,1,.86-.73,4.25,4.25,0,0,1,2.68-.43,4.5,4.5,0,0,0,2.23-.18,1.55,1.55,0,0,0,.75-.84.9.9,0,0,0,0-.65.49.49,0,0,1,.22-.64.44.44,0,0,1,.6.23,1.88,1.88,0,0,1,0,1.4,2.46,2.46,0,0,1-1.23,1.38,5,5,0,0,1-2.57.27,2.72,2.72,0,0,0-2.94.89,4.381,4.381,0,0,1-1,.81,2.63,2.63,0,0,1-1.15.29Z" fill="#edb8a6"/>
              <path id="Trazado_159098" data-name="Trazado 159098" d="M194.9,186.18a8.4,8.4,0,0,1-2.24-.37.48.48,0,0,1-.33-.58.46.46,0,0,1,.55-.35,6.09,6.09,0,0,0,2.78.26,2.27,2.27,0,0,0,1.78-1.64,3.109,3.109,0,0,0,0-.32,2.891,2.891,0,0,1,.13-.73,2.13,2.13,0,0,1,1.53-1.32,5.911,5.911,0,0,1,1.16-.17l.51-.05a5.89,5.89,0,0,0,4.75-4.44.71.71,0,0,1,0-.72.48.48,0,0,1,.62-.18.71.71,0,0,1,.33.84,6.77,6.77,0,0,1-5.58,5.46h-.56a5.141,5.141,0,0,0-1,.14,1.28,1.28,0,0,0-.91.72,2.38,2.38,0,0,0-.08.5c0,.13,0,.27,0,.41a3.18,3.18,0,0,1-2.48,2.39,4.45,4.45,0,0,1-.96.15Z" fill="#edb8a6"/>
              <path id="Trazado_159099" data-name="Trazado 159099" d="M203.5,189.38h-.21a.49.49,0,0,1-.39-.55.46.46,0,0,1,.51-.41.71.71,0,0,0,.45-.1c.45-.3.47-1.12.44-1.58a8.59,8.59,0,0,0-.74-3l-.08-.19a5.361,5.361,0,0,1-.33-.85c-.39-1.55.55-3,1.51-4.2a.44.44,0,0,1,.65-.06.51.51,0,0,1,.05.68c-.82,1-1.61,2.21-1.33,3.33a3.849,3.849,0,0,0,.27.68l.08.2a9.59,9.59,0,0,1,.83,3.37,2.58,2.58,0,0,1-.86,2.46,1.54,1.54,0,0,1-.85.22Z" fill="#edb8a6"/>
            </g>
            <g id="Grupo_74547" data-name="Grupo 74547">
              <path id="Trazado_159100" data-name="Trazado 159100" d="M220.44,140.59h.11a5.3,5.3,0,0,0,4-2,.51.51,0,0,0-.05-.68.44.44,0,0,0-.64.06,4.45,4.45,0,0,1-3.32,1.69,5.78,5.78,0,0,1-2-.33,7.369,7.369,0,0,1-1.39-.58,5.62,5.62,0,0,1-2.72-4.32A.47.47,0,0,0,214,134h0a.48.48,0,0,0-.41.53,6.66,6.66,0,0,0,3.2,5.09,8,8,0,0,0,1.57.64,7.241,7.241,0,0,0,2.08.33Z" fill="#edb8a6"/>
              <path id="Trazado_159101" data-name="Trazado 159101" d="M209.34,173h.12a10.13,10.13,0,0,0,4.42-2.88c.43-.49.82-1,1.2-1.53a12.122,12.122,0,0,1,1.89-2.17,11,11,0,0,1,1.77-1.15,8.21,8.21,0,0,0,2.8-2.19c1.19-1.67,1.29-4.07.29-7.13-.12-.39-.26-.79-.4-1.18a12.53,12.53,0,0,1-1-5.33,13.667,13.667,0,0,1,.32-1.54,6.79,6.79,0,0,0,.23-3.38,7.46,7.46,0,0,0-.83-1.79c-.5-.88-.94-1.65-.66-2.39a.49.49,0,0,0-.24-.63.44.44,0,0,0-.59.26c-.46,1.19.16,2.29.72,3.26a7.229,7.229,0,0,1,.73,1.55,5.9,5.9,0,0,1-.24,2.88,13.17,13.17,0,0,0-.33,1.66,13,13,0,0,0,1.07,5.78c.14.39.27.78.4,1.16.89,2.74.83,4.84-.17,6.24a7.38,7.38,0,0,1-2.49,1.92,11.539,11.539,0,0,0-1.91,1.24,12.55,12.55,0,0,0-2,2.34c-.37.49-.75,1-1.15,1.45a9.19,9.19,0,0,1-4,2.63.48.48,0,0,0-.31.6.46.46,0,0,0,.36.32Z" fill="#edb8a6"/>
              <path id="Trazado_159102" data-name="Trazado 159102" d="M222.27,157.68a.44.44,0,0,0,.29-.11h.3l1.1-.26.23-.05a4.4,4.4,0,0,0,2.15-1c1.71-1.51,1.83-3.77.33-5.89-.14-.19-.3-.39-.47-.6-1-1.24-1.6-2.19-.95-3.15a3.35,3.35,0,0,1,1.59-.92,4.1,4.1,0,0,0,2.23-1.46.5.5,0,0,0-.11-.67.45.45,0,0,0-.64.12,3.31,3.31,0,0,1-1.79,1.1,3.85,3.85,0,0,0-2,1.27c-1.12,1.64.15,3.25,1,4.32.16.2.3.39.43.57.58.81,1.72,2.89-.18,4.56a3.41,3.41,0,0,1-1.77.79h-.18l-1.13.27a2.19,2.19,0,0,1-.28,0c-.26,0-.66.06-.69.49,0,.16,0,.44.45.56Z" fill="#edb8a6"/>
              <path id="Trazado_159103" data-name="Trazado 159103" d="M217.49,165.72a.46.46,0,0,0,.35-.17.51.51,0,0,0-.06-.68l-.46-.4c-1-.89-2.09-1.81-2.28-3.07a5.55,5.55,0,0,1,.6-2.8,12,12,0,0,0,.6-1.78,6.09,6.09,0,0,0-1.37-5.31c-.2-.22-.43-.44-.66-.65a3.69,3.69,0,0,1-1.2-1.61,1.63,1.63,0,0,1,.45-1.55,1.42,1.42,0,0,1,1.51-.24.44.44,0,0,0,.6-.24.49.49,0,0,0-.23-.63,2.24,2.24,0,0,0-2.47.38,2.62,2.62,0,0,0-.74,2.53,4.48,4.48,0,0,0,1.48,2.08c.21.2.42.39.61.6a5.08,5.08,0,0,1,1.14,4.41,10.793,10.793,0,0,1-.55,1.63,6.36,6.36,0,0,0-.67,3.33c.24,1.62,1.5,2.71,2.61,3.67l.45.39a.39.39,0,0,0,.29.11Z" fill="#edb8a6"/>
              <path id="Trazado_159104" data-name="Trazado 159104" d="M212.15,176.88a5,5,0,0,0,.95-.09,12.73,12.73,0,0,0,4.93-2.53c.6-.43,1.22-.87,1.85-1.25a30.082,30.082,0,0,1,5.19-2.31,34.711,34.711,0,0,0,4.64-2c2.09-1.13,3.32-2.53,3.67-4.16a8.36,8.36,0,0,0-.21-3.38c-.08-.42-.17-.85-.23-1.27-.17-1.32.14-2.93,1.22-3.34a.5.5,0,0,0,.28-.62.45.45,0,0,0-.58-.29c-1.57.6-2,2.63-1.81,4.38.06.45.14.9.23,1.34a7.41,7.41,0,0,1,.21,3c-.28,1.33-1.36,2.51-3.2,3.51a33.866,33.866,0,0,1-4.52,1.92,30.209,30.209,0,0,0-5.34,2.39c-.66.39-1.29.84-1.9,1.28a11.9,11.9,0,0,1-4.59,2.38,3,3,0,0,1-2.56-.51,1.9,1.9,0,0,1-.59-1.27,1.26,1.26,0,0,1,.29-.93.51.51,0,0,0,0-.68.43.43,0,0,0-.65,0,2.25,2.25,0,0,0-.52,1.65,2.85,2.85,0,0,0,.91,1.95,3.49,3.49,0,0,0,2.33.83Z" fill="#edb8a6"/>
              <path id="Trazado_159105" data-name="Trazado 159105" d="M226.59,173.76a4.78,4.78,0,0,0,4.06-2.36l.1-.17a2.541,2.541,0,0,1,.3-.47c.38-.38,1-.28,1.76-.17l.44.07a5.48,5.48,0,0,0,3.31-.63.51.51,0,0,0,.2-.65.46.46,0,0,0-.61-.21,4.77,4.77,0,0,1-2.79.53l-.42-.06a2.76,2.76,0,0,0-2.52.43,2.719,2.719,0,0,0-.45.67l-.09.16a3.78,3.78,0,0,1-4.2,1.77,7.341,7.341,0,0,1-1.24-.53c-.31-.15-.62-.3-.93-.43a3.36,3.36,0,0,0-2.3-.17,3.81,3.81,0,0,1,.63-4.2,7.149,7.149,0,0,1,1.14-.84,7.179,7.179,0,0,0,1.43-1.13,4.17,4.17,0,0,0,.88-3.87.44.44,0,0,0-.56-.32.49.49,0,0,0-.31.6,3.2,3.2,0,0,1-.66,2.92,6.189,6.189,0,0,1-1.26,1,8.828,8.828,0,0,0-1.27,1,4.76,4.76,0,0,0-.57,5.79l.23.35.36-.2a2.28,2.28,0,0,1,1.94.05,8.361,8.361,0,0,1,.86.39,8.17,8.17,0,0,0,1.39.59,4.09,4.09,0,0,0,1.15.09Z" fill="#edb8a6"/>
              <path id="Trazado_159106" data-name="Trazado 159106" d="M224.58,180.56a4.33,4.33,0,0,0,1.54-.32,7.82,7.82,0,0,0,3.78-3.12.5.5,0,0,0-.12-.67.43.43,0,0,0-.63.13,7,7,0,0,1-3.34,2.76,2.58,2.58,0,0,1-2,.07,3.539,3.539,0,0,1-.78-.65,4.61,4.61,0,0,0-.85-.73,4.27,4.27,0,0,0-2.69-.43,4.46,4.46,0,0,1-2.22-.18,1.51,1.51,0,0,1-.75-.84.85.85,0,0,1,0-.65.5.5,0,0,0-.22-.64.43.43,0,0,0-.6.23,1.88,1.88,0,0,0,0,1.4,2.48,2.48,0,0,0,1.22,1.38,5,5,0,0,0,2.58.27,2.72,2.72,0,0,1,2.94.89,4.17,4.17,0,0,0,1,.81,2.59,2.59,0,0,0,1.14.29Z" fill="#edb8a6"/>
              <path id="Trazado_159107" data-name="Trazado 159107" d="M222,186.18a8.321,8.321,0,0,0,2.23-.37.46.46,0,0,0,.33-.58.45.45,0,0,0-.54-.35,6.12,6.12,0,0,1-2.79.26,2.25,2.25,0,0,1-1.77-1.64,3.109,3.109,0,0,1,0-.32,3.409,3.409,0,0,0-.13-.73,2.17,2.17,0,0,0-1.53-1.32,6.129,6.129,0,0,0-1.16-.17l-.51-.05a5.89,5.89,0,0,1-4.75-4.44.74.74,0,0,0,0-.72.48.48,0,0,0-.62-.18.71.71,0,0,0-.33.84,6.77,6.77,0,0,0,5.58,5.46h.55a5.242,5.242,0,0,1,1,.14,1.29,1.29,0,0,1,.9.72,2.352,2.352,0,0,1,.09.5,3.046,3.046,0,0,0,.05.41,3.16,3.16,0,0,0,2.48,2.39,4.448,4.448,0,0,0,.92.15Z" fill="#edb8a6"/>
              <path id="Trazado_159108" data-name="Trazado 159108" d="M213.44,189.38h.21a.49.49,0,0,0,.39-.55.47.47,0,0,0-.52-.41.68.68,0,0,1-.44-.1c-.46-.3-.48-1.12-.45-1.58a8.81,8.81,0,0,1,.74-3l.09-.19a5.337,5.337,0,0,0,.32-.85c.4-1.55-.54-3-1.51-4.2a.43.43,0,0,0-.64-.06.51.51,0,0,0,0,.68c.82,1,1.61,2.21,1.33,3.33a4.809,4.809,0,0,1-.27.68l-.09.2a9.8,9.8,0,0,0-.82,3.37,2.56,2.56,0,0,0,.86,2.46A1.52,1.52,0,0,0,213.44,189.38Z" fill="#edb8a6"/>
            </g>
          </g>
        </g>
        <g id="Grupo_74550" data-name="Grupo 74550">
          <path id="Trazado_159109" data-name="Trazado 159109" d="M215.69,174.58H201.25a128.082,128.082,0,0,1,2.7,20.61c.28,9.82,0,149.3,0,184.08s1.92,86,4.52,86,4.52-51.17,4.52-86S212.7,205,213,195.19a128.081,128.081,0,0,1,2.69-20.61Z" fill="url(#linear-gradient)"/>
          <path id="Trazado_159110" data-name="Trazado 159110" d="M216.52,170.67c-1.7-6.15-8.05-6.78-8.05-6.78s-6.36.63-8.05,6.78,1.69,10.17,8.05,10.17S218.22,176.81,216.52,170.67Z" fill="#ecb4a1"/>
          <path id="Trazado_159111" data-name="Trazado 159111" d="M215.68,170.85c-1.52-5.51-7.21-6.07-7.21-6.07s-5.69.56-7.21,6.07,1.52,9.1,7.21,9.1S217.19,176.35,215.68,170.85Z" fill="url(#radial-gradient-7)"/>
        </g>
      </g>
    </g>
    <rect id="Rectngulo_32418" data-name="Rectngulo 32418" width="166.42" height="55.06" rx="12" transform="translate(380.37 74.48)" fill="#66d7e5"/>
    <rect id="Rectngulo_32419" data-name="Rectngulo 32419" width="166.42" height="64.85" rx="12" transform="translate(572.6 364.02)" fill="#dbd2f5"/>
    <rect id="Rectngulo_32420" data-name="Rectngulo 32420" width="166.42" height="64.85" rx="12" transform="translate(753.96 364.02)" fill="#dbd2f5"/>
    <rect id="Rectngulo_32421" data-name="Rectngulo 32421" width="166.42" height="93.89" rx="12" transform="translate(572.6 457.87)" fill="#dbd2f5"/>
    <rect id="Rectngulo_32422" data-name="Rectngulo 32422" width="166.42" height="93.89" rx="12" transform="translate(753.96 457.87)" fill="#dbd2f5"/>
    <rect id="Rectngulo_32423" data-name="Rectngulo 32423" width="166.42" height="45.94" rx="12" transform="translate(380.37 455.82)" fill="#ccf2f6"/>
    <rect id="Rectngulo_32424" data-name="Rectngulo 32424" width="166.42" height="45.94" rx="12" transform="translate(380.37 172.97)" fill="#ccf2f6"/>
    <g id="Grupo">
      <text id="Sistema_ne" data-name="Sistema ne" transform="translate(402.08 95.47)" fill="#12263f" font-size="16" font-family="Roboto-Regular, Roboto"><tspan x="0" y="0">Sistema ne</tspan></text>
      <text id="r" transform="translate(481.4 95.47)" fill="#12263f" font-size="16" font-family="Roboto-Regular, Roboto" letter-spacing="0.01em"><tspan x="0" y="0">r</tspan></text>
      <text id="vioso_" data-name="vioso " transform="translate(486.96 95.47)" fill="#12263f" font-size="16" font-family="Roboto-Regular, Roboto"><tspan x="0" y="0">vioso </tspan></text>
      <text id="cent" transform="translate(439.29 114.67)" fill="#12263f" font-size="16" font-family="Roboto-Regular, Roboto"><tspan x="0" y="0">cent</tspan></text>
      <text id="r-2" data-name="r" transform="translate(470.19 114.67)" fill="#12263f" font-size="16" font-family="Roboto-Regular, Roboto" letter-spacing="-0.02em"><tspan x="0" y="0">r</tspan></text>
      <text id="al" transform="translate(475.29 114.67)" fill="#12263f" font-size="16" font-family="Roboto-Regular, Roboto"><tspan x="0" y="0">al</tspan></text>
    </g>
    <rect id="Rectngulo_32425" data-name="Rectngulo 32425" width="166.42" height="55.06" rx="12" transform="translate(380.37 361.87)" fill="#66d7e5"/>
    <g id="Grupo-2" data-name="Grupo">
      <text id="Sistema_ne-2" data-name="Sistema ne" transform="translate(402.08 382.86)" fill="#12263f" font-size="16" font-family="Roboto-Regular, Roboto"><tspan x="0" y="0">Sistema ne</tspan></text>
      <text id="r-3" data-name="r" transform="translate(481.4 382.86)" fill="#12263f" font-size="16" font-family="Roboto-Regular, Roboto" letter-spacing="0.01em"><tspan x="0" y="0">r</tspan></text>
      <text id="vioso_2" data-name="vioso " transform="translate(486.96 382.86)" fill="#12263f" font-size="16" font-family="Roboto-Regular, Roboto"><tspan x="0" y="0">vioso </tspan></text>
      <text id="peri" transform="translate(429.89 402.06)" fill="#12263f" font-size="16" font-family="Roboto-Regular, Roboto"><tspan x="0" y="0">peri</tspan></text>
      <text id="f" transform="translate(456.64 402.06)" fill="#12263f" font-size="16" font-family="Roboto-Regular, Roboto" letter-spacing="-0.01em"><tspan x="0" y="0">f</tspan></text>
      <text id="rico" transform="translate(462.01 402.06)" fill="#12263f" font-size="16" font-family="Roboto-Regular, Roboto"><tspan x="0" y="0">rico</tspan></text>
    </g>
    <text id="Mdula_espinal" data-name="Mdula espinal" transform="translate(409.66 202.51)" fill="#12263f" font-size="16" font-family="Roboto-Regular, Roboto"><tspan x="0" y="0">Mdula espinal</tspan></text>
    <text id="Ganglios" transform="translate(432.31 486.47)" fill="#12263f" font-size="16" font-family="Roboto-Regular, Roboto"><tspan x="0" y="0">Ganglios</tspan></text>
    <text id="Cerebro" transform="translate(435.58 160.33)" fill="#12263f" font-size="16" font-family="Roboto-Regular, Roboto"><tspan x="0" y="0">Ce</tspan><tspan y="0" letter-spacing="-0.01em">r</tspan><tspan y="0">eb</tspan><tspan y="0" letter-spacing="-0.01em">r</tspan><tspan y="0">o</tspan></text>
    <text id="Nervios" transform="translate(436.36 440.15)" fill="#12263f" font-size="16" font-family="Roboto-Regular, Roboto"><tspan x="0" y="0">Ne</tspan><tspan y="0" letter-spacing="0.01em">r</tspan><tspan y="0">vios</tspan></text>
    <g id="Grupo_74553" data-name="Grupo 74553">
      <line id="Lnea_247" data-name="Lnea 247" x2="213.05" transform="translate(215.64 153.3)" fill="none" stroke="#7e5ee3" stroke-miterlimit="10" stroke-width="1"/>
      <circle id="Elipse_4641" data-name="Elipse 4641" cx="3.76" cy="3.76" r="3.76" transform="translate(212.07 149.54)" fill="#7e5ee3"/>
    </g>
    <g id="Grupo_74554" data-name="Grupo 74554">
      <line id="Lnea_248" data-name="Lnea 248" x2="169.12" transform="translate(211.25 195.94)" fill="none" stroke="#7e5ee3" stroke-miterlimit="10" stroke-width="1"/>
      <circle id="Elipse_4642" data-name="Elipse 4642" cx="3.76" cy="3.76" r="3.76" transform="translate(207.68 192.18)" fill="#7e5ee3"/>
    </g>
    <g id="Grupo_74555" data-name="Grupo 74555">
      <line id="Lnea_249" data-name="Lnea 249" x2="284.53" transform="translate(95.84 476.41)" fill="none" stroke="#7e5ee3" stroke-miterlimit="10" stroke-width="1"/>
      <circle id="Elipse_4643" data-name="Elipse 4643" cx="3.76" cy="3.76" r="3.76" transform="translate(92.27 472.65)" fill="#7e5ee3"/>
    </g>
    <g id="Grupo_74556" data-name="Grupo 74556">
      <line id="Lnea_250" data-name="Lnea 250" y1="68.29" x2="211.81" transform="translate(168.56 476.41)" fill="none" stroke="#7e5ee3" stroke-miterlimit="10" stroke-width="1"/>
      <path id="Trazado_159112" data-name="Trazado 159112" d="M169.9,548.22a3.76,3.76,0,1,1,2.42-4.73A3.76,3.76,0,0,1,169.9,548.22Z" fill="#7e5ee3"/>
    </g>
    <text id="Se_encarga_de_procesar_la_informacin_que_seleccionan_los_sentidos_para_responder_acciones_conscientes." data-name="Se encarga de procesar la informacin 
que seleccionan los sentidos para 
responder acciones conscientes." transform="translate(555.17 89.22)" fill="#12263f" font-size="16" font-family="Roboto-Regular, Roboto"><tspan x="0" y="0">Se enca</tspan><tspan y="0" letter-spacing="-0.01em">r</tspan><tspan y="0">ga de p</tspan><tspan y="0" letter-spacing="-0.01em">r</tspan><tspan y="0">ocesar la informacin </tspan><tspan x="0" y="19.2">que seleccionan los sentidos pa</tspan><tspan y="19.2" letter-spacing="-0.02em">r</tspan><tspan y="19.2">a </tspan><tspan x="0" y="38.4" letter-spacing="-0.01em">r</tspan><tspan y="38.4">esponder acciones conscientes.</tspan></text>
    <g id="Grupo-3" data-name="Grupo">
      <text id="Recep" transform="translate(423.41 525.09)" fill="#12263f" font-size="16" font-family="Roboto-Regular, Roboto"><tspan x="0" y="0">Recep</tspan></text>
      <text id="t" transform="translate(467.57 525.09)" fill="#12263f" font-size="16" font-family="Roboto-Regular, Roboto" letter-spacing="-0.01em"><tspan x="0" y="0">t</tspan></text>
      <text id="o" transform="translate(472.64 525.09)" fill="#12263f" font-size="16" font-family="Roboto-Regular, Roboto"><tspan x="0" y="0">o</tspan></text>
      <text id="r-4" data-name="r" transform="translate(481.76 525.09)" fill="#12263f" font-size="16" font-family="Roboto-Regular, Roboto" letter-spacing="-0.01em"><tspan x="0" y="0">r</tspan></text>
      <text id="es_" data-name="es " transform="translate(487.03 525.09)" fill="#12263f" font-size="16" font-family="Roboto-Regular, Roboto"><tspan x="0" y="0">es </tspan></text>
      <text id="sensoriales" transform="translate(422.81 544.29)" fill="#12263f" font-size="16" font-family="Roboto-Regular, Roboto"><tspan x="0" y="0">sensoriales</tspan></text>
    </g>
    <g id="Grupo_74557" data-name="Grupo 74557">
      <line id="Lnea_251" data-name="Lnea 251" x2="22.22" transform="translate(546.79 391.58)" fill="none" stroke="#7e5ee3" stroke-miterlimit="10" stroke-width="1"/>
      <path id="Trazado_159113" data-name="Trazado 159113" d="M568.28,394.07l4.32-2.49-4.32-2.5Z" fill="#7e5ee3"/>
    </g>
    <g id="Grupo_74558" data-name="Grupo 74558">
      <line id="Lnea_252" data-name="Lnea 252" y2="18.64" transform="translate(655.81 435.17)" fill="none" stroke="#7e5ee3" stroke-miterlimit="10" stroke-width="1"/>
      <path id="Trazado_159114" data-name="Trazado 159114" d="M653.31,435.9l2.5-4.32,2.49,4.32Z" fill="#7e5ee3"/>
      <path id="Trazado_159115" data-name="Trazado 159115" d="M653.31,453.08l2.5,4.32,2.49-4.32Z" fill="#7e5ee3"/>
    </g>
    <g id="Grupo_74559" data-name="Grupo 74559">
      <line id="Lnea_253" data-name="Lnea 253" y2="18.64" transform="translate(837.17 435.17)" fill="none" stroke="#7e5ee3" stroke-miterlimit="10" stroke-width="1"/>
      <path id="Trazado_159116" data-name="Trazado 159116" d="M834.67,435.9l2.49-4.32,2.5,4.32Z" fill="#7e5ee3"/>
      <path id="Trazado_159117" data-name="Trazado 159117" d="M834.67,453.08l2.49,4.32,2.5-4.32Z" fill="#7e5ee3"/>
    </g>
    <g id="Grupo-4" data-name="Grupo">
      <text id="Sistema_Ne-3" data-name="Sistema Ne" transform="translate(593.01 390.24)" fill="#12263f" font-size="16" font-family="Roboto-Regular, Roboto"><tspan x="0" y="0">Sistema Ne</tspan></text>
      <text id="r-5" data-name="r" transform="translate(674.91 390.24)" fill="#12263f" font-size="16" font-family="Roboto-Regular, Roboto" letter-spacing="0.01em"><tspan x="0" y="0">r</tspan></text>
      <text id="vioso_3" data-name="vioso " transform="translate(680.46 390.24)" fill="#12263f" font-size="16" font-family="Roboto-Regular, Roboto"><tspan x="0" y="0">vioso </tspan></text>
      <text id="Somtico_SNS_" data-name="Somtico (SNS)" transform="translate(599.14 409.44)" fill="#12263f" font-size="16" font-family="Roboto-Regular, Roboto"><tspan x="0" y="0">Somtico (SNS)</tspan></text>
    </g>
    <g id="Grupo-5" data-name="Grupo">
      <text id="Ne" transform="translate(590.7 487.97)" fill="#12263f" font-size="16" font-family="Roboto-Regular, Roboto"><tspan x="0" y="0">Ne</tspan></text>
      <text id="r-6" data-name="r" transform="translate(610.58 487.97)" fill="#12263f" font-size="16" font-family="Roboto-Regular, Roboto" letter-spacing="0.01em"><tspan x="0" y="0">r</tspan></text>
      <text id="vios_sensiti" data-name="vios sensiti" transform="translate(616.14 487.97)" fill="#12263f" font-size="16" font-family="Roboto-Regular, Roboto"><tspan x="0" y="0">vios sensiti</tspan></text>
      <text id="v" transform="translate(695.9 487.97)" fill="#12263f" font-size="16" font-family="Roboto-Regular, Roboto" letter-spacing="-0.01em"><tspan x="0" y="0">v</tspan></text>
      <text id="os" transform="translate(703.54 487.97)" fill="#12263f" font-size="16" font-family="Roboto-Regular, Roboto"><tspan x="0" y="0">os</tspan></text>
      <text id="Ne-2" data-name="Ne" transform="translate(596.93 507.17)" fill="#12263f" font-size="16" font-family="Roboto-Regular, Roboto"><tspan x="0" y="0">Ne</tspan></text>
      <text id="r-7" data-name="r" transform="translate(616.82 507.17)" fill="#12263f" font-size="16" font-family="Roboto-Regular, Roboto" letter-spacing="0.01em"><tspan x="0" y="0">r</tspan></text>
      <text id="vios_mo" data-name="vios mo" transform="translate(622.37 507.17)" fill="#12263f" font-size="16" font-family="Roboto-Regular, Roboto"><tspan x="0" y="0">vios mo</tspan></text>
      <text id="t-2" data-name="t" transform="translate(678.49 507.17)" fill="#12263f" font-size="16" font-family="Roboto-Regular, Roboto" letter-spacing="-0.01em"><tspan x="0" y="0">t</tspan></text>
      <text id="o-2" data-name="o" transform="translate(683.56 507.17)" fill="#12263f" font-size="16" font-family="Roboto-Regular, Roboto"><tspan x="0" y="0">o</tspan></text>
      <text id="r-8" data-name="r" transform="translate(692.68 507.17)" fill="#12263f" font-size="16" font-family="Roboto-Regular, Roboto" letter-spacing="-0.01em"><tspan x="0" y="0">r</tspan></text>
      <text id="es" transform="translate(697.95 507.17)" fill="#12263f" font-size="16" font-family="Roboto-Regular, Roboto"><tspan x="0" y="0">es</tspan></text>
      <text id="Ne-3" data-name="Ne" transform="translate(602.46 526.37)" fill="#12263f" font-size="16" font-family="Roboto-Regular, Roboto"><tspan x="0" y="0">Ne</tspan></text>
      <text id="r-9" data-name="r" transform="translate(622.34 526.37)" fill="#12263f" font-size="16" font-family="Roboto-Regular, Roboto" letter-spacing="0.01em"><tspan x="0" y="0">r</tspan></text>
      <text id="vios_mix" data-name="vios mix" transform="translate(627.9 526.37)" fill="#12263f" font-size="16" font-family="Roboto-Regular, Roboto"><tspan x="0" y="0">vios mix</tspan></text>
      <text id="t-3" data-name="t" transform="translate(686.7 526.37)" fill="#12263f" font-size="16" font-family="Roboto-Regular, Roboto" letter-spacing="-0.01em"><tspan x="0" y="0">t</tspan></text>
      <text id="os-2" data-name="os" transform="translate(691.77 526.37)" fill="#12263f" font-size="16" font-family="Roboto-Regular, Roboto"><tspan x="0" y="0">os</tspan></text>
    </g>
    <g id="Grupo-6" data-name="Grupo">
      <text id="Sistema_ne-4" data-name="Sistema ne" transform="translate(773.72 487.97)" fill="#12263f" font-size="16" font-family="Roboto-Regular, Roboto"><tspan x="0" y="0">Sistema ne</tspan></text>
      <text id="r-10" data-name="r" transform="translate(853.04 487.97)" fill="#12263f" font-size="16" font-family="Roboto-Regular, Roboto" letter-spacing="0.01em"><tspan x="0" y="0">r</tspan></text>
      <text id="vioso:" transform="translate(858.6 487.97)" fill="#12263f" font-size="16" font-family="Roboto-Regular, Roboto"><tspan x="0" y="0">vioso:</tspan></text>
      <text id="Simptico" transform="translate(801.32 507.17)" fill="#12263f" font-size="16" font-family="Roboto-Regular, Roboto"><tspan x="0" y="0">Simptico</tspan></text>
      <text id="P" transform="translate(785.68 526.37)" fill="#12263f" font-size="16" font-family="Roboto-Regular, Roboto" letter-spacing="-0.01em"><tspan x="0" y="0">P</tspan></text>
      <text id="a" transform="translate(795.69 526.37)" fill="#12263f" font-size="16" font-family="Roboto-Regular, Roboto"><tspan x="0" y="0">a</tspan></text>
      <text id="r-11" data-name="r" transform="translate(804.39 526.37)" fill="#12263f" font-size="16" font-family="Roboto-Regular, Roboto" letter-spacing="-0.02em"><tspan x="0" y="0">r</tspan></text>
      <text id="asimptico" transform="translate(809.49 526.37)" fill="#12263f" font-size="16" font-family="Roboto-Regular, Roboto"><tspan x="0" y="0">asimptico</tspan></text>
    </g>
    <g id="Grupo-7" data-name="Grupo">
      <text id="Sistema_Ne-5" data-name="Sistema Ne" transform="translate(776.75 390.24)" fill="#12263f" font-size="16" font-family="Roboto-Regular, Roboto"><tspan x="0" y="0">Sistema Ne</tspan></text>
      <text id="r-12" data-name="r" transform="translate(858.65 390.24)" fill="#12263f" font-size="16" font-family="Roboto-Regular, Roboto" letter-spacing="0.01em"><tspan x="0" y="0">r</tspan></text>
      <text id="vioso_4" data-name="vioso " transform="translate(864.2 390.24)" fill="#12263f" font-size="16" font-family="Roboto-Regular, Roboto"><tspan x="0" y="0">vioso </tspan></text>
      <text id="A-2" data-name="A" transform="translate(779.07 409.44)" fill="#12263f" font-size="16" font-family="Roboto-Regular, Roboto" letter-spacing="-0.01em"><tspan x="0" y="0">A</tspan></text>
      <text id="u" transform="translate(789.43 409.44)" fill="#12263f" font-size="16" font-family="Roboto-Regular, Roboto"><tspan x="0" y="0">u</tspan></text>
      <text id="t-4" data-name="t" transform="translate(798.25 409.44)" fill="#12263f" font-size="16" font-family="Roboto-Regular, Roboto" letter-spacing="-0.01em"><tspan x="0" y="0">t</tspan></text>
      <text id="nomo_S" data-name="nomo (S" transform="translate(803.32 409.44)" fill="#12263f" font-size="16" font-family="Roboto-Regular, Roboto"><tspan x="0" y="0">nomo (S</tspan></text>
      <text id="N" transform="translate(872.46 409.44)" fill="#12263f" font-size="16" font-family="Roboto-Regular, Roboto" letter-spacing="0.01em"><tspan x="0" y="0">N</tspan></text>
      <text id="A_" data-name="A)" transform="translate(884.01 409.44)" fill="#12263f" font-size="16" font-family="Roboto-Regular, Roboto"><tspan x="0" y="0">A)</tspan></text>
    </g>
    <rect id="Rectngulo_32426" data-name="Rectngulo 32426" width="980.83" height="883.69" transform="translate(0 0.35)" fill="none"/>
  </g>
</svg>
